<svg width="509" height="421" viewBox="0 0 509 421" fill="none" xmlns="http://www.w3.org/2000/svg">
<mask id="mask0" style="mask-type:alpha" maskUnits="userSpaceOnUse" x="4" y="0" width="501" height="413">
<path d="M4 0H505V413H4V0Z" fill="#C4C4C4"/>
</mask>
<g mask="url(#mask0)">
<path d="M225 25.0515C141.128 -32.219 7.67358 32.6873 16.9996 169.234C32.902 402.052 195.136 429.096 336.999 402.052C522.635 366.664 565.464 154.297 394.054 169.234C256.493 181.221 329.84 96.6395 225 25.0515Z" fill="#FCDDD4"/>
<mask id="mask1" style="mask-type:alpha" maskUnits="userSpaceOnUse" x="-40" y="-27" width="584" height="501">
<path d="M224.999 25.0516C141.127 -32.2188 7.6726 32.6874 16.9987 169.234C32.901 402.052 195.135 429.096 336.998 402.052C522.634 366.664 565.463 154.298 394.053 169.234C256.492 181.221 329.839 96.6396 224.999 25.0516Z" fill="#FCDDD4"/>
</mask>
<g mask="url(#mask1)">
<path opacity="0.7" d="M-7.92854 40.1379C19.7024 28.0064 84.8793 10.5246 124.539 37.6494C174.115 71.5555 20.7505 115.389 67.947 141.186C115.144 166.983 203.336 58.5911 237.422 77.2225C271.509 95.8539 150.69 145.561 185.844 171.585C220.998 197.608 324.099 83.7477 366.768 105.368C409.436 126.988 264.763 189.189 332.935 226.452" stroke="url(#paint0_linear)" stroke-width="2"/>
<path d="M162 429.051C162 401.437 184.386 379.051 212 379.051L479 379.051L479 489.051L162 489.051L162 429.051Z" fill="#F58A6B"/>
</g>
<path fill-rule="evenodd" clip-rule="evenodd" d="M49.367 183.676C51.0038 185.023 52.2836 186.466 53.2933 187.854L55.9248 184.343C54.677 183.019 53.461 181.814 52.007 180.673L49.367 183.676Z" fill="#3E1A0B"/>
<path fill-rule="evenodd" clip-rule="evenodd" d="M57.9001 189.808C56.4205 187.143 53.1171 186.243 50.4834 187.841L46.9931 190.052C44.3594 191.651 43.522 195.192 44.8826 197.889C46.3621 200.554 49.6655 201.454 52.2992 199.856L55.7895 197.645C58.4232 196.046 59.4115 192.592 57.9001 189.808Z" fill="#F69E9F"/>
<path fill-rule="evenodd" clip-rule="evenodd" d="M199.099 78.245L137.271 88.4338L133.978 68.5241C133.65 66.826 132.045 65.5978 130.196 65.8382L81.1859 73.868C79.4875 74.1955 78.2589 75.8003 78.4992 77.6493L81.7926 97.559L23.5125 107.18C22.0522 107.444 20.9107 108.897 21.1744 110.358L61.0656 353.512C61.3292 354.972 62.7833 356.113 64.2436 355.849L239.862 327.033C241.322 326.77 242.464 325.316 242.2 323.856L202.19 80.7334C202.132 79.0905 200.591 78.1003 199.099 78.245Z" fill="url(#paint1_linear)"/>
<path fill-rule="evenodd" clip-rule="evenodd" d="M190.519 109.048L36.1873 134.456C34.846 134.688 33.9107 135.959 34.1425 137.3L68.7013 347.697C68.933 349.038 70.2042 349.973 71.5455 349.741L225.877 324.333C227.218 324.101 228.154 322.83 227.922 321.489L193.363 111.092C193.131 109.751 191.86 108.816 190.519 109.048Z" fill="#F36F49"/>
<path fill-rule="evenodd" clip-rule="evenodd" d="M190.044 101.591L39.4662 126.248C38.1248 126.48 37.3086 127.719 37.5404 129.06L71.2678 334.45C71.4995 335.791 72.7389 336.607 74.0802 336.376L224.745 311.567C226.086 311.335 226.902 310.096 226.671 308.755L192.943 103.365C192.624 102.175 191.385 101.359 190.044 101.591Z" fill="#FAFBFC"/>
<path opacity="0.8" d="M184.514 110.472L47.532 133.017C46.7858 133.089 46.1354 133.518 45.7868 134.122C45.4382 134.726 45.2405 135.416 45.3128 136.162L76.4421 325.666C76.5144 326.412 76.9438 327.062 77.5475 327.411C78.1512 327.759 78.8421 327.957 79.5882 327.884L216.602 305.458C217.348 305.386 217.998 304.956 218.347 304.353C218.695 303.749 218.893 303.058 218.821 302.312L187.66 112.69C187.587 111.944 187.158 111.294 186.554 110.945C185.951 110.597 185.26 110.399 184.514 110.472ZM217.718 302.48C217.845 302.957 217.703 303.377 217.409 303.711C217.116 304.045 216.791 304.26 216.315 304.387L79.4521 326.9C78.976 327.028 78.5551 326.885 78.2213 326.592C77.8876 326.299 77.6729 325.974 77.5453 325.498L46.3842 135.875C46.2566 135.399 46.399 134.978 46.6924 134.645C46.9857 134.311 47.3109 134.096 47.7871 133.969L184.769 111.424C185.245 111.296 185.666 111.438 186 111.732C186.333 112.025 186.548 112.35 186.676 112.826L217.718 302.48Z" fill="#F58A6B"/>
<path fill-rule="evenodd" clip-rule="evenodd" d="M106.471 75.3842C103.551 75.9117 101.593 78.6047 102.12 81.5249C102.648 84.445 105.341 86.4021 108.262 85.8746C111.182 85.3471 113.14 82.654 112.613 79.7339C112.117 76.9328 109.392 74.8567 106.471 75.3842Z" fill="#FAFBFC"/>
<path fill-rule="evenodd" clip-rule="evenodd" d="M147.594 83.627L70.5906 96.2237C68.8922 96.5512 67.6636 98.156 67.9039 100.005L71.4928 121.494C71.8203 123.192 73.4252 124.42 75.2746 124.18L152.278 111.583C153.976 111.256 155.205 109.651 154.964 107.802L151.463 86.162C151.016 84.4958 149.292 83.2995 147.594 83.627Z" fill="#F58A6B"/>
<path opacity="0.8" fill-rule="evenodd" clip-rule="evenodd" d="M106.151 93.7113L76.8168 98.51C75.4755 98.7418 74.5402 100.013 74.772 101.354L77.5615 117.955C77.7932 119.296 79.0644 120.231 80.4057 119.999L109.74 115.2C111.082 114.968 112.017 113.697 111.785 112.356L108.996 95.7555C108.764 94.4144 107.493 93.4794 106.151 93.7113Z" fill="#F36F49"/>
<path opacity="0.2" d="M102.061 148.02L102.4 150.086L183.024 136.833L182.684 134.767L102.061 148.02Z" fill="#EE4D47"/>
<path opacity="0.2" d="M102.91 153.251L103.25 155.318L183.873 142.064L183.533 139.998L102.91 153.251Z" fill="#EE4D47"/>
<path opacity="0.2" d="M143.971 151.704L144.311 153.771L184.683 147.134L184.343 145.067L143.971 151.704Z" fill="#EE4D47"/>
<path opacity="0.2" d="M103.757 158.342L104.097 160.409L141.915 154.192L141.576 152.125L103.757 158.342Z" fill="#EE4D47"/>
<path opacity="0.2" d="M107.621 182.205L107.961 184.272L188.584 171.019L188.244 168.952L107.621 182.205Z" fill="#EE4D47"/>
<path opacity="0.2" d="M108.471 187.437L108.811 189.504L189.434 176.25L189.094 174.183L108.471 187.437Z" fill="#EE4D47"/>
<path opacity="0.2" d="M149.655 185.87L149.995 187.937L190.367 181.3L190.028 179.233L149.655 185.87Z" fill="#EE4D47"/>
<path opacity="0.2" d="M109.32 192.528L109.659 194.594L147.478 188.378L147.138 186.311L109.32 192.528Z" fill="#EE4D47"/>
<path opacity="0.2" d="M112.678 212.865L113.018 214.932L193.641 201.678L193.301 199.612L112.678 212.865Z" fill="#EE4D47"/>
<path opacity="0.2" d="M113.528 218.096L113.867 220.163L194.49 206.91L194.151 204.843L113.528 218.096Z" fill="#EE4D47"/>
<path opacity="0.2" d="M154.711 216.529L155.051 218.596L195.423 211.959L195.083 209.893L154.711 216.529Z" fill="#EE4D47"/>
<path opacity="0.2" d="M114.374 223.188L114.714 225.255L152.533 219.038L152.193 216.971L114.374 223.188Z" fill="#EE4D47"/>
<path opacity="0.2" d="M117.848 244.445L118.188 246.512L198.811 233.259L198.471 231.192L117.848 244.445Z" fill="#EE4D47"/>
<path opacity="0.2" d="M118.719 249.798L119.059 251.865L199.682 238.612L199.342 236.545L118.719 249.798Z" fill="#EE4D47"/>
<path opacity="0.2" d="M159.901 248.231L160.24 250.298L200.613 243.662L200.273 241.595L159.901 248.231Z" fill="#EE4D47"/>
<path opacity="0.2" d="M119.565 254.89L119.904 256.957L157.723 250.74L157.383 248.673L119.565 254.89Z" fill="#EE4D47"/>
<path opacity="0.2" d="M122.939 275.822L123.278 277.889L203.901 264.636L203.562 262.569L122.939 275.822Z" fill="#EE4D47"/>
<path opacity="0.2" d="M123.788 281.054L124.128 283.121L204.751 269.867L204.411 267.8L123.788 281.054Z" fill="#EE4D47"/>
<path opacity="0.2" d="M164.972 279.486L165.312 281.553L205.684 274.917L205.344 272.85L164.972 279.486Z" fill="#EE4D47"/>
<path opacity="0.2" d="M124.758 286.126L125.098 288.192L162.916 281.976L162.577 279.909L124.758 286.126Z" fill="#EE4D47"/>
<path opacity="0.2" d="M64.0205 148.37L63.0363 148.506L63.1724 149.49L66.2022 167.94L66.3383 168.924L67.3225 168.788L87.1169 165.525L88.1011 165.388L87.965 164.404L84.9353 145.955L84.7992 144.971L83.815 145.107L64.0205 148.37ZM85.8925 163.812L67.9155 166.715L65.126 150.115L82.9839 147.243L85.8925 163.812Z" fill="#EE4D47"/>
<path opacity="0.2" d="M69.6574 183.214L68.6732 183.35L68.9283 184.302L71.9581 202.752L72.0942 203.736L73.0783 203.6L92.8728 200.337L93.857 200.201L93.7209 199.217L90.6911 180.767L90.555 179.783L89.5708 179.919L69.6574 183.214ZM91.5293 198.656L73.6713 201.527L70.8818 184.927L88.7398 182.055L91.5293 198.656Z" fill="#EE4D47"/>
<path opacity="0.2" d="M75.1494 216.566L74.1652 216.702L74.3013 217.686L77.3311 236.136L77.4672 237.12L78.4514 236.984L98.2458 233.721L99.23 233.584L99.0939 232.6L96.0641 214.151L95.9281 213.167L94.9439 213.303L75.1494 216.566ZM97.0214 232.008L79.1634 234.879L76.3739 218.279L94.2318 215.407L97.0214 232.008Z" fill="#EE4D47"/>
<path opacity="0.2" d="M80.7051 250.156L79.7209 250.292L79.857 251.276L82.9187 269.845L83.0548 270.829L84.039 270.693L103.833 267.43L104.818 267.294L104.681 266.31L101.652 247.86L101.516 246.876L100.531 247.012L80.7051 250.156ZM102.577 265.598L84.7191 268.47L81.9296 251.869L99.7875 248.998L102.577 265.598Z" fill="#EE4D47"/>
<path opacity="0.2" d="M86.0616 282.524L85.0774 282.661L85.2134 283.645L88.2432 302.094L88.3793 303.078L89.3635 302.942L109.158 299.679L110.142 299.543L110.006 298.559L106.976 280.109L106.84 279.125L105.856 279.261L86.0616 282.524ZM107.902 297.847L90.0437 300.719L87.2541 284.118L105.112 281.247L107.902 297.847Z" fill="#EE4D47"/>
<path d="M76.3355 157.188L66.0086 151.026L64.8438 152.869L76.1953 159.522L77.1008 160.045L77.6237 159.139L91.593 136.517L89.7819 135.472L76.3355 157.188Z" fill="#EE4D47"/>
<path d="M82.2277 192.984L71.9008 186.822L70.736 188.665L82.0875 195.318L82.9612 195.722L83.516 194.935L97.4534 172.194L95.6423 171.149L82.2277 192.984Z" fill="#F58A6B"/>
<path d="M93.507 261.268L83.0611 255.138L82.0153 256.949L93.2478 263.634L94.1534 264.156L94.6762 263.251L108.765 240.597L106.922 239.433L93.507 261.268Z" fill="#F58A6B"/>
<path fill-rule="evenodd" clip-rule="evenodd" d="M64.1058 367.239C63.0344 367.526 62.4244 368.582 62.7114 369.653C62.9984 370.725 64.0549 371.334 65.1263 371.047C66.1976 370.76 66.8076 369.704 66.5206 368.633C66.2336 367.562 65.1771 366.952 64.1058 367.239Z" fill="#FAFBFC"/>
<path d="M93.4957 358.838C94.2407 358.504 94.5734 357.629 94.2387 356.884C93.904 356.139 93.0286 355.806 92.2836 356.141C91.5385 356.476 91.2059 357.351 91.5406 358.096C91.8753 358.841 92.7506 359.173 93.4957 358.838Z" fill="#FAFBFC"/>
<path d="M134.28 346.777C134.872 346.618 135.223 346.01 135.064 345.419C134.906 344.827 134.298 344.476 133.706 344.635C133.114 344.793 132.763 345.401 132.922 345.993C133.08 346.585 133.688 346.936 134.28 346.777Z" fill="#FAFBFC"/>
<path fill-rule="evenodd" clip-rule="evenodd" d="M155.495 342.623C154.542 342.879 154.019 343.784 154.275 344.736C154.53 345.688 155.435 346.211 156.388 345.956C157.34 345.701 157.863 344.795 157.608 343.843C157.384 343.01 156.447 342.368 155.495 342.623Z" fill="#FAFBFC"/>
<path fill-rule="evenodd" clip-rule="evenodd" d="M187.748 335.384C187.39 335.48 187.216 335.782 187.312 336.139C187.407 336.496 187.709 336.67 188.066 336.575C188.424 336.479 188.598 336.177 188.502 335.82C188.526 335.431 188.105 335.289 187.748 335.384Z" fill="#FAFBFC"/>
<path fill-rule="evenodd" clip-rule="evenodd" d="M254.373 313.578C253.778 313.737 253.548 314.309 253.676 314.785C253.835 315.38 254.407 315.61 254.883 315.482C255.479 315.323 255.708 314.751 255.581 314.275C255.572 313.767 254.968 313.418 254.373 313.578Z" fill="#FAFBFC"/>
<path d="M365.479 122.052C365.479 111.006 356.524 102.052 345.479 102.052H269.999C258.954 102.052 249.999 111.006 249.999 122.052V132.454C249.999 143.5 258.954 152.454 269.999 152.454H365.479V122.052Z" fill="white"/>
<circle r="3.82804" transform="matrix(-1 0 0 1 339.32 127.572)" fill="#F4A984"/>
<circle r="3.82804" transform="matrix(-1 0 0 1 323.369 127.572)" fill="#F4A984"/>
<circle r="3.82804" transform="matrix(-1 0 0 1 307.419 127.572)" fill="#F4A984"/>
<circle r="3.82804" transform="matrix(-1 0 0 1 291.469 127.572)" fill="#F4A984"/>
<circle r="3.82804" transform="matrix(-1 0 0 1 275.519 127.572)" fill="#F4A984"/>
<path d="M216 289.552C172.4 289.552 194.5 226.552 211 195.051C219.833 188.385 241.5 174.952 257.5 174.552C273.5 174.152 283.5 194.052 286.5 204.052C284.667 204.218 282.8 211.852 290 241.052C297.2 270.252 293.667 285.552 291 289.552H216Z" fill="#402B2B"/>
<path d="M261.599 274.592C257.487 267.403 260.571 256.277 260.571 256.277L247.891 258.845L235.211 256.277C235.211 256.277 236.753 261.583 236.239 267.403C240.694 272.538 250.976 282.124 261.599 274.592Z" fill="url(#paint2_linear)"/>
<path d="M259.797 260.285C257.022 261.957 253.515 263.504 249.59 264.691C244.666 266.18 239.975 266.831 236.292 266.691C236.629 261.158 235.211 256.277 235.211 256.277L247.891 258.845L260.571 256.277C260.571 256.277 260.124 257.89 259.797 260.285Z" fill="url(#paint3_linear)" style="mix-blend-mode:multiply"/>
<path d="M216.876 284.691C224.244 291.196 238.809 305.403 248.062 305.403C257.316 305.403 273.766 291.88 281.134 285.376C277.535 284.007 266.569 279.727 263.998 277.502C263.142 276.646 262.285 275.619 261.771 274.592C251.147 282.124 240.866 272.538 236.41 267.232C236.068 270.998 235.04 274.763 232.126 277.331C229.213 279.727 220.303 283.322 216.876 284.691Z" fill="url(#paint4_linear)"/>
<path d="M282.776 217.422C281.576 215.197 279.692 214.854 278.492 215.197C278.492 215.197 275.065 204.242 272.666 196.197C264.612 192.431 257.073 189.179 247.991 188.494V188.323C246.62 188.323 244.221 188.323 242.85 188.323C237.196 188.494 231.541 188.665 226.058 189.692C224.687 190.035 223.316 190.377 221.945 190.377C220.232 199.449 217.319 215.368 216.119 215.197H215.948C215.776 215.197 215.776 215.197 215.605 215.025C214.406 214.683 213.035 215.025 211.835 217.079C209.779 220.845 211.835 228.377 214.577 230.602C215.948 231.629 217.147 232.485 218.004 232.998C219.375 239.845 221.774 246.349 225.372 250.286C234.797 260.385 243.536 262.611 245.935 262.953C246.106 262.953 246.449 262.953 246.62 262.953C246.62 262.953 246.792 262.953 246.963 262.953C248.676 262.782 258.101 261.07 268.211 250.115C271.809 246.349 274.38 243.611 275.922 233.512C276.95 232.998 277.978 232.142 279.692 230.773C282.776 228.719 284.832 221.188 282.776 217.422Z" fill="url(#paint5_linear)"/>
<path d="M247.736 227.052C247.736 227.052 247.868 230.908 246.825 232.177C245.782 233.446 243.803 234.674 243.64 235.623C243.449 236.391 244.277 237.739 245.722 238.07C247.167 238.4 247.402 238.918 247.402 238.918C247.402 238.918 244.735 239.699 243.067 237.926C241.399 236.154 242.661 234.297 243.883 233.185C245.105 232.073 245.654 231.619 246.176 230.985C246.849 230.327 247.736 227.052 247.736 227.052Z" fill="#D87C60"/>
<path d="M258.066 244.052H237.364C236.689 244.052 236.212 244.707 236.483 245.326C237.943 248.661 241.524 253.552 247.5 253.552C253.451 253.552 257.284 248.7 258.929 245.367C259.237 244.743 258.762 244.052 258.066 244.052Z" fill="#D87C60"/>
<path fill-rule="evenodd" clip-rule="evenodd" d="M257.976 247.052H237.367C237.015 246.454 236.721 245.869 236.484 245.326C236.213 244.707 236.689 244.052 237.365 244.052H258.066C258.762 244.052 259.238 244.743 258.93 245.367C258.667 245.898 258.349 246.469 257.976 247.052Z" fill="white"/>
<path d="M267.598 175.999C293.129 179.251 287.132 210.404 282.163 215.881L278.5 222.052C276.667 218.885 272.9 210.152 272.5 200.552C268.667 203.052 257.2 208.052 242 208.052C223 208.052 217.792 211.197 216 220.052C211.545 210.124 208.481 190.035 219.447 178.738C234.526 162.99 257.316 159.224 267.598 175.999Z" fill="#402B2B"/>
<path d="M216.019 219.989L216.876 227.35C216.876 227.35 214.305 225.98 213.791 222.557C213.62 220.503 214.477 219.134 216.019 219.989Z" fill="#ED8A40"/>
<path d="M278.219 219.989L277.362 227.35C277.362 227.35 279.933 225.98 280.447 222.557C280.618 220.503 279.933 219.134 278.219 219.989Z" fill="#ED8A40"/>
<path d="M264.685 228.312C264.685 229.853 263.486 231.222 261.772 231.222C260.23 231.222 258.859 230.024 258.859 228.312C258.859 226.772 260.059 225.402 261.772 225.402C263.486 225.402 264.685 226.772 264.685 228.312Z" fill="#402B2B"/>
<path d="M234.184 231.222C235.792 231.222 237.097 229.919 237.097 228.312C237.097 226.705 235.792 225.402 234.184 225.402C232.575 225.402 231.271 226.705 231.271 228.312C231.271 229.919 232.575 231.222 234.184 231.222Z" fill="#402B2B"/>
<path d="M226.541 222.912C227.79 221.55 231.446 218.825 236.078 218.825" stroke="#402B2B" stroke-width="2"/>
<path d="M259.58 218.942C261.427 218.862 265.939 219.52 269.215 222.796" stroke="#402B2B" stroke-width="2"/>
<path d="M309.065 323.547C309.75 305.061 304.096 294.106 295.528 289.484C286.96 284.863 266.741 279.043 266.055 278.872L247.72 293.421L230.242 278.872C229.557 279.043 208.823 284.863 200.427 289.484C191.859 294.106 186.204 305.061 186.89 323.547C187.404 338.439 186.375 361.889 186.547 379.006H309.579C309.579 361.889 308.551 338.439 309.065 323.547Z" fill="url(#paint6_linear)"/>
<path d="M257.83 285.205L253.032 282.98L247.548 293.079L242.065 282.98L237.096 285.205L244.293 296.845V379.006H250.975V296.331L257.83 285.205Z" fill="#EE4D47" fill-opacity="0.29" style="mix-blend-mode:multiply"/>
<path d="M236.239 267.232C236.068 272.196 243.094 285.034 243.094 285.034L230.927 296.844L226.986 279.728C226.986 279.728 230.927 269.286 236.239 267.232Z" fill="white"/>
<path d="M259.543 267.232C259.714 272.196 251.832 285.205 251.832 285.205L264.684 296.844L268.625 279.556C268.625 279.556 264.855 269.286 259.543 267.232Z" fill="white"/>
<path d="M249.607 299.754C249.607 300.781 248.75 301.637 247.722 301.637C246.694 301.637 245.837 300.781 245.837 299.754C245.837 298.727 246.694 297.872 247.722 297.872C248.75 297.872 249.607 298.727 249.607 299.754Z" fill="white"/>
<path d="M249.606 317.214C249.606 318.241 248.749 319.097 247.721 319.097C246.693 319.097 245.836 318.241 245.836 317.214C245.836 316.187 246.693 315.331 247.721 315.331C248.749 315.331 249.606 316.015 249.606 317.214Z" fill="white"/>
<path d="M249.606 334.331C249.606 335.358 248.749 336.213 247.721 336.213C246.693 336.213 245.836 335.358 245.836 334.331C245.836 333.304 246.693 332.448 247.721 332.448C248.749 332.448 249.606 333.304 249.606 334.331Z" fill="white"/>
<path d="M249.606 353.33C249.606 354.358 248.749 355.213 247.721 355.213C246.693 355.213 245.836 354.358 245.836 353.33C245.836 352.303 246.693 351.448 247.721 351.448C248.749 351.448 249.606 352.303 249.606 353.33Z" fill="white"/>
<path d="M189.631 294.619C189.631 294.619 171.467 343.403 170.097 351.448C168.897 359.493 179.178 378.15 183.976 378.835C191.002 379.862 196.656 377.808 203.682 365.826C210.536 353.844 209.337 302.664 209.337 302.664L189.631 294.619Z" fill="url(#paint7_linear)"/>
<path d="M209.508 297.872C209.508 297.872 208.308 356.754 205.738 364.114C201.625 375.925 191.173 379.177 191.173 379.177H202.825C202.825 379.177 211.907 373.186 212.763 355.213C213.278 344.43 211.393 310.025 210.365 298.556C210.022 295.475 209.508 297.872 209.508 297.872Z" fill="#EE4D47" fill-opacity="0.29" style="mix-blend-mode:multiply"/>
<path d="M213.535 292.315L193.834 284.364L189.726 294.521L209.427 302.472L213.535 292.315Z" fill="white"/>
<path d="M287.989 306.259C287.989 306.259 280.963 339.637 280.449 353.331C279.935 367.024 280.449 378.835 280.449 378.835L285.418 379.177C285.418 379.177 286.618 319.268 287.989 306.259Z" fill="#EE4D47" fill-opacity="0.29" style="mix-blend-mode:multiply"/>
<path d="M228.356 260.043C218.931 260.043 215.847 255.422 213.962 248.404C213.105 244.638 212.763 234.539 212.763 234.197H215.504C215.504 234.368 215.847 244.467 216.704 247.89C218.417 254.566 220.988 257.989 230.241 257.304L230.412 260.043C229.727 260.043 229.041 260.043 228.356 260.043Z" fill="white"/>
<path d="M247.72 166.927C240.18 166.242 222.873 166.756 214.991 181.819C214.991 181.819 217.047 185.413 219.446 183.017C228.014 175.314 240.009 175.143 247.377 175.143C254.917 175.143 267.426 175.143 275.822 183.017C278.392 185.242 280.277 181.819 280.277 181.819C272.566 166.756 255.259 166.242 247.72 166.927Z" fill="white"/>
<path d="M288.33 218.62C288.33 218.62 287.988 208.179 287.816 205.269C287.474 199.62 286.617 190.377 284.732 185.413C278.563 168.467 258.515 165.215 248.062 165.215C237.438 165.215 217.047 168.467 210.878 185.242C209.165 190.035 208.308 198.593 207.794 204.413C207.623 207.836 207.451 218.449 207.451 218.449H210.364C210.364 218.449 210.364 207.836 210.707 204.413C211.05 199.962 211.906 193.458 214.134 187.296C219.275 172.747 238.295 171.206 247.548 171.206C256.973 171.206 276.336 172.747 281.476 187.296C283.875 194.143 284.732 201.161 285.075 205.611C285.246 208.521 285.417 218.62 285.417 218.62H288.33V218.62Z" fill="url(#paint8_linear)"/>
<path d="M211.05 216.566H207.28V232.656H211.05V216.566Z" fill="white"/>
<path d="M217.733 235.737H213.449C211.393 235.737 209.68 234.025 209.68 231.971V217.251C209.68 215.197 211.393 213.485 213.449 213.485H217.733C218.247 213.485 218.59 213.827 218.59 214.341V234.71C218.59 235.223 218.247 235.737 217.733 235.737Z" fill="url(#paint9_linear)"/>
<path d="M205.738 234.025H205.567C204.71 234.025 204.024 233.341 204.024 232.485V216.395C204.024 215.539 204.71 214.854 205.567 214.854H205.738C206.595 214.854 207.28 215.539 207.28 216.395V232.485C207.28 233.341 206.595 234.025 205.738 234.025Z" fill="url(#paint10_linear)"/>
<path d="M284.177 232.934H287.947V216.844H284.177V232.934Z" fill="white"/>
<path d="M277.707 236.079H281.991C284.047 236.079 285.76 234.367 285.76 232.313V217.593C285.76 215.539 284.047 213.827 281.991 213.827H277.707C277.193 213.827 276.85 214.169 276.85 214.683V235.052C276.679 235.566 277.193 236.079 277.707 236.079Z" fill="url(#paint11_linear)"/>
<path d="M289.53 234.368H289.702C290.559 234.368 291.244 233.683 291.244 232.827V216.737C291.244 215.881 290.559 215.197 289.702 215.197H289.53C288.674 215.197 287.988 215.881 287.988 216.737V232.827C287.988 233.683 288.674 234.368 289.53 234.368Z" fill="url(#paint12_linear)"/>
<path d="M238.467 258.331C238.467 260.043 236.411 261.584 233.669 261.584C231.099 261.584 228.871 260.214 228.871 258.331C228.871 256.448 230.927 255.079 233.669 255.079C236.239 255.079 238.467 256.448 238.467 258.331Z" fill="url(#paint13_linear)"/>
<path fill-rule="evenodd" clip-rule="evenodd" d="M202.654 247.377L202.655 247.376C204.249 245.884 206.074 244.854 207.828 243.985C210.981 241.945 214.657 239.625 216.02 238.989C218.762 237.62 220.475 240.016 216.534 243.44C215.679 244.183 214.686 244.974 213.657 245.758C215.797 244.938 217.691 244.234 218.59 243.953C221.503 243.098 222.874 245.836 218.247 248.404C216.365 249.448 214.002 250.577 211.86 251.55L212.593 253.881C212.593 253.881 214.65 251.998 215.335 251.485C219.619 248.575 221.846 250.971 219.962 253.539C217.905 256.106 214.821 263.467 215.849 268.602C216.534 272.025 216.02 276.818 215.164 280.584C214.307 284.178 208.995 294.791 208.995 294.791L195.287 289.998C195.287 289.998 198.371 286.746 197.857 278.872C197.705 276.291 196.677 273.576 195.654 270.875C194.371 267.485 193.096 264.119 193.573 261.07C194.43 256.278 201.455 248.576 202.655 247.377L202.654 247.377Z" fill="url(#paint14_linear)"/>
<path opacity="0.3" d="M214.992 267.917C215.335 263.638 214.992 262.782 214.649 260.728C214.306 258.331 214.821 255.25 213.792 253.025C212.593 250.629 210.708 249.26 207.452 249.944C203.168 250.971 201.455 253.196 201.455 253.196C201.455 253.196 204.882 251.827 206.596 251.314C209.166 250.629 211.736 250.8 212.764 253.881C213.278 255.764 213.621 258.331 213.964 260.214C214.135 261.584 215.163 267.575 214.306 267.746C213.45 267.746 211.565 267.232 210.708 264.151C210.537 264.836 210.365 269.458 209.851 269.458C206.767 269.115 206.424 266.719 206.253 264.151C206.253 262.953 206.081 261.241 205.739 259.016C204.539 260.899 201.626 262.611 200.427 263.467C201.798 264.665 204.368 267.575 205.396 268.773C207.281 270.998 208.994 274.421 209.337 278.016C213.964 273.566 211.393 268.944 211.222 267.403C212.422 268.773 214.821 269.8 214.992 267.917Z" fill="#EB5046"/>
<path d="M409.309 267.917C409.309 265.349 407.252 263.467 404.511 263.467H277.88C275.31 263.467 273.082 265.521 273.082 267.917V346.655H409.137V267.917H409.309Z" fill="url(#paint15_linear)"/>
<path d="M278.051 361.547H404.682C407.252 361.547 409.48 359.493 409.48 357.096V346.826H273.424V357.096C273.253 359.493 275.481 361.547 278.051 361.547Z" fill="#CA3F3A"/>
<path d="M361.159 359.664H327.23V375.754H361.159V359.664Z" fill="#CA3F3A"/>
<path d="M365.27 359.664H331.342V375.754H365.27V359.664Z" fill="url(#paint16_linear)"/>
<path d="M359.616 374.213H317.634V378.835H359.616V374.213Z" fill="url(#paint17_linear)"/>
<path d="M373.324 374.213H331.342V378.835H373.324V374.213Z" fill="url(#paint18_linear)"/>
<path d="M416.334 267.917C416.334 265.349 414.278 263.467 411.537 263.467H285.077C282.507 263.467 280.279 265.521 280.279 267.917V346.655H416.334V267.917Z" fill="url(#paint19_linear)"/>
<path d="M285.077 361.547H411.708C414.278 361.547 416.506 359.493 416.506 357.096V346.826H280.45V357.096C280.279 359.493 282.335 361.547 285.077 361.547Z" fill="url(#paint20_linear)"/>
<path opacity="0.2" d="M360.644 297.872C360.644 304.718 355.16 310.196 348.306 310.196C341.452 310.196 335.969 304.718 335.969 297.872C335.969 291.025 341.452 285.547 348.306 285.547C355.16 285.547 360.644 291.025 360.644 297.872Z" fill="white"/>
<path d="M245.664 374.213H216.362V378.664H245.664V374.213Z" fill="url(#paint21_linear)"/>
<path d="M294.329 374.213H232.812V378.664H294.329V374.213Z" fill="url(#paint22_linear)"/>
<g clip-path="url(#clip0)">
<path d="M485 345.022H405V378.953H485V345.022Z" fill="#FCDDD4"/>
<path fill-rule="evenodd" clip-rule="evenodd" d="M445.445 336.177V336.254C446.079 334.485 447.35 331.669 449.488 327.469C453.73 319.427 458.465 313.249 458.465 313.249C458.465 313.249 456.393 320.114 452.152 328.155C448.401 335.352 446.347 338.256 445.445 338.696V339.106C446.532 337.677 448.924 335.226 453.138 331.391C460.142 325.115 467.047 320.604 467.047 320.604C467.047 320.604 462.608 326.39 455.604 332.764C451.497 336.451 448.775 338.661 447.076 339.794C448.806 338.725 451.496 337.258 455.407 335.314C464.088 330.999 471.979 328.351 471.979 328.351C471.979 328.351 465.864 332.764 457.183 337.079C450.572 340.44 446.993 341.867 445.445 342.14V342.435C446.837 341.664 450.398 340.428 457.183 338.55C466.751 335.902 475.136 334.726 475.136 334.726C475.136 334.726 467.836 337.962 458.268 340.61C455.148 341.473 452.658 342.107 450.708 342.549C452.683 342.22 455.235 341.866 458.465 341.492C468.625 340.217 477.108 340.315 477.108 340.315C477.108 340.315 469.118 342.473 458.958 343.65C450.778 344.676 446.754 344.812 445.445 344.52V344.728H444.458V344.588C444.276 344.641 444.022 344.684 443.668 344.728H440.808C438.638 344.63 435.382 344.434 430.845 343.846C420.684 342.571 412.694 340.511 412.694 340.511C412.694 340.511 421.178 340.413 431.338 341.688C434.391 342.042 436.838 342.369 438.765 342.669C436.867 342.232 434.481 341.621 431.535 340.806C421.868 338.158 414.667 334.922 414.667 334.922C414.667 334.922 423.052 336.098 432.62 338.746C439.574 340.67 443.141 341.921 444.458 342.687V342.341C442.966 342.091 439.377 340.634 432.621 337.275C423.94 332.96 417.824 328.547 417.824 328.547C417.824 328.547 425.716 331.195 434.396 335.51C438.063 337.333 440.656 338.735 442.391 339.785C440.663 338.599 438.017 336.435 434.199 332.96C427.195 326.586 422.756 320.8 422.756 320.8C422.756 320.8 429.661 325.213 436.665 331.587C439.675 334.327 441.756 336.361 443.096 337.82C441.945 336.331 440.158 333.389 437.552 328.449C433.311 320.408 431.239 313.543 431.239 313.543C431.239 313.543 436.073 319.721 440.216 327.763C442.606 332.402 443.913 335.377 444.458 337.101V336.179C443.928 334.962 443.57 331.445 443.57 324.429C443.57 315.406 444.951 308.052 444.951 308.052C444.951 308.052 446.332 315.406 446.332 324.429C446.332 331.441 445.974 334.958 445.445 336.177ZM444.458 339.049C444.312 339.038 444.121 338.928 443.879 338.706C444.106 338.976 444.298 339.218 444.458 339.435V339.049ZM444.458 340.91C444.217 340.847 443.905 340.711 443.515 340.493C443.893 340.744 444.206 340.967 444.458 341.164V340.91ZM445.445 340.892C445.716 340.685 446.049 340.452 446.45 340.191C446.037 340.437 445.704 340.598 445.445 340.683V340.892ZM444.458 343.57C444.14 343.591 443.692 343.569 443.096 343.497C443.727 343.658 444.173 343.808 444.458 343.947V343.57ZM445.445 343.79C445.815 343.62 446.403 343.431 447.246 343.227C446.443 343.347 445.851 343.394 445.445 343.379V343.79Z" fill="#F37753"/>
<path d="M439.624 344.728H421.178C424.039 344.532 427.491 344.434 431.141 344.434C434.692 344.434 437.553 344.532 439.624 344.728Z" fill="#F37753"/>
<path d="M450.179 344.728H468.625C465.765 344.532 462.312 344.336 458.662 344.434C455.012 344.532 452.25 344.63 450.179 344.728Z" fill="#F37753"/>
</g>
<path d="M318 183.052C318 172.006 326.954 163.052 338 163.052H450.619C461.664 163.052 470.619 172.006 470.619 183.052V209.664C470.619 220.71 461.664 229.664 450.619 229.664H318V183.052Z" fill="#F69477"/>
<circle opacity="0.5" cx="352.571" cy="196.78" r="5.05919" fill="white"/>
<circle opacity="0.5" cx="373.651" cy="196.78" r="5.05919" fill="white"/>
<circle opacity="0.5" cx="394.731" cy="196.78" r="5.05919" fill="white"/>
<circle opacity="0.5" cx="415.811" cy="196.78" r="5.05919" fill="white"/>
<circle opacity="0.5" cx="436.891" cy="196.78" r="5.05919" fill="white"/>
</g>
<defs>
<linearGradient id="paint0_linear" x1="201.408" y1="62.1181" x2="118.956" y2="212.965" gradientUnits="userSpaceOnUse">
<stop stop-color="#F37753"/>
<stop offset="1" stop-color="white" stop-opacity="0"/>
</linearGradient>
<linearGradient id="paint1_linear" x1="114.522" y1="28.0345" x2="162.127" y2="354.013" gradientUnits="userSpaceOnUse">
<stop stop-color="#F7A58D"/>
<stop offset="1" stop-color="#F58A6B"/>
</linearGradient>
<linearGradient id="paint2_linear" x1="262.788" y1="266.548" x2="259.733" y2="232.762" gradientUnits="userSpaceOnUse">
<stop stop-color="#FFB3B6"/>
<stop offset="1" stop-color="#FFC8C1"/>
</linearGradient>
<linearGradient id="paint3_linear" x1="235.38" y1="262.589" x2="264.114" y2="272.937" gradientUnits="userSpaceOnUse">
<stop stop-color="#FFB3B6" stop-opacity="0.31"/>
<stop offset="1" stop-color="#FFC8C1"/>
</linearGradient>
<linearGradient id="paint4_linear" x1="288.363" y1="320.46" x2="282.234" y2="257.259" gradientUnits="userSpaceOnUse">
<stop stop-color="#FFB3B6"/>
<stop offset="1" stop-color="white"/>
</linearGradient>
<linearGradient id="paint5_linear" x1="286.873" y1="253.908" x2="280.989" y2="203.279" gradientUnits="userSpaceOnUse">
<stop stop-color="#FFB3B6"/>
<stop offset="1" stop-color="#FFC8C1"/>
</linearGradient>
<linearGradient id="paint6_linear" x1="248.053" y1="255.693" x2="248.053" y2="381.748" gradientUnits="userSpaceOnUse">
<stop stop-color="#F4A984"/>
<stop offset="1" stop-color="#EE4D47"/>
</linearGradient>
<linearGradient id="paint7_linear" x1="189.709" y1="275.072" x2="189.709" y2="381.379" gradientUnits="userSpaceOnUse">
<stop stop-color="#F4A984"/>
<stop offset="1" stop-color="#EE4D47"/>
</linearGradient>
<linearGradient id="paint8_linear" x1="247.891" y1="152.853" x2="247.891" y2="220.082" gradientUnits="userSpaceOnUse">
<stop stop-color="#F4A984"/>
<stop offset="1" stop-color="#EE4D47"/>
</linearGradient>
<linearGradient id="paint9_linear" x1="214.135" y1="208.334" x2="214.135" y2="236.346" gradientUnits="userSpaceOnUse">
<stop stop-color="#F4A984"/>
<stop offset="1" stop-color="#EE4D47"/>
</linearGradient>
<linearGradient id="paint10_linear" x1="205.652" y1="210.417" x2="205.652" y2="234.55" gradientUnits="userSpaceOnUse">
<stop stop-color="#F4A984"/>
<stop offset="1" stop-color="#EE4D47"/>
</linearGradient>
<linearGradient id="paint11_linear" x1="281.288" y1="208.676" x2="281.288" y2="236.688" gradientUnits="userSpaceOnUse">
<stop stop-color="#F4A984"/>
<stop offset="1" stop-color="#EE4D47"/>
</linearGradient>
<linearGradient id="paint12_linear" x1="289.616" y1="210.759" x2="289.616" y2="234.892" gradientUnits="userSpaceOnUse">
<stop stop-color="#F4A984"/>
<stop offset="1" stop-color="#EE4D47"/>
</linearGradient>
<linearGradient id="paint13_linear" x1="233.669" y1="253.573" x2="233.669" y2="261.762" gradientUnits="userSpaceOnUse">
<stop stop-color="#F4A984"/>
<stop offset="1" stop-color="#EE4D47"/>
</linearGradient>
<linearGradient id="paint14_linear" x1="207" y1="292.552" x2="229.5" y2="208.552" gradientUnits="userSpaceOnUse">
<stop stop-color="#FFB3B6"/>
<stop offset="0.239165" stop-color="#FFC5C7"/>
<stop offset="1" stop-color="white"/>
</linearGradient>
<linearGradient id="paint15_linear" x1="322.105" y1="514.315" x2="322.105" y2="29.2427" gradientUnits="userSpaceOnUse">
<stop stop-color="#FFEDBA"/>
<stop offset="0.423008" stop-color="#F16D5E"/>
<stop offset="0.651925" stop-color="#EE4D47"/>
</linearGradient>
<linearGradient id="paint16_linear" x1="343.551" y1="408.182" x2="343.551" y2="314.361" gradientUnits="userSpaceOnUse">
<stop stop-color="#FFEDBA"/>
<stop offset="1" stop-color="#EE4D47"/>
</linearGradient>
<linearGradient id="paint17_linear" x1="332.741" y1="396.324" x2="332.741" y2="369.824" gradientUnits="userSpaceOnUse">
<stop stop-color="#FFEDBA"/>
<stop offset="1" stop-color="#EE4D47"/>
</linearGradient>
<linearGradient id="paint18_linear" x1="346.449" y1="388.149" x2="346.449" y2="361.201" gradientUnits="userSpaceOnUse">
<stop stop-color="#FFEDBA"/>
<stop offset="1" stop-color="#EE4D47"/>
</linearGradient>
<linearGradient id="paint19_linear" x1="329.24" y1="401.093" x2="329.24" y2="184.459" gradientUnits="userSpaceOnUse">
<stop stop-color="#FFEDBA"/>
<stop offset="1" stop-color="#EE4D47"/>
</linearGradient>
<linearGradient id="paint20_linear" x1="329.405" y1="391.215" x2="329.405" y2="305.379" gradientUnits="userSpaceOnUse">
<stop stop-color="#FFEDBA"/>
<stop offset="1" stop-color="#EE4D47"/>
</linearGradient>
<linearGradient id="paint21_linear" x1="226.907" y1="395.505" x2="226.907" y2="369.986" gradientUnits="userSpaceOnUse">
<stop stop-color="#FFEDBA"/>
<stop offset="1" stop-color="#EE4D47"/>
</linearGradient>
<linearGradient id="paint22_linear" x1="254.95" y1="374.184" x2="254.95" y2="354.769" gradientUnits="userSpaceOnUse">
<stop stop-color="#FFEDBA"/>
<stop offset="1" stop-color="#EE4D47"/>
</linearGradient>
<clipPath id="clip0">
<rect width="80" height="71" fill="white" transform="translate(405 308.052)"/>
</clipPath>
</defs>
</svg>
