<svg width="1771" height="973" viewBox="0 0 1771 973" fill="none" xmlns="http://www.w3.org/2000/svg">
<path d="M1671 198H0V973H1771V298C1771 242.772 1726.23 198 1671 198Z" fill="#0F264C"/>
<mask id="mask0" style="mask-type:alpha" maskUnits="userSpaceOnUse" x="0" y="192" width="1771" height="781">
<path d="M1671 192H0V973H1771V292C1771 236.772 1726.23 192 1671 192Z" fill="#0F264C"/>
</mask>
<g mask="url(#mask0)">
<path opacity="0.2" d="M-273.256 569.507C-211.266 494.668 -47.0759 348.732 113.763 363.7C314.812 382.409 -67.1808 733.217 113.763 733.217C294.707 733.217 380.153 302.893 510.835 302.893C641.516 302.893 365.074 620.959 510.835 639.668C656.595 658.378 777.224 190.634 938.063 185.957C1098.9 181.28 772.198 569.507 1033.56 569.507" stroke="url(#paint0_linear)" stroke-width="2"/>
</g>
<path d="M572.05 194.116C569.78 183.723 566.036 173.895 561.042 164.858C560.362 163.615 559.567 162.26 558.773 161.017C552.985 151.415 545.836 142.829 537.552 135.374C536.531 134.357 535.396 133.453 534.261 132.549C525.409 125.207 515.31 119.219 504.415 114.927C503.054 114.362 501.692 113.91 500.33 113.458C489.436 109.617 477.634 107.471 465.492 107.245C464.811 107.245 464.016 107.245 463.335 107.245C462.655 107.245 461.86 107.245 461.179 107.245C448.923 107.471 437.235 109.617 426.341 113.458C424.979 113.91 423.617 114.475 422.255 114.927C411.361 119.219 401.261 125.207 392.41 132.549C391.275 133.453 390.14 134.47 389.119 135.374C380.835 142.829 373.572 151.415 367.898 161.017C367.104 162.26 366.423 163.615 365.628 164.858C360.635 173.895 356.89 183.723 354.621 194.116C354.28 195.584 354.053 197.053 353.713 198.522C352.578 204.848 352.011 211.287 352.011 217.839H574.547C574.547 211.287 573.979 204.735 572.844 198.522C572.617 197.053 572.39 195.584 572.05 194.116Z" fill="#0F264C"/>
<path d="M144.021 203.744C144.021 226.652 157.21 245.16 173.431 245.16H202.842C219.063 245.16 232.101 226.5 232.101 203.744C232.101 180.836 218.912 162.328 202.69 162.328C202.387 162.328 202.235 162.328 201.932 162.328H173.431C157.058 162.328 144.021 180.988 144.021 203.744Z" fill="#402B2B"/>
<path d="M374.453 203.289C374.453 226.197 387.642 244.705 403.864 244.705H433.275C449.496 244.705 462.534 226.045 462.534 203.289C462.534 180.381 449.344 161.873 433.123 161.873C432.82 161.873 432.668 161.873 432.365 161.873H403.864C387.491 161.873 374.453 180.381 374.453 203.289Z" fill="#F48767"/>
<path d="M0 142.151L8.94448 122.125H35.7779L36.0811 197.98L0.151611 198.131L0 142.151Z" fill="black"/>
<path d="M142.051 199.8L260.451 199.497L246.807 191.456L157.211 191.608L142.051 199.8Z" fill="#402B2B"/>
<path d="M30.3203 132.29L30.4719 208.296L126.587 208.144L157.211 191.608L246.807 191.456L274.399 207.841L469.964 207.386C473.148 207.386 475.725 204.807 475.725 201.621L475.574 131.38L30.3203 132.29Z" fill="#F36F49"/>
<path d="M239.835 149.584L393.255 149.281L392.952 10.1645C392.952 4.55127 388.404 0 382.643 0L239.38 0.303435L239.835 149.584Z" fill="#F48767"/>
<path d="M0.606909 150.192L239.682 149.737L239.379 0.455566L10.461 0.910673C4.85175 0.910673 0.303711 5.4619 0.303711 11.2268L0.606909 150.192Z" fill="#F06A5B"/>
<path d="M355.049 203.289C355.049 226.197 342.012 244.705 325.79 244.705H296.531V230.748C285.767 230.748 276.975 218.46 276.975 203.289C276.975 188.118 285.616 175.83 296.38 175.83V161.873H325.639C341.86 162.024 354.898 180.533 355.049 203.289Z" fill="#F48767"/>
<path d="M272.277 203.593C272.277 222.405 283.041 237.576 296.382 237.424C309.723 237.424 320.335 222.253 320.335 203.441C320.335 184.63 309.571 169.459 296.23 169.611C283.041 169.611 272.277 184.781 272.277 203.593Z" fill="#F48767"/>
<path d="M296.38 225.893C305.173 225.893 312.147 215.88 312.147 203.44C312.147 191 305.021 181.139 296.228 181.139C287.436 181.139 280.462 191.152 280.462 203.592C280.462 216.032 287.587 225.893 296.38 225.893ZM296.38 190.242C301.535 190.242 305.779 196.158 305.779 203.44C305.779 210.722 301.535 216.791 296.38 216.791C291.226 216.791 286.981 210.874 286.981 203.592C286.981 196.158 291.074 190.242 296.38 190.242Z" fill="#F7A58D"/>
<path d="M296.38 244.857C312.602 244.857 325.64 226.197 325.64 203.441C325.64 180.685 312.45 162.024 296.229 162.024C280.007 162.024 266.97 180.685 266.97 203.441C266.97 226.197 280.311 245.009 296.38 244.857ZM296.229 169.61C309.57 169.61 320.333 184.781 320.333 203.441C320.333 222.253 309.721 237.423 296.38 237.423C283.04 237.423 272.276 222.253 272.276 203.592C272.276 184.781 283.04 169.61 296.229 169.61Z" fill="#F7A58D"/>
<path d="M292.288 203.441C292.288 200.255 294.107 197.828 296.23 197.828C298.352 197.828 300.171 200.407 300.323 203.441C300.323 206.627 298.504 209.054 296.381 209.054C294.107 209.206 292.288 206.627 292.288 203.441Z" fill="#F48766"/>
<path d="M124.464 203.896C124.464 226.804 111.427 245.312 95.2053 245.312H65.9462V231.355C55.1825 231.355 46.3896 219.067 46.3896 203.896C46.3896 188.725 55.0309 176.437 65.7946 176.437V162.479H95.0537C111.275 162.479 124.464 180.988 124.464 203.896Z" fill="black"/>
<path d="M494.827 89.9636C494.827 90.5704 495.281 91.0255 495.736 91.1772C496.949 91.4806 501.497 91.4806 502.861 91.0255C503.468 90.8738 504.074 90.4187 504.074 89.6601C504.529 77.5235 504.529 65.6902 504.074 54.4638C504.074 53.7053 503.468 53.2502 502.861 53.0985C501.345 52.6433 496.039 52.3399 494.372 52.9468C493.765 53.0985 493.31 53.7053 493.31 54.3122C493.007 65.842 493.462 77.6752 494.827 89.9636Z" fill="#F69276"/>
<path d="M487.399 100.734C487.551 100.734 487.702 100.734 488.006 100.583L498.315 95.4244C500.74 94.2107 502.256 91.7834 502.256 89.0527L502.105 50.9739C502.105 49.4568 500.892 48.2432 499.376 48.2432H471.026C470.268 48.2432 469.813 48.85 469.813 49.4568C469.813 50.2154 470.42 50.6705 471.026 50.6705H499.376C499.527 50.6705 499.527 50.8222 499.527 50.8222L499.679 88.901C499.679 90.7215 498.618 92.2386 497.102 92.9971L486.793 98.1552C486.186 98.4586 485.883 99.2172 486.186 99.824C486.49 100.583 486.944 100.734 487.399 100.734Z" fill="#F69276"/>
<path d="M260.451 149.281C260.451 149.281 264.393 149.281 270.457 149.281H294.562C312.602 149.281 316.847 158.231 327.914 180.229L362.934 180.077C362.934 180.077 362.934 177.498 362.934 173.099L496.646 172.795C497.253 161.721 498.466 139.268 498.466 118.029C498.466 117.27 498.466 116.663 498.466 115.905C498.466 109.836 497.404 103.161 495.585 96.4862C488.46 70.3924 470.419 42.6297 462.991 32.4653C460.565 29.1277 458.443 26.2453 456.624 23.6662C451.469 16.8394 447.982 13.3501 441.463 13.3501L279.402 13.8052C276.066 13.8052 273.034 16.0808 272.125 19.2667C258.177 70.5441 260.3 109.533 260.451 149.281ZM397.044 31.8585C396.893 31.0999 397.499 30.4931 398.257 30.4931L447.528 30.3414C450.408 30.3414 453.288 31.8585 455.108 34.4375C474.361 60.683 482.093 84.6529 484.973 98.4584L488.005 113.022C488.46 115.146 487.096 116.815 484.973 116.815H472.997C471.026 116.815 468.903 115.905 467.387 114.388L442.828 90.8729C440.099 88.2939 436.461 86.7769 432.974 86.7769H403.563L397.044 31.8585Z" fill="#F36F49"/>
<path d="M371.574 96.9421C372.635 101.797 373.848 106.803 374.909 112.113C375.667 115.754 378.851 118.333 382.49 118.485C430.396 120.153 470.115 120.305 498.465 118.181C498.465 117.423 498.465 116.816 498.465 116.057C498.465 109.989 497.403 103.314 495.584 96.6387L371.574 96.9421Z" fill="#F6977C"/>
<path d="M283.039 30.6449L332.309 30.4932C335.19 30.4932 337.767 32.0103 339.131 34.5893C352.927 60.8348 355.808 84.8047 355.808 98.6102V113.174C355.808 115.298 354.14 116.967 352.018 116.967H340.041C338.07 116.967 336.099 116.057 334.887 114.54L315.178 91.0248C312.904 88.4457 309.721 86.777 306.234 86.9287H276.823L281.523 32.0102C281.523 31.2517 282.129 30.6449 283.039 30.6449Z" fill="#F36F49"/>
<path d="M260.451 149.281C260.451 149.281 264.393 149.281 270.457 149.281H294.562C312.602 149.281 316.847 158.231 327.914 180.229L362.934 180.077C362.934 180.077 362.934 177.498 362.934 173.099L496.646 172.795C497.253 161.721 498.466 139.268 498.466 118.029C470.116 120.153 430.245 120.153 382.491 118.332C378.852 118.18 375.668 115.601 374.91 111.96C373.849 106.651 372.636 101.493 371.575 96.7896C365.056 69.027 357.931 49.1532 348.532 27.6107C347.774 25.9419 348.987 23.9697 350.806 23.9697L456.624 23.6662C451.469 16.8394 447.982 13.3501 441.463 13.3501L279.402 13.8052C276.066 13.8052 273.034 16.0808 272.125 19.2667C258.177 70.5441 260.3 109.533 260.451 149.281ZM276.673 86.9286L281.372 32.0102C281.372 31.2516 282.13 30.6448 282.888 30.6448L332.159 30.4931C335.039 30.4931 337.616 32.0102 338.981 34.5892C352.777 60.8348 355.657 84.8046 355.657 98.6101V113.174C355.657 115.298 353.989 116.967 351.867 116.967H339.891C337.92 116.967 335.949 116.057 334.736 114.539L315.028 91.0247C312.754 88.4456 309.57 86.7769 306.083 86.9286H276.673Z" fill="#F7A58D"/>
<path d="M266.363 145.337C266.363 147.612 268.182 149.281 270.456 149.281H294.561C312.602 149.281 316.846 158.232 327.913 180.23L362.933 180.078C362.933 180.078 362.933 177.499 362.933 173.099L362.782 111.658C362.782 81.1642 357.324 61.8973 342.922 31.4039C340.799 26.8527 336.1 23.9702 331.097 23.9702L278.946 24.1219C277.733 24.1219 276.824 24.8804 276.52 25.9424C266.211 65.0831 266.211 128.801 266.363 145.337ZM276.672 86.9291L281.372 32.0107C281.372 31.2522 282.13 30.6454 282.888 30.6454L332.158 30.4936C335.039 30.4936 337.616 32.0107 338.98 34.5898C352.776 60.8353 355.656 84.8052 355.656 98.6106V113.175C355.656 115.299 353.989 116.967 351.866 116.967H339.89C337.919 116.967 335.948 116.057 334.735 114.54L315.027 91.0252C312.753 88.4462 309.569 86.7774 306.083 86.9291H276.672Z" fill="#F58A6B"/>
<path d="M283.342 32.4654L332.309 32.3137C334.432 32.3137 336.403 33.5273 337.464 35.3478C351.714 62.5036 353.988 86.6252 353.988 98.4585V113.022C353.988 114.084 353.079 114.995 352.018 114.995H340.041C338.525 114.995 337.161 114.388 336.251 113.326L316.543 89.8111C313.966 86.777 310.176 84.9564 306.082 84.9564H278.794L283.342 32.4654ZM283.039 30.6449C282.281 30.6449 281.523 31.2517 281.523 32.0102L276.823 86.9287H306.234C309.721 86.9287 312.904 88.4457 315.178 91.0248L334.887 114.54C336.099 116.057 338.07 116.967 340.041 116.967H352.018C354.14 116.967 355.808 115.298 355.808 113.174V98.6102C355.808 84.8047 352.927 60.8348 339.131 34.5893C337.767 32.0103 335.19 30.4932 332.309 30.4932L283.039 30.6449Z" fill="#F7A58D"/>
<path d="M362.783 144.123V173.099L415.692 172.947C415.086 165.362 413.721 158.08 411.447 151.253C410.538 148.522 408.264 146.55 405.383 146.095C393.71 144.729 378.853 144.123 362.783 144.123ZM469.814 172.947H496.041C496.496 166.575 496.95 156.259 497.405 144.578C491.038 144.881 485.126 145.488 479.82 146.246C476.939 146.702 474.665 148.674 473.755 151.405C471.633 158.08 470.42 165.362 469.814 172.947Z" fill="#F6977C"/>
<path d="M362.934 202.227L485.579 201.924C493.917 201.924 500.739 195.097 500.739 186.753V184.174C500.739 181.746 498.768 179.926 496.494 179.926L363.085 180.229L362.934 202.227Z" fill="#F6977C"/>
<path d="M340.346 202.227H362.935V180.229H328.218L332.008 195.552C332.917 199.496 336.404 202.227 340.346 202.227Z" fill="#F7A58D"/>
<path d="M286.375 121.974C291.529 122.125 301.535 123.187 301.535 126.828C301.535 130.469 292.742 131.683 285.616 131.683C278.491 131.683 277.733 127.739 277.127 126.07C276.672 124.401 276.217 121.822 286.375 121.974Z" fill="#F6977C"/>
<path d="M286.83 125.918C284.404 125.918 281.827 125.16 280.614 123.946C281.524 123.491 282.888 123.036 285.011 123.036C288.952 123.036 295.32 123.491 298.655 125.008C298.2 125.311 296.987 125.918 295.016 125.918C292.591 125.918 289.407 125.918 286.83 125.918Z" fill="#F47B58"/>
<path d="M296.988 128.801C297.897 128.801 298.352 128.953 298.504 129.104C295.775 130.318 290.772 130.773 288.346 130.773C284.859 130.773 282.434 130.773 281.676 130.014C282.282 129.559 283.647 128.801 285.011 128.801C286.83 128.952 295.775 128.801 296.988 128.801Z" fill="#F47B58"/>
<path d="M362.934 173.251C362.934 177.65 362.934 180.229 362.934 180.229L496.191 179.926C496.191 179.926 496.343 177.347 496.646 172.947L362.934 173.251Z" fill="#F58A6B"/>
<g opacity="0.2">
<path d="M420.392 142.605V171.581L465.114 171.43V142.453C465.114 138.964 461.93 136.233 457.989 136.233H427.365C423.575 136.385 420.392 139.268 420.392 142.605Z" fill="#F16036"/>
</g>
<path d="M480.122 170.52H489.522C491.947 170.52 494.07 168.548 494.07 165.969V161.266C494.07 158.838 492.099 156.714 489.522 156.714H480.122C477.697 156.714 475.574 158.687 475.574 161.266V165.969C475.574 168.548 477.697 170.52 480.122 170.52Z" fill="white"/>
<path d="M391.13 170.824H400.529C402.955 170.824 405.077 168.851 405.077 166.272V161.569C405.077 159.142 403.107 157.018 400.529 157.018H391.13C388.704 157.018 386.582 158.99 386.582 161.569V166.272C386.582 168.7 388.553 170.824 391.13 170.824Z" fill="white"/>
<path d="M330.491 90.2669C330.491 90.8738 330.945 91.3289 331.4 91.4806C337.313 92.0875 343.528 92.0874 349.896 91.3289C350.654 91.1772 351.108 90.7221 351.108 89.9635C351.563 77.8269 351.563 65.9937 351.108 54.7673C351.108 54.0087 350.502 53.5536 349.896 53.4019C343.377 52.6434 336.858 52.6434 330.036 53.4019C329.429 53.5536 328.975 54.1604 328.975 54.7673C328.52 66.1454 329.126 77.9786 330.491 90.2669Z" fill="#F7A58D"/>
<path d="M353.988 101.038C354.443 101.038 354.898 100.735 355.049 100.28C355.353 99.6729 355.049 98.9144 354.443 98.6109L344.134 93.6046C342.618 92.846 341.557 91.1772 341.557 89.5084L341.405 51.4296C341.405 51.2779 341.557 51.2779 341.557 51.2779H347.924C348.682 51.2779 349.137 50.6711 349.137 50.0642C349.137 49.3057 348.531 48.8506 347.924 48.8506H341.557C340.041 48.8506 338.828 50.0642 338.828 51.5813L338.98 89.6602C338.98 92.3909 340.496 94.8183 342.921 96.0319L353.23 101.038C353.685 101.038 353.837 101.038 353.988 101.038Z" fill="#F69276"/>
<path d="M423.518 204.024L466.421 203.93L466.393 191.035L423.49 191.128L423.518 204.024Z" fill="#F8B4A0"/>
<path opacity="0.6" d="M348.239 28.0694C357.639 49.612 364.612 69.4858 371.283 97.2484L495.293 96.9449C488.167 70.8511 470.127 43.0885 462.698 32.9241C460.273 29.5865 458.15 26.704 456.331 24.125L350.513 24.4284C348.694 24.5801 347.481 26.4006 348.239 28.0694Z" fill="url(#paint1_linear)"/>
<path d="M44.2695 204.048C44.2695 222.86 55.0332 238.03 68.3742 237.879C81.7151 237.879 92.3272 222.708 92.3272 203.896C92.3272 185.084 81.5635 169.913 68.2226 170.065C54.8816 170.065 44.2695 185.236 44.2695 204.048Z" fill="black"/>
<path d="M68.3722 226.349C77.1651 226.349 84.1388 216.336 84.1388 203.896C84.1388 191.607 77.0135 181.595 68.2206 181.595C59.4278 181.595 52.4541 191.608 52.4541 204.048C52.4541 216.488 59.5794 226.349 68.3722 226.349ZM68.2206 190.697C73.3751 190.697 77.6199 196.614 77.6199 203.896C77.6199 211.178 73.3751 217.246 68.2206 217.246C63.0662 217.246 58.8214 211.33 58.8214 204.048C58.8214 196.614 63.0662 190.697 68.2206 190.697Z" fill="#625C5C"/>
<path d="M68.3726 245.464C84.594 245.464 97.6317 226.804 97.6317 204.048C97.6317 181.14 84.4424 162.631 68.221 162.631C51.9996 162.631 38.9619 181.291 38.9619 204.048C38.9619 226.956 52.1513 245.464 68.3726 245.464ZM68.221 170.065C81.5619 170.065 92.3256 185.236 92.3256 203.896C92.3256 222.556 81.7135 237.879 68.3726 237.879C55.0317 237.879 44.268 222.708 44.268 204.048C44.268 185.388 54.8801 170.065 68.221 170.065Z" fill="#424242"/>
<path d="M64.2793 204.048C64.2793 200.862 66.0985 198.435 68.2209 198.435C70.4949 198.435 72.1625 201.014 72.3141 204.048C72.3141 207.234 70.4949 209.661 68.3725 209.661C66.0985 209.661 64.2793 207.082 64.2793 204.048Z" fill="#8B8282"/>
<path d="M274.033 215.984C271.804 205.718 268.128 196.01 263.225 187.083C262.557 185.855 261.777 184.516 260.997 183.289C255.315 173.804 248.295 165.323 240.162 157.958C239.159 156.954 238.045 156.061 236.931 155.169C228.24 147.915 218.324 142.001 207.628 137.761C206.291 137.203 204.954 136.757 203.617 136.31C192.921 132.516 181.333 130.396 169.412 130.173C168.743 130.173 167.963 130.173 167.295 130.173C166.626 130.173 165.846 130.173 165.178 130.173C153.145 130.396 141.669 132.516 130.973 136.31C129.636 136.757 128.299 137.314 126.962 137.761C116.266 142.001 106.349 147.915 97.6588 155.169C96.5446 156.061 95.4304 157.066 94.4277 157.958C86.2942 165.323 79.1635 173.804 73.5926 183.289C72.8127 184.516 72.1442 185.855 71.3642 187.083C66.4619 196.01 62.7851 205.718 60.5568 215.984C60.2225 217.435 59.9997 218.886 59.6654 220.336C58.5512 226.585 57.9941 232.946 57.9941 239.418H276.484C276.484 232.946 275.927 226.474 274.813 220.336C274.59 218.886 274.367 217.435 274.033 215.984Z" fill="#FCDDD4"/>
<defs>
<linearGradient id="paint0_linear" x1="380.153" y1="315.48" x2="380.153" y2="853.847" gradientUnits="userSpaceOnUse">
<stop stop-color="#F37753"/>
<stop offset="1" stop-color="white" stop-opacity="0"/>
</linearGradient>
<linearGradient id="paint1_linear" x1="406.089" y1="0.917177" x2="465.461" y2="143.149" gradientUnits="userSpaceOnUse">
<stop stop-color="#F7A58D"/>
<stop offset="0.926161" stop-color="white"/>
</linearGradient>
</defs>
</svg>
