<svg width="768" height="1080" viewBox="0 0 768 1080" fill="none" xmlns="http://www.w3.org/2000/svg">
<mask id="mask0" style="mask-type:alpha" maskUnits="userSpaceOnUse" x="0" y="0" width="768" height="1080">
<rect width="768" height="1080" fill="#C4C4C4"/>
</mask>
<g mask="url(#mask0)">
<path d="M1099 0H-186V800H999C1054.23 800 1099 755.228 1099 700V0Z" fill="url(#paint0_linear)"/>
<mask id="mask1" style="mask-type:alpha" maskUnits="userSpaceOnUse" x="-186" y="0" width="1285" height="800">
<path d="M1099 0H-186V800H999C1054.23 800 1099 755.228 1099 700V0Z" fill="url(#paint1_linear)"/>
</mask>
<g mask="url(#mask1)">
<path d="M1139.57 344.525H1128.74V344.525C1126.5 344.525 1124.68 346.343 1124.68 348.586V592.864C1124.68 595.948 1122.18 598.448 1119.09 598.448V598.448C1116.01 598.448 1113.51 595.948 1113.51 592.864V436.796C1113.51 431.273 1109.03 426.796 1103.51 426.796H1093.05C1087.53 426.796 1083.05 431.273 1083.05 436.796V446.59C1083.05 452.113 1078.57 456.59 1073.05 456.59H1007.07C1002.86 456.59 999.45 460 999.45 464.207V468.441C999.45 470.31 997.935 471.825 996.066 471.825V471.825C994.197 471.825 992.681 473.34 992.681 475.21V529.553C992.681 534.133 988.969 537.845 984.389 537.845V537.845C979.81 537.845 976.097 541.558 976.097 546.137V582.354C976.097 587.877 971.62 592.354 966.097 592.354H965.113C959.59 592.354 955.113 596.831 955.113 602.354V655.329C955.113 657.385 953.446 659.052 951.39 659.052V659.052C949.334 659.052 947.667 657.385 947.667 655.329V348.248C947.667 346.566 946.303 345.202 944.621 345.202V345.202C942.939 345.202 941.575 343.838 941.575 342.156V315.237C941.575 312.34 939.226 309.991 936.329 309.991V309.991C933.431 309.991 931.083 307.642 931.083 304.745V278.673C931.083 276.71 929.492 275.119 927.529 275.119V275.119C925.566 275.119 923.975 273.528 923.975 271.565V250.247C923.975 244.724 919.498 240.247 913.975 240.247H888.623C883.1 240.247 878.623 244.724 878.623 250.247V271.565C878.623 273.528 877.031 275.119 875.069 275.119V275.119C873.106 275.119 871.515 276.71 871.515 278.673V304.745C871.515 307.642 869.166 309.991 866.269 309.991V309.991C863.372 309.991 861.023 312.34 861.023 315.237V342.325C861.023 343.727 859.887 344.863 858.485 344.863V344.863C857.083 344.863 855.946 346 855.946 347.402V556.638C855.946 559.909 853.294 562.561 850.023 562.561V562.561C846.752 562.561 844.1 565.212 844.1 568.484V651.775C844.1 655.794 840.842 659.052 836.824 659.052H830.224C829.85 659.052 829.547 658.748 829.547 658.374V658.374C829.547 658 829.244 657.697 828.87 657.697H826.67C826.016 657.697 825.485 657.167 825.485 656.512V656.512C825.485 655.858 826.016 655.327 826.67 655.327H827.854C828.789 655.327 829.547 654.569 829.547 653.635V653.635C829.547 652.7 828.789 651.942 827.854 651.942H826.84C826.092 651.942 825.485 651.335 825.485 650.587V650.587C825.485 649.84 826.092 649.233 826.84 649.233H827.854C828.789 649.233 829.547 648.475 829.547 647.54V647.54C829.547 646.605 828.789 645.848 827.854 645.848H826.67C826.016 645.848 825.485 645.317 825.485 644.663V644.663C825.485 644.008 826.016 643.478 826.67 643.478H827.854C828.789 643.478 829.547 642.72 829.547 641.785V641.785C829.547 640.85 828.789 640.092 827.854 640.092H826.67C826.016 640.092 825.485 639.561 825.485 638.907V638.907C825.485 638.253 826.016 637.722 826.67 637.722H827.854C828.789 637.722 829.547 636.964 829.547 636.029V636.029C829.547 635.094 828.789 634.336 827.854 634.336H826.67C826.016 634.336 825.485 633.806 825.485 633.151V633.151C825.485 632.497 826.016 631.966 826.67 631.966H827.854C828.789 631.966 829.547 631.208 829.547 630.274V630.274C829.547 629.339 828.789 628.581 827.854 628.581H826.67C826.016 628.581 825.485 628.05 825.485 627.396V627.396C825.485 626.741 826.016 626.211 826.67 626.211H827.854C828.789 626.211 829.547 625.453 829.547 624.518V624.518C829.547 623.583 828.789 622.825 827.854 622.825H826.67C826.016 622.825 825.485 622.295 825.485 621.64V621.64C825.485 620.986 826.016 620.455 826.67 620.455H827.854C828.789 620.455 829.547 619.697 829.547 618.762V618.762C829.547 617.827 828.789 617.07 827.854 617.07H826.67C826.016 617.07 825.485 616.539 825.485 615.885V615.885C825.485 615.23 826.016 614.7 826.67 614.7H827.854C828.789 614.7 829.547 613.942 829.547 613.007V613.007C829.547 612.072 828.789 611.314 827.854 611.314H826.67C826.016 611.314 825.485 610.783 825.485 610.129V610.129C825.485 609.475 826.016 608.944 826.67 608.944H827.854C828.789 608.944 829.547 608.186 829.547 607.251V607.251C829.547 606.316 828.789 605.558 827.854 605.558H826.67C826.016 605.558 825.485 605.028 825.485 604.373V604.373C825.485 603.719 826.016 603.188 826.67 603.188H827.854C828.789 603.188 829.547 602.43 829.547 601.496V601.496C829.547 600.561 828.789 599.803 827.854 599.803H827.516C826.395 599.803 825.485 598.894 825.485 597.772V597.094C825.485 595.972 826.395 595.063 827.516 595.063H827.854C828.789 595.063 829.547 594.305 829.547 593.37V593.37C829.547 592.435 828.789 591.677 827.854 591.677H826.67C826.016 591.677 825.485 591.147 825.485 590.492V590.492C825.485 589.838 826.016 589.307 826.67 589.307H827.854C828.789 589.307 829.547 588.549 829.547 587.614V587.614C829.547 586.679 828.789 585.922 827.854 585.922H826.67C826.016 585.922 825.485 585.391 825.485 584.737V584.737C825.485 584.082 826.016 583.552 826.67 583.552H827.854C828.789 583.552 829.547 582.794 829.547 581.859V581.859C829.547 580.924 828.789 580.166 827.854 580.166H826.67C826.016 580.166 825.485 579.635 825.485 578.981V578.981C825.485 578.327 826.016 577.796 826.67 577.796H827.854C828.789 577.796 829.547 577.038 829.547 576.103V576.103C829.547 575.168 828.789 574.41 827.854 574.41H826.67C826.016 574.41 825.485 573.88 825.485 573.225V573.225C825.485 572.571 826.016 572.04 826.67 572.04H827.854C828.789 572.04 829.547 571.282 829.547 570.348V570.348C829.547 569.413 828.789 568.655 827.854 568.655H826.67C826.016 568.655 825.485 568.124 825.485 567.47V567.47C825.485 566.815 826.016 566.285 826.67 566.285H827.854C828.789 566.285 829.547 565.527 829.547 564.592V564.592C829.547 563.657 828.789 562.899 827.854 562.899H826.67C826.016 562.899 825.485 562.369 825.485 561.714V561.714C825.485 561.06 826.016 560.529 826.67 560.529H827.854C828.789 560.529 829.547 559.771 829.547 558.836V558.836C829.547 557.901 828.789 557.144 827.854 557.144H826.67C826.016 557.144 825.485 556.613 825.485 555.959V555.959C825.485 555.304 826.016 554.774 826.67 554.774H827.854C828.789 554.774 829.547 554.016 829.547 553.081V553.081C829.547 552.146 828.789 551.388 827.854 551.388H826.67C826.016 551.388 825.485 550.857 825.485 550.203V550.203C825.485 549.549 826.016 549.018 826.67 549.018H827.854C828.789 549.018 829.547 548.26 829.547 547.325V547.325C829.547 546.39 828.789 545.632 827.854 545.632H826.67C826.016 545.632 825.485 545.102 825.485 544.447V544.447C825.485 543.793 826.016 543.262 826.67 543.262H827.854C828.789 543.262 829.547 542.504 829.547 541.57V541.57C829.547 540.635 828.789 539.877 827.854 539.877H826.67C826.016 539.877 825.485 539.346 825.485 538.692V538.692C825.485 538.037 826.016 537.507 826.67 537.507H827.854C828.789 537.507 829.547 536.749 829.547 535.814V535.814C829.547 534.879 828.789 534.121 827.854 534.121H826.67C826.016 534.121 825.485 533.591 825.485 532.936V532.936C825.485 532.282 826.016 531.751 826.67 531.751H827.854C828.789 531.751 829.547 530.993 829.547 530.058V530.058C829.547 529.123 828.789 528.366 827.854 528.366H826.67C826.016 528.366 825.485 527.835 825.485 527.181V527.181C825.485 526.526 826.016 525.996 826.67 525.996H827.854C828.789 525.996 829.547 525.238 829.547 524.303V524.303C829.547 523.368 828.789 522.61 827.854 522.61H827.516C826.395 522.61 825.485 521.701 825.485 520.579V519.224C825.485 518.102 826.395 517.193 827.516 517.193H827.854C828.789 517.193 829.547 516.435 829.547 515.5V515.5C829.547 514.565 828.789 513.807 827.854 513.807H826.67C826.016 513.807 825.485 513.277 825.485 512.622V512.622C825.485 511.968 826.016 511.437 826.67 511.437H827.854C828.789 511.437 829.547 510.679 829.547 509.744V509.744C829.547 508.81 828.789 508.052 827.854 508.052H826.67C826.016 508.052 825.485 507.521 825.485 506.867V506.867C825.485 506.212 826.016 505.682 826.67 505.682H827.854C828.789 505.682 829.547 504.924 829.547 503.989V503.989C829.547 503.054 828.789 502.296 827.854 502.296H826.67C826.016 502.296 825.485 501.765 825.485 501.111V501.111C825.485 500.457 826.016 499.926 826.67 499.926H827.854C828.789 499.926 829.547 499.168 829.547 498.233V498.233C829.547 497.298 828.789 496.54 827.854 496.54H827.516C826.395 496.54 825.485 495.631 825.485 494.51V492.308C825.485 491.467 824.803 490.785 823.962 490.785V490.785C823.121 490.785 822.439 490.103 822.439 489.262V487.061C822.439 485.004 820.772 483.336 818.715 483.336H818.378C816.135 483.336 814.316 481.518 814.316 479.275V468.438C814.316 466.756 812.953 465.392 811.27 465.392V465.392C809.588 465.392 808.224 464.029 808.224 462.346V450.761C808.224 446.06 804.95 441.994 800.357 440.991L789.609 438.646V438.646C787.034 438.051 785.209 435.758 785.209 433.114V401.572C785.209 400.918 784.679 400.388 784.025 400.388V400.388C783.371 400.388 782.84 400.918 782.84 401.572V433.473C782.84 435.429 781.024 436.879 779.117 436.445V436.445C777.21 436.012 775.394 437.461 775.394 439.417V462.854C775.394 464.256 774.258 465.392 772.856 465.392V465.392C771.454 465.392 770.318 466.529 770.318 467.931V479.275C770.318 481.518 768.499 483.336 766.256 483.336H765.411C763.635 483.336 762.195 484.776 762.195 486.553V488.246C762.195 489.087 761.513 489.769 760.672 489.769V489.769C759.831 489.769 759.149 490.451 759.149 491.292V492.647C759.149 494.236 757.86 495.525 756.271 495.525H726.503C720.981 495.525 716.503 500.002 716.503 505.525V523.105C716.503 528.628 712.026 533.105 706.503 533.105H681.83C680.588 533.105 679.357 533.337 678.2 533.788L647.797 545.632V545.632C646.775 546.041 646.105 547.031 646.105 548.132V559.853C646.105 561.348 647.317 562.561 648.813 562.561H649.489C650.611 562.561 651.52 563.47 651.52 564.592V564.592C651.52 565.714 650.611 566.623 649.489 566.623H648.137C647.015 566.623 646.105 567.533 646.105 568.655V568.655C646.105 569.777 647.015 570.686 648.137 570.686H649.489C650.611 570.686 651.52 571.596 651.52 572.718V572.718C651.52 573.839 650.611 574.749 649.489 574.749H648.137C647.015 574.749 646.105 575.658 646.105 576.78V576.78C646.105 577.902 647.015 578.812 648.137 578.812H649.489C650.611 578.812 651.52 579.721 651.52 580.843V580.843C651.52 581.965 650.611 582.874 649.489 582.874H648.137C647.015 582.874 646.105 583.784 646.105 584.906V584.906C646.105 586.028 647.015 586.937 648.137 586.937H649.489C650.611 586.937 651.52 587.847 651.52 588.969V588.969C651.52 590.091 650.611 591 649.489 591H648.137C647.015 591 646.105 591.91 646.105 593.031V593.031C646.105 594.153 647.015 595.063 648.137 595.063H649.997C650.838 595.063 651.52 595.745 651.52 596.586V596.586C651.52 597.428 650.838 598.11 649.997 598.11H619.219C615.036 598.11 611.295 595.507 609.842 591.585L601.79 569.855C600.389 566.076 595.041 566.082 593.65 569.865V569.865C591.954 574.477 584.828 573.154 584.838 568.24C584.845 564.879 584.845 561.519 584.845 558.159C584.845 553.419 584.845 548.679 584.845 543.939C584.845 530.397 584.845 516.854 584.507 503.312C584.507 497.556 584.168 491.462 584.168 485.706C583.83 473.179 583.491 460.652 582.814 447.787C582.476 441.693 582.476 435.599 582.137 429.504C581.461 417.655 581.122 406.144 580.445 394.294C580.445 392.939 580.107 391.585 580.107 390.231C579.43 379.735 578.753 369.578 578.076 359.083C576.722 340.123 575.03 321.164 573.338 302.204C573.214 300.475 573.046 298.701 572.865 296.915C572.337 291.695 567.919 287.646 562.672 287.646H499.252C494.398 287.646 490.078 291.256 490.078 296.11V296.11C489.74 300.173 489.401 304.235 489.063 308.298C488.724 311.684 488.386 315.408 488.047 318.794C487.371 325.226 487.032 331.659 486.355 338.092C486.017 341.139 486.017 343.848 485.678 346.895C485.34 352.312 485.001 357.729 484.325 363.146C483.986 365.516 483.986 367.886 483.986 369.917C483.648 377.027 482.971 384.137 482.632 390.908C482.632 393.278 482.294 395.648 482.294 398.018C481.955 405.466 481.617 412.576 481.278 420.025C481.278 421.718 480.94 423.072 480.94 424.765C480.602 431.536 480.263 438.646 479.925 445.417C479.925 446.771 479.925 448.126 479.925 449.48C479.586 457.267 479.248 465.054 479.248 472.841C479.248 474.534 479.248 475.888 479.248 477.581C478.909 485.706 478.909 493.832 478.571 501.619V502.635C478.571 510.76 478.233 518.886 478.233 526.673C478.233 527.688 478.233 528.704 478.233 529.72C478.233 537.845 478.233 545.971 478.233 554.096C478.233 555.112 478.233 556.466 478.233 557.482C478.233 559.894 478.233 562.307 478.233 564.763C478.233 568.782 474.975 572.04 470.956 572.04V572.04C466.937 572.04 463.679 575.298 463.679 579.317V660.578C463.679 665.345 459.815 669.208 455.048 669.208H447.264C446.797 669.208 446.418 668.83 446.418 668.362V668.362C446.418 667.895 446.797 667.516 447.264 667.516H447.941C448.782 667.516 449.464 666.834 449.464 665.993V665.315C449.464 664.473 448.782 663.792 447.941 663.792V663.792C447.1 663.792 446.418 663.11 446.418 662.268V660.913C446.418 660.072 447.1 659.39 447.941 659.39V659.39C448.782 659.39 449.464 658.708 449.464 657.867V657.189C449.464 656.348 448.782 655.666 447.941 655.666V655.666C447.1 655.666 446.418 654.984 446.418 654.143V652.449C446.418 651.608 447.1 650.926 447.941 650.926V650.926C448.782 650.926 449.464 650.244 449.464 649.403V648.725C449.464 647.884 448.782 647.202 447.941 647.202V647.202C447.1 647.202 446.418 646.52 446.418 645.679V643.985C446.418 643.144 447.1 642.462 447.941 642.462V642.462C448.782 642.462 449.464 641.78 449.464 640.939V640.261C449.464 639.42 448.782 638.738 447.941 638.738V638.738C447.1 638.738 446.418 638.056 446.418 637.215V635.521C446.418 634.68 447.1 633.998 447.941 633.998V633.998C448.782 633.998 449.464 633.316 449.464 632.475V631.797C449.464 630.955 448.782 630.274 447.941 630.274V630.274C447.1 630.274 446.418 629.592 446.418 628.75V627.057C446.418 626.216 447.1 625.534 447.941 625.534V625.534C448.782 625.534 449.464 624.852 449.464 624.011V623.332C449.464 622.491 448.782 621.809 447.941 621.809V621.809C447.1 621.809 446.418 621.128 446.418 620.286V618.593C446.418 617.751 447.1 617.07 447.941 617.07V617.07C448.782 617.07 449.464 616.388 449.464 615.546V614.868C449.464 614.027 448.782 613.345 447.941 613.345V613.345C447.1 613.345 446.418 612.663 446.418 611.822V610.128C446.418 609.287 447.1 608.605 447.941 608.605V608.605C448.782 608.605 449.464 607.924 449.464 607.082V606.404C449.464 605.563 448.782 604.881 447.941 604.881V604.881C447.1 604.881 446.418 604.199 446.418 603.358V601.664C446.418 600.823 447.1 600.141 447.941 600.141V600.141C448.782 600.141 449.464 599.459 449.464 598.618V597.94C449.464 597.099 448.782 596.417 447.941 596.417V596.417C447.1 596.417 446.418 595.735 446.418 594.894V593.2C446.418 592.359 447.1 591.677 447.941 591.677V591.677C448.782 591.677 449.464 590.995 449.464 590.154V589.476C449.464 588.635 448.782 587.953 447.941 587.953V587.953C447.1 587.953 446.418 587.271 446.418 586.43V584.736C446.418 583.895 447.1 583.213 447.941 583.213V583.213C448.782 583.213 449.464 582.531 449.464 581.69V579.658C449.464 578.816 448.782 578.135 447.941 578.135V578.135C447.1 578.135 446.418 577.453 446.418 576.611V574.918C446.418 574.077 447.1 573.395 447.941 573.395V573.395C448.782 573.395 449.464 572.713 449.464 571.872V571.194C449.464 570.352 448.782 569.67 447.941 569.67V569.67C447.1 569.67 446.418 568.989 446.418 568.147V566.115C446.418 565.274 447.1 564.592 447.941 564.592V564.592C448.782 564.592 449.464 563.91 449.464 563.069V562.391C449.464 561.55 448.782 560.868 447.941 560.868V560.868C447.1 560.868 446.418 560.186 446.418 559.345V557.651C446.418 556.81 447.1 556.128 447.941 556.128V556.128C448.782 556.128 449.464 555.446 449.464 554.605V553.927C449.464 553.086 448.782 552.404 447.941 552.404V552.404C447.1 552.404 446.418 551.722 446.418 550.881V549.187C446.418 548.346 447.1 547.664 447.941 547.664V547.664C448.782 547.664 449.464 546.982 449.464 546.141V545.463C449.464 544.621 448.782 543.939 447.941 543.939V543.939C447.1 543.939 446.418 543.258 446.418 542.416V540.723C446.418 539.881 447.1 539.2 447.941 539.2V539.2C448.782 539.2 449.464 538.518 449.464 537.677V536.998C449.464 536.157 448.782 535.475 447.941 535.475V535.475C447.1 535.475 446.418 534.793 446.418 533.952V532.259C446.418 531.417 447.1 530.735 447.941 530.735V530.735C448.782 530.735 449.464 530.054 449.464 529.212V528.534C449.464 527.693 448.782 527.011 447.941 527.011V527.011C447.1 527.011 446.418 526.329 446.418 525.488V523.794C446.418 522.953 447.1 522.271 447.941 522.271V522.271C448.782 522.271 449.464 521.589 449.464 520.748V520.07C449.464 519.229 448.782 518.547 447.941 518.547V518.547C447.1 518.547 446.418 517.865 446.418 517.024V515.33C446.418 514.489 447.1 513.807 447.941 513.807V513.807C448.782 513.807 449.464 513.125 449.464 512.284V511.606C449.464 510.765 448.782 510.083 447.941 510.083V510.083C447.1 510.083 446.418 509.401 446.418 508.56V506.866C446.418 506.025 447.1 505.343 447.941 505.343V505.343C448.782 505.343 449.464 504.661 449.464 503.82V501.788C449.464 500.946 448.782 500.265 447.941 500.265V500.265C447.1 500.265 446.418 499.583 446.418 498.742V497.048C446.418 496.207 447.1 495.525 447.941 495.525V495.525C448.782 495.525 449.464 494.843 449.464 494.002V493.324C449.464 492.482 448.782 491.8 447.941 491.8V491.8C447.1 491.8 446.418 491.119 446.418 490.277V488.584C446.418 487.742 447.1 487.061 447.941 487.061V487.061C448.782 487.061 449.464 486.379 449.464 485.537V484.859C449.464 484.018 448.782 483.336 447.941 483.336V483.336C447.1 483.336 446.418 482.654 446.418 481.813V480.12C446.418 479.278 447.1 478.596 447.941 478.596V478.596C448.782 478.596 449.464 477.915 449.464 477.073V476.395C449.464 475.554 448.782 474.872 447.941 474.872V474.872C447.1 474.872 446.418 474.19 446.418 473.349V467.931C446.418 467.09 447.1 466.408 447.941 466.408V466.408C448.782 466.408 449.464 465.726 449.464 464.885V463.869C449.464 462.466 448.327 461.33 446.925 461.33H442.019C440.71 461.33 439.649 460.269 439.649 458.96V458.402C439.649 457.401 440.46 456.59 441.461 456.59V456.59C442.951 456.59 443.805 454.893 442.917 453.697L430.775 437.337C429.331 435.392 427.051 434.244 424.628 434.244H424.421C420.307 434.244 416.972 430.91 416.972 426.796V426.796V426.796C416.972 426.048 416.295 425.174 416.295 424.426V404.958C416.295 404.304 415.765 403.774 415.111 403.774V403.774C414.457 403.774 413.926 404.304 413.926 404.958V424.479C413.926 425.198 413.25 426.077 413.25 426.796V426.796V426.796C413.25 430.91 409.915 434.244 405.801 434.244H405.594C403.171 434.244 400.89 435.392 399.446 437.338L386.634 454.601C386.024 455.423 386.611 456.59 387.635 456.59V456.59C388.323 456.59 388.881 457.148 388.881 457.836V458.96C388.881 460.269 387.82 461.33 386.511 461.33H381.605C380.203 461.33 379.066 462.466 379.066 463.869V464.547C379.066 465.575 379.899 466.408 380.927 466.408V466.408C381.955 466.408 382.789 467.242 382.789 468.27V473.011C382.789 474.039 381.955 474.872 380.927 474.872V474.872C379.899 474.872 379.066 475.706 379.066 476.734V476.734C379.066 477.762 379.899 478.596 380.927 478.596V478.596C381.955 478.596 382.789 479.43 382.789 480.458V481.475C382.789 482.503 381.955 483.336 380.927 483.336V483.336C379.899 483.336 379.066 484.17 379.066 485.198V485.198C379.066 486.227 379.899 487.061 380.927 487.061V487.061C381.955 487.061 382.789 487.894 382.789 488.922V489.939C382.789 490.967 381.955 491.8 380.927 491.8V491.8C379.899 491.8 379.066 492.634 379.066 493.663V493.663C379.066 494.691 379.899 495.525 380.927 495.525V495.525C381.955 495.525 382.789 496.358 382.789 497.386V498.403C382.789 499.431 381.955 500.265 380.927 500.265V500.265C379.899 500.265 379.066 501.099 379.066 502.127V502.127C379.066 503.155 379.899 503.989 380.927 503.989V503.989C381.955 503.989 382.789 504.822 382.789 505.85V506.867C382.789 507.895 381.955 508.729 380.927 508.729V508.729C379.899 508.729 379.066 509.563 379.066 510.591V510.591C379.066 511.619 379.899 512.453 380.927 512.453V512.453C381.955 512.453 382.789 513.286 382.789 514.314V515.331C382.789 516.359 381.955 517.193 380.927 517.193V517.193C379.899 517.193 379.066 518.027 379.066 519.055V519.055C379.066 520.083 379.899 520.917 380.927 520.917V520.917C381.955 520.917 382.789 521.75 382.789 522.779V523.795C382.789 524.824 381.955 525.657 380.927 525.657V525.657C379.899 525.657 379.066 526.491 379.066 527.519V527.519C379.066 528.547 379.899 529.381 380.927 529.381V529.381C381.955 529.381 382.789 530.215 382.789 531.243V532.26C382.789 533.288 381.955 534.121 380.927 534.121V534.121C379.899 534.121 379.066 534.955 379.066 535.983V535.983C379.066 537.011 379.899 537.845 380.927 537.845V537.845C381.955 537.845 382.789 538.679 382.789 539.707V540.724C382.789 541.752 381.955 542.585 380.927 542.585V542.585C379.899 542.585 379.066 543.419 379.066 544.447V544.447C379.066 545.475 379.899 546.309 380.927 546.309V546.309C381.955 546.309 382.789 547.143 382.789 548.171V549.188C382.789 550.216 381.955 551.049 380.927 551.049V551.049C379.899 551.049 379.066 551.883 379.066 552.911V552.911C379.066 553.94 379.899 554.774 380.927 554.774V554.774C381.955 554.774 382.789 555.607 382.789 556.635V557.652C382.789 558.68 381.955 559.513 380.927 559.513V559.513C379.899 559.513 379.066 560.347 379.066 561.376V561.376C379.066 562.404 379.899 563.238 380.927 563.238V563.238C381.955 563.238 382.789 564.071 382.789 565.099V566.116C382.789 567.144 381.955 567.978 380.927 567.978V567.978C379.899 567.978 379.066 568.812 379.066 569.84V569.84C379.066 570.868 379.899 571.702 380.927 571.702V571.702C381.955 571.702 382.789 572.535 382.789 573.563V574.58C382.789 575.608 381.955 576.442 380.927 576.442V576.442C379.899 576.442 379.066 577.276 379.066 578.304V578.304C379.066 579.332 379.899 580.166 380.927 580.166V580.166C381.955 580.166 382.789 580.999 382.789 582.027V583.044C382.789 584.072 381.955 584.906 380.927 584.906V584.906C379.899 584.906 379.066 585.74 379.066 586.768V586.768C379.066 587.796 379.899 588.63 380.927 588.63H382.281C382.561 588.63 382.789 588.857 382.789 589.138V589.138C382.789 589.418 382.561 589.646 382.281 589.646H364.514C362.083 589.646 360.112 587.675 360.112 585.244V585.244V581.52V576.78V573.056V568.316V564.592V559.852V556.128V551.388V547.664V542.924V539.2V534.46V530.735V525.996V522.271V517.531V513.807V509.067V505.343V500.603V496.879V492.139V488.415V484.013V480.289V475.549V471.825V467.085V463.361V458.621V454.897V450.496V446.771V442.031V438.307V433.567V429.843V425.103V421.379V416.639V412.915V408.175V404.451V399.711V395.987V391.247V387.522V382.783V379.058V374.318V370.594V365.854V362.13V357.39V353.666V348.926L359.939 341.635C359.84 337.468 357.165 333.799 353.228 332.429L343.149 328.922C339.858 327.777 336.421 330.22 336.421 333.705V335.251C336.421 337.194 334.846 338.769 332.903 338.769V338.769C330.932 338.769 329.346 337.15 329.385 335.18L329.829 313.22C329.923 308.558 326.782 304.449 322.257 303.317L300.87 297.969C294.861 296.466 288.945 300.732 288.473 306.908L285.314 348.249L284.976 352.989L284.637 356.713L284.299 361.453L283.96 365.177L283.622 369.917L283.283 373.641L282.945 378.381L282.607 382.105L282.268 386.845L281.93 390.57L281.591 395.309L281.253 399.034L280.914 403.774L280.576 407.498L280.237 412.238L279.899 415.962L279.56 420.702L279.222 424.426L278.884 429.166L278.545 432.89L278.207 437.63L277.868 441.354L277.849 441.618C277.646 444.465 276.235 447.09 273.973 448.831L272.228 450.173C270.002 451.887 268.607 454.465 268.391 457.267V457.267L268.053 460.991L267.715 465.731L267.376 469.455L267.038 474.195L266.699 477.919L266.361 482.659L266.022 486.383L265.684 490.785V490.785C265.684 491.72 264.926 492.478 263.991 492.478H236.085C230.562 492.478 226.085 496.955 226.085 502.478V541.063C226.085 543.961 223.736 546.309 220.839 546.309V546.309C217.942 546.309 215.593 548.658 215.593 551.555V655.668C215.593 659.594 212.411 662.776 208.485 662.776V662.776C204.56 662.776 201.378 659.594 201.378 655.668V239.569C201.378 238.073 200.166 236.861 198.67 236.861V236.861C197.175 236.861 195.963 235.649 195.963 234.153V197.092C195.963 191.569 191.485 187.092 185.963 187.092H128.457C122.934 187.092 118.457 191.569 118.457 197.092V234.492C118.457 235.987 117.245 237.2 115.749 237.2V237.2C114.254 237.2 113.042 238.412 113.042 239.907V420.196C113.042 422.906 110.844 425.103 108.134 425.103H104.242C103.681 425.103 103.226 425.558 103.226 426.119V426.458C103.226 426.832 102.923 427.135 102.549 427.135V427.135C102.176 427.135 101.873 427.438 101.873 427.811V431.536C101.873 431.91 102.176 432.213 102.549 432.213V432.213C102.923 432.213 103.226 432.516 103.226 432.89V433.229C103.226 433.603 102.923 433.906 102.549 433.906V433.906C102.176 433.906 101.873 434.209 101.873 434.583V438.307C101.873 438.681 102.176 438.984 102.549 438.984V438.984C102.923 438.984 103.226 439.287 103.226 439.661V440C103.226 440.374 102.923 440.677 102.549 440.677V440.677C102.176 440.677 101.873 440.98 101.873 441.354V445.079C101.873 445.453 102.176 445.756 102.549 445.756V445.756C102.923 445.756 103.226 446.059 103.226 446.432V446.772C103.226 447.145 102.923 447.448 102.549 447.448V447.448C102.176 447.448 101.873 447.752 101.873 448.125V451.85C101.873 452.224 102.176 452.527 102.549 452.527V452.527C102.923 452.527 103.226 452.83 103.226 453.204V453.543C103.226 453.917 102.923 454.22 102.549 454.22V454.22C102.176 454.22 101.873 454.523 101.873 454.897V458.621C101.873 458.995 102.176 459.298 102.549 459.298V459.298C102.923 459.298 103.226 459.601 103.226 459.975V460.314C103.226 460.688 102.923 460.991 102.549 460.991V460.991C102.176 460.991 101.873 461.294 101.873 461.668V465.393C101.873 465.766 102.176 466.07 102.549 466.07V466.07C102.923 466.07 103.226 466.373 103.226 466.746V467.085C103.226 467.459 102.923 467.762 102.549 467.762V467.762C102.176 467.762 101.873 468.065 101.873 468.439V472.164C101.873 472.538 102.176 472.841 102.549 472.841V472.841C102.923 472.841 103.226 473.144 103.226 473.518V473.857C103.226 474.231 102.923 474.534 102.549 474.534V474.534C102.176 474.534 101.873 474.837 101.873 475.211V478.935C101.873 479.309 102.176 479.612 102.549 479.612V479.612C102.923 479.612 103.226 479.915 103.226 480.289V480.628C103.226 481.002 102.923 481.305 102.549 481.305V481.305C102.176 481.305 101.873 481.608 101.873 481.982V485.707C101.873 486.08 102.176 486.383 102.549 486.383V486.383C102.923 486.383 103.226 486.686 103.226 487.06V487.399C103.226 487.773 102.923 488.076 102.549 488.076V488.076C102.176 488.076 101.873 488.379 101.873 488.753V492.478C101.873 492.852 102.176 493.155 102.549 493.155V493.155C102.923 493.155 103.226 493.458 103.226 493.832V494.171C103.226 494.545 102.923 494.848 102.549 494.848V494.848C102.176 494.848 101.873 495.151 101.873 495.524V499.249C101.873 499.623 102.176 499.926 102.549 499.926V499.926C102.923 499.926 103.226 500.229 103.226 500.603V500.942C103.226 501.316 102.923 501.619 102.549 501.619V501.619C102.176 501.619 101.873 501.922 101.873 502.296V506.02C101.873 506.394 102.176 506.697 102.549 506.697V506.697C102.923 506.697 103.226 507 103.226 507.374V507.713C103.226 508.087 102.923 508.39 102.549 508.39V508.39C102.176 508.39 101.873 508.693 101.873 509.067V512.792C101.873 513.166 102.176 513.469 102.549 513.469V513.469C102.923 513.469 103.226 513.772 103.226 514.146V514.485C103.226 514.858 102.923 515.161 102.549 515.161V515.161C102.176 515.161 101.873 515.465 101.873 515.838V519.563C101.873 519.937 102.176 520.24 102.549 520.24V520.24C102.923 520.24 103.226 520.543 103.226 520.917V521.256C103.226 521.63 102.923 521.933 102.549 521.933V521.933C102.176 521.933 101.873 522.236 101.873 522.61V526.334C101.873 526.708 102.176 527.011 102.549 527.011V527.011C102.923 527.011 103.226 527.314 103.226 527.688V534.798C103.226 535.172 102.923 535.475 102.549 535.475V535.475C102.176 535.475 101.873 535.778 101.873 536.152V539.877C101.873 540.251 102.176 540.554 102.549 540.554V540.554C102.923 540.554 103.226 540.857 103.226 541.231V541.57C103.226 541.944 102.923 542.247 102.549 542.247V542.247C102.176 542.247 101.873 542.55 101.873 542.924V543.77C101.873 544.612 101.19 545.294 100.349 545.294H89.1962C83.6733 545.294 79.1962 540.817 79.1962 535.294V443.906C79.1962 438.383 74.719 433.906 69.1962 433.906H29.6284C24.1056 433.906 19.6284 438.383 19.6284 443.906V497.051C19.6284 501.818 15.7644 505.682 10.9978 505.682H4.39857C3.27667 505.682 2.36719 504.772 2.36719 503.65V503.65C2.36719 502.528 1.4577 501.619 0.3358 501.619H-1.18652C-3.14918 501.619 -4.74023 500.028 -4.74023 498.065V370.933V227.042C-4.74023 225.546 -5.95249 224.334 -7.44788 224.334V224.334C-8.94327 224.334 -10.1555 223.122 -10.1555 221.626V148C-10.1555 142.477 -14.6327 138 -20.1555 138H-93.9071C-99.4299 138 -103.907 142.477 -103.907 148V221.627C-103.907 223.122 -105.119 224.334 -106.615 224.334V224.334C-108.11 224.334 -109.322 225.546 -109.322 227.042V585.247C-109.322 588.798 -112.201 591.677 -115.753 591.677V591.677C-119.304 591.677 -122.183 588.798 -122.183 585.247V456.771C-122.183 451.248 -126.661 446.771 -132.183 446.771H-134.86C-140.383 446.771 -144.86 442.294 -144.86 436.771V386.167C-144.86 384.111 -146.527 382.444 -148.583 382.444V382.444C-150.639 382.444 -152.306 380.777 -152.306 378.721V363.327C-152.306 357.805 -156.783 353.327 -162.306 353.327H-247.903C-253.426 353.327 -257.903 357.805 -257.903 363.327V378.721C-257.903 380.777 -259.57 382.444 -261.626 382.444V382.444C-263.682 382.444 -265.349 384.111 -265.349 386.167V606.392C-265.349 611.915 -269.826 616.392 -275.349 616.392H-279.718C-285.241 616.392 -289.718 611.915 -289.718 606.392V475.054C-289.718 469.531 -294.195 465.054 -299.718 465.054H-369.408C-374.931 465.054 -379.408 469.531 -379.408 475.054V550.714C-379.408 556.135 -383.802 560.529 -389.223 560.529V560.529C-394.644 560.529 -399.038 564.924 -399.038 570.344V647.542C-399.038 650.72 -401.614 653.296 -404.792 653.296V653.296C-407.97 653.296 -410.546 650.72 -410.546 647.542V385.83V381.427C-410.546 380.119 -411.606 379.058 -412.915 379.058H-414.268C-414.829 379.058 -415.284 378.604 -415.284 378.043V378.043C-415.284 377.482 -414.829 377.027 -414.268 377.027H-412.915C-411.606 377.027 -410.546 375.966 -410.546 374.658V372.625C-410.546 371.316 -411.606 370.256 -412.915 370.256H-414.268C-414.829 370.256 -415.284 369.801 -415.284 369.24V369.24C-415.284 368.679 -414.829 368.224 -414.268 368.224H-412.915C-411.606 368.224 -410.546 367.164 -410.546 365.855V363.822C-410.546 362.514 -411.606 361.453 -412.915 361.453H-414.268C-414.829 361.453 -415.284 360.998 -415.284 360.437V360.437C-415.284 359.876 -414.829 359.422 -414.268 359.422H-412.915C-411.606 359.422 -410.546 358.361 -410.546 357.052V355.019C-410.546 353.711 -411.606 352.65 -412.915 352.65H-414.607C-414.981 352.65 -415.284 352.347 -415.284 351.973V351.973C-415.284 351.599 -414.981 351.296 -414.607 351.296H-412.746C-411.344 351.296 -410.207 350.159 -410.207 348.758V347.063C-410.207 345.661 -411.344 344.525 -412.746 344.525H-414.268C-414.829 344.525 -415.284 344.07 -415.284 343.509V343.509C-415.284 342.948 -414.829 342.493 -414.268 342.493H-412.746C-411.344 342.493 -410.207 341.357 -410.207 339.955V338.26C-410.207 336.858 -411.344 335.722 -412.746 335.722H-414.268C-414.829 335.722 -415.284 335.267 -415.284 334.706V334.706C-415.284 334.145 -414.829 333.691 -414.268 333.691H-412.746C-411.344 333.691 -410.207 332.554 -410.207 331.152V329.458C-410.207 328.056 -411.344 326.919 -412.746 326.919H-414.268C-414.829 326.919 -415.284 326.465 -415.284 325.904V325.904C-415.284 325.343 -414.829 324.888 -414.268 324.888H-412.746C-411.344 324.888 -410.207 323.751 -410.207 322.349V304.407C-410.207 301.12 -411.858 298.081 -414.324 295.908C-424.463 286.978 -438.68 267.9 -438.976 241.601V240.924V240.076C-438.976 238.488 -440.264 237.2 -441.853 237.2H-442.867C-443.896 237.2 -444.729 238.033 -444.729 239.062V239.062C-444.729 240.09 -445.563 240.924 -446.591 240.924H-448.791C-451.034 240.924 -452.852 239.105 -452.852 236.862V183.536C-452.852 182.695 -453.534 182.013 -454.375 182.013V182.013C-455.216 182.013 -455.898 182.695 -455.898 183.536V240.416C-455.898 240.884 -456.277 241.262 -456.745 241.262V241.262C-457.212 241.262 -457.591 240.884 -457.591 240.416V239.4C-457.591 238.372 -458.424 237.538 -459.453 237.538H-461.821C-462.849 237.538 -463.683 238.372 -463.683 239.4V239.4C-463.683 240.429 -464.516 241.262 -465.545 241.262H-472.651C-473.68 241.262 -474.513 240.429 -474.513 239.4V239.4C-474.513 238.372 -475.347 237.538 -476.375 237.538H-477.559C-479.242 237.538 -480.605 238.902 -480.605 240.584V241.262C-480.605 267.941 -487.965 287.257 -496.531 296.354C-498.823 298.788 -500.574 301.842 -500.574 305.185V318.624C-500.574 318.718 -500.498 318.794 -500.405 318.794V318.794C-500.311 318.794 -500.236 318.87 -500.236 318.963V322.519C-500.236 324.201 -498.872 325.565 -497.19 325.565H-495.159C-494.598 325.565 -494.143 326.02 -494.143 326.581V326.581C-494.143 327.142 -494.598 327.596 -495.159 327.596H-497.19C-498.872 327.596 -500.236 328.96 -500.236 330.643V331.322C-500.236 333.004 -498.872 334.368 -497.19 334.368H-495.159C-494.598 334.368 -494.143 334.822 -494.143 335.383V335.383C-494.143 335.944 -494.598 336.399 -495.159 336.399H-497.359C-499.135 336.399 -500.574 337.839 -500.574 339.614V339.955C-500.574 341.731 -499.135 343.17 -497.359 343.17H-494.821C-494.447 343.17 -494.143 343.474 -494.143 343.848V343.848C-494.143 344.222 -494.447 344.525 -494.821 344.525H-497.359C-499.135 344.525 -500.574 345.964 -500.574 347.74V348.081C-500.574 349.856 -499.135 351.296 -497.359 351.296H-495.159C-494.598 351.296 -494.143 351.751 -494.143 352.312V352.312C-494.143 352.873 -494.598 353.327 -495.159 353.327H-497.359C-499.135 353.327 -500.574 354.767 -500.574 356.543V356.883C-500.574 358.659 -499.135 360.099 -497.359 360.099H-495.159C-494.598 360.099 -494.143 360.553 -494.143 361.114V361.114C-494.143 361.675 -494.598 362.13 -495.159 362.13H-497.359C-499.135 362.13 -500.574 363.57 -500.574 365.345V365.686C-500.574 367.462 -499.135 368.901 -497.359 368.901H-495.159C-494.598 368.901 -494.143 369.356 -494.143 369.917V369.917C-494.143 370.478 -494.598 370.933 -495.159 370.933H-497.359C-499.135 370.933 -500.574 372.372 -500.574 374.148V374.489C-500.574 376.265 -499.135 377.704 -497.359 377.704H-495.159C-494.598 377.704 -494.143 378.159 -494.143 378.72V378.72C-494.143 379.281 -494.598 379.735 -495.159 379.735H-497.528C-499.397 379.735 -500.913 381.251 -500.913 383.12V516.519C-500.913 521.753 -505.155 525.996 -510.389 525.996V525.996C-515.623 525.996 -519.866 530.238 -519.866 535.472V592.864C-519.866 595.761 -522.215 598.11 -525.112 598.11V598.11C-528.009 598.11 -530.358 600.459 -530.358 603.356V656.193C-530.358 658.345 -532.787 659.474 -534.938 659.393V659.393C-535.069 659.388 -535.161 659.381 -535.291 659.362C-535.413 659.345 -535.536 659.328 -535.66 659.31C-539.607 658.758 -542.542 655.414 -542.542 651.429V529.134C-542.542 525.169 -544.885 521.579 -548.514 519.982L-550.694 519.022C-550.898 518.932 -551.119 518.886 -551.342 518.886V518.886H-551.849C-553.251 518.886 -554.388 517.749 -554.388 516.346V514.992C-554.388 514.338 -554.919 513.807 -555.573 513.807V513.807C-556.227 513.807 -556.757 514.338 -556.757 514.992V514.992C-556.757 515.646 -557.288 516.177 -557.942 516.177H-558.085C-558.66 516.177 -559.127 516.643 -559.127 517.218V517.218C-559.127 517.773 -559.562 518.23 -560.116 518.258L-563.979 518.451C-565.022 518.503 -565.896 517.672 -565.896 516.628V516.628C-565.896 515.937 -566.286 515.305 -566.904 514.995L-567.819 514.538C-568.334 514.281 -568.904 514.155 -569.48 514.172L-589.279 514.763C-590.394 514.796 -591.28 515.709 -591.28 516.824V516.824C-591.28 517.963 -592.203 518.886 -593.341 518.886H-593.649C-594.957 518.886 -596.018 519.946 -596.018 521.255V543.758C-596.018 549.281 -600.495 553.758 -606.018 553.758H-623.586C-629.109 553.758 -633.586 549.281 -633.586 543.758V385.49C-633.586 383.06 -635.556 381.09 -637.986 381.09V381.09C-640.416 381.09 -642.386 379.12 -642.386 376.69V347.415C-642.386 341.892 -646.863 337.415 -652.386 337.415H-667.43C-670.608 337.415 -673.185 334.838 -673.185 331.659V331.659C-673.185 328.48 -675.762 325.904 -678.941 325.904H-682.828C-687.97 325.904 -692.139 321.735 -692.139 316.593V316.593C-692.139 311.451 -696.307 307.283 -701.449 307.283H-758.968C-764.49 307.283 -768.968 311.76 -768.968 317.283V327.415C-768.968 332.938 -773.445 337.415 -778.968 337.415H-797.551C-803.074 337.415 -807.551 341.892 -807.551 347.415V639.233C-807.551 644.756 -812.028 649.233 -817.551 649.233H-818.535C-824.058 649.233 -828.535 653.71 -828.535 659.233V668.873C-828.535 674.294 -832.93 678.688 -838.35 678.688V678.688C-843.771 678.688 -848.166 674.294 -848.166 668.873V594.906C-848.166 589.383 -852.643 584.906 -858.166 584.906H-868.626C-874.149 584.906 -878.626 580.429 -878.626 574.906V554.475C-878.626 554.243 -878.757 554.031 -878.965 553.927V553.927C-879.172 553.823 -879.303 553.611 -879.303 553.379V549.834C-879.303 548.427 -879.77 547.06 -880.632 545.947L-885.334 539.871C-886.69 538.119 -887.426 535.966 -887.426 533.75V527.77C-887.426 526.851 -887.791 525.969 -888.441 525.318V525.318C-889.092 524.668 -889.457 523.786 -889.457 522.867V508.221C-889.457 507.94 -889.684 507.713 -889.965 507.713V507.713C-890.245 507.713 -890.472 507.94 -890.472 508.221V523.106C-890.472 523.872 -890.777 524.607 -891.318 525.149V525.149C-891.86 525.691 -892.164 526.426 -892.164 527.192V534.694C-892.164 536.745 -892.795 538.747 -893.971 540.427L-898.193 546.46C-898.895 547.464 -899.272 548.659 -899.272 549.885V551.86C-899.272 552.623 -899.653 553.335 -900.287 553.758V553.758C-900.922 554.181 -901.303 554.893 -901.303 555.655V556.524C-901.303 557.749 -901.945 558.883 -902.995 559.513L-903.412 559.764C-904.203 560.239 -904.687 561.094 -904.687 562.017V562.017C-904.687 562.978 -905.212 563.863 -906.056 564.323L-906.549 564.592C-907.696 565.218 -908.41 566.421 -908.41 567.728V598.757C-908.41 602.586 -911.706 605.583 -915.518 605.22V605.22V605.22C-918.882 605.22 -921.61 602.492 -921.61 599.128V537.35C-921.61 531.827 -926.087 527.35 -931.61 527.35H-953.24C-958.762 527.35 -963.24 531.827 -963.24 537.35V565.087C-963.24 570.61 -967.717 575.087 -973.24 575.087H-979.639C-985.162 575.087 -989.639 579.565 -989.639 585.087V605.39C-989.639 607.166 -991.079 608.605 -992.854 608.605V608.605C-994.63 608.605 -996.07 610.045 -996.07 611.821V649.742C-996.07 651.144 -997.206 652.28 -998.608 652.28V652.28C-1000.01 652.28 -1001.15 651.144 -1001.15 649.742V633.658C-1001.15 631.789 -1002.66 630.274 -1004.53 630.274V630.274C-1006.4 630.274 -1007.92 628.758 -1007.92 626.889V455.078C-1007.92 449.556 -1012.39 445.078 -1017.92 445.078H-1065.79C-1108.1 445.078 -1142.28 474.872 -1142.28 517.193V541.049C-1142.28 546.572 -1146.76 551.049 -1152.28 551.049H-1156.16C-1168.34 551.049 -1178.16 572.04 -1178.16 583.552V623.321C-1178.16 628.843 -1182.63 633.321 -1188.16 633.321H-1204.03C-1209.56 633.321 -1214.03 628.843 -1214.03 623.321V585.765C-1214.03 580.242 -1218.51 575.765 -1224.03 575.765H-1228.06C-1233.59 575.765 -1238.06 580.242 -1238.06 585.765V672.765C-1238.06 675.663 -1240.41 678.011 -1243.31 678.011V678.011C-1246.21 678.011 -1248.56 675.663 -1248.56 672.765V624.009C-1248.56 622.42 -1249.84 621.132 -1251.43 621.132V621.132C-1253.02 621.132 -1254.31 619.844 -1254.31 618.255V585.765C-1254.31 580.242 -1258.79 575.765 -1264.31 575.765H-1265.63C-1271.15 575.765 -1275.63 571.287 -1275.63 565.765V530.24C-1275.63 524.717 -1280.11 520.24 -1285.63 520.24H-1312C-1317.52 520.24 -1322 524.717 -1322 530.24V732C-1322 737.523 -1317.52 742 -1312 742H1158C1163.52 742 1168 737.523 1168 732V354.525C1168 349.002 1163.52 344.525 1158 344.525H1139.57ZM759.149 536.322C759.149 536.976 758.618 537.507 757.964 537.507H755.764V537.507C755.577 537.507 755.426 537.355 755.426 537.168V536.322C755.426 535.667 755.956 535.137 756.611 535.137H757.964C758.618 535.137 759.149 535.667 759.149 536.322V536.322ZM759.149 530.566C759.149 531.221 758.618 531.751 757.964 531.751H756.611C755.956 531.751 755.426 531.221 755.426 530.566V530.566C755.426 529.912 755.956 529.381 756.611 529.381H757.964C758.618 529.381 759.149 529.912 759.149 530.566V530.566ZM759.149 524.472C759.149 525.126 758.618 525.657 757.964 525.657H756.611C755.956 525.657 755.426 525.126 755.426 524.472V524.472C755.426 523.818 755.956 523.287 756.611 523.287H757.964C758.618 523.287 759.149 523.818 759.149 524.472V524.472ZM759.149 518.378C759.149 519.032 758.618 519.563 757.964 519.563H756.611C755.956 519.563 755.426 519.032 755.426 518.378V518.378C755.426 517.723 755.956 517.193 756.611 517.193H757.964C758.618 517.193 759.149 517.723 759.149 518.378V518.378ZM759.149 512.284C759.149 512.938 758.618 513.469 757.964 513.469H756.611C755.956 513.469 755.426 512.938 755.426 512.284V512.284C755.426 511.629 755.956 511.099 756.611 511.099H757.964C758.618 511.099 759.149 511.629 759.149 512.284V512.284ZM759.149 506.189C759.149 506.844 758.618 507.374 757.964 507.374H756.611C755.956 507.374 755.426 506.844 755.426 506.189V506.189C755.426 505.535 755.956 505.005 756.611 505.005H757.964C758.618 505.005 759.149 505.535 759.149 506.189V506.189ZM759.149 500.434C759.149 501.088 758.618 501.619 757.964 501.619H756.611C755.956 501.619 755.426 501.088 755.426 500.434V500.434C755.426 499.779 755.956 499.249 756.611 499.249H757.964C758.618 499.249 759.149 499.779 759.149 500.434V500.434Z" fill="url(#paint2_linear)"/>
<path d="M724.478 476.457C656.311 476.457 601.02 585.247 601.02 719.433H847.936C847.81 585.247 792.645 476.457 724.478 476.457Z" fill="url(#paint3_linear)"/>
<mask id="mask2" style="mask-type:alpha" maskUnits="userSpaceOnUse" x="601" y="476" width="247" height="244">
<path d="M724.478 476.457C656.311 476.457 601.02 585.247 601.02 719.433H847.936C847.81 585.247 792.645 476.457 724.478 476.457Z" fill="url(#paint4_linear)"/>
</mask>
<g mask="url(#mask2)">
<path opacity="0.2" d="M611.526 525.485C624.538 510.129 653.768 482.768 666.594 496.169C682.627 512.921 648.471 570.853 670.777 577.833C693.083 584.813 724.45 475.23 751.636 485.7C778.821 496.169 634.529 665.779 684.718 672.061C734.906 678.343 757.909 526.881 779.518 537.35C801.127 547.82 730.724 629.484 755.121 653.215C779.518 676.947 792.066 565.27 811.583 577.833C831.101 590.397 817.16 653.215 798.339 695.792" stroke="url(#paint5_linear)" stroke-width="2"/>
</g>
<path opacity="0.2" d="M820.355 719.433H847.936C847.81 585.247 792.645 476.457 724.478 476.457C719.816 476.457 715.214 476.966 710.687 477.957C772.352 491.456 820.237 594.423 820.355 719.433Z" fill="#C9D983"/>
<path d="M836.995 458.951C828.089 458.951 819.693 465.332 813.841 471.203C817.785 465.588 823.255 458.823 827.453 457.419C834.577 455.122 840.557 456.27 840.557 456.27C840.557 456.27 833.814 446.826 823.891 451.293C819.439 453.207 815.749 459.461 813.078 465.46C814.605 459.844 815.622 453.207 814.732 447.081C812.315 431.765 795.14 430.488 795.14 430.488C795.14 430.488 804.682 443.762 806.463 459.461C806.717 461.503 806.844 463.545 806.972 465.46C805.445 456.398 801.883 445.549 793.232 439.806C771.733 425.511 758.248 450.782 758.248 450.782C758.248 450.782 770.588 443.124 786.744 451.293C799.466 457.674 804.936 471.586 806.717 477.074C804.554 472.863 795.776 457.164 781.528 454.739C760.156 451.165 754.686 478.351 754.686 478.351C754.686 478.351 766.898 468.523 782.037 469.161C793.741 469.672 802.265 474.522 806.463 478.351C804.3 477.713 799.339 476.564 793.614 476.564C774.659 476.309 770.715 501.708 770.715 501.708L806.717 479.627C805.19 482.563 802.01 488.689 800.229 493.029C797.812 498.9 799.339 511.918 799.339 511.918C799.339 511.918 805.19 501.963 806.844 495.454C808.498 489.2 808.116 482.69 807.862 479.627L832.288 506.047C832.288 506.047 838.267 489.965 819.948 482.18C817.53 481.159 815.368 480.265 813.714 479.627C818.167 480.265 823.51 482.052 828.98 485.626C839.666 492.518 846.409 501.963 846.409 501.963C846.409 501.963 853.024 482.435 836.74 474.777C831.397 472.224 825.291 472.607 820.075 473.756C824.019 471.459 829.107 469.799 835.341 470.565C850.098 472.352 854.169 482.946 854.169 482.946C854.169 482.946 858.367 458.823 836.995 458.951Z" fill="url(#paint6_linear)"/>
<path d="M735.06 692.595C732.78 682.102 729.018 672.179 724.001 663.054C723.317 661.8 722.519 660.431 721.721 659.176C715.907 649.482 708.724 640.813 700.402 633.285C699.376 632.259 698.236 631.346 697.096 630.434C688.203 623.02 678.056 616.975 667.112 612.641C665.744 612.071 664.376 611.615 663.007 611.158C652.063 607.28 640.206 605.113 628.007 604.885C627.323 604.885 626.525 604.885 625.841 604.885C625.157 604.885 624.359 604.885 623.675 604.885C611.362 605.113 599.619 607.28 588.675 611.158C587.307 611.615 585.939 612.185 584.57 612.641C573.626 616.975 563.479 623.02 554.587 630.434C553.447 631.346 552.306 632.373 551.28 633.285C542.958 640.813 535.661 649.482 529.961 659.176C529.163 660.431 528.479 661.8 527.681 663.054C522.665 672.179 518.902 682.102 516.622 692.595C516.28 694.078 516.052 695.561 515.71 697.043C514.57 703.431 514 709.932 514 716.547H737.568C737.568 709.932 736.998 703.316 735.858 697.043C735.63 695.561 735.402 694.078 735.06 692.595Z" fill="url(#paint7_linear)"/>
<path opacity="0.3" d="M623.676 604.771V716.547H628.008V604.771C627.324 604.771 626.526 604.771 625.842 604.771C625.044 604.771 624.36 604.771 623.676 604.771Z" fill="url(#paint8_linear)"/>
<path opacity="0.3" d="M584.57 612.641L612.388 716.661H616.834L588.561 611.158C587.306 611.615 585.938 612.071 584.57 612.641Z" fill="url(#paint9_linear)"/>
<path opacity="0.3" d="M551.28 633.285L599.391 716.547H604.294L554.586 630.434C553.446 631.346 552.306 632.373 551.28 633.285Z" fill="url(#paint10_linear)"/>
<path opacity="0.3" d="M527.681 663.054L581.264 716.661H587.307L529.847 659.176C529.163 660.431 528.365 661.8 527.681 663.054Z" fill="url(#paint11_linear)"/>
<path opacity="0.3" d="M515.71 697.043L549.57 716.547H558.235L516.622 692.481C516.28 694.078 516.052 695.561 515.71 697.043Z" fill="url(#paint12_linear)"/>
<path opacity="0.3" d="M634.734 716.661H639.181L666.998 612.641C665.63 612.071 664.262 611.615 662.894 611.158L634.734 716.661Z" fill="url(#paint13_linear)"/>
<path opacity="0.3" d="M647.274 716.661H652.291L700.402 633.399C699.376 632.373 698.236 631.461 697.096 630.548L647.274 716.661Z" fill="url(#paint14_linear)"/>
<g opacity="0.3">
<path d="M664.262 716.661H670.304L723.888 663.054C723.204 661.8 722.406 660.431 721.607 659.176L664.262 716.661Z" fill="url(#paint15_linear)"/>
</g>
<path d="M693.447 716.661H702.112L735.972 697.157C735.744 695.675 735.402 694.192 735.06 692.709L693.447 716.661Z" fill="#084F15"/>
<path d="M818.742 701.378C817.26 694.762 814.866 688.375 811.673 682.558C811.217 681.76 810.761 680.961 810.305 680.049C806.657 673.89 802.097 668.415 796.738 663.625C796.054 663.054 795.37 662.37 794.572 661.8C788.872 657.123 782.488 653.245 775.533 650.508C774.735 650.166 773.823 649.824 772.911 649.596C765.956 647.086 758.432 645.718 750.68 645.604C750.223 645.604 749.767 645.604 749.311 645.604C748.855 645.604 748.399 645.604 747.943 645.604C740.191 645.718 732.666 647.2 725.712 649.596C724.8 649.938 724.002 650.166 723.09 650.508C716.135 653.245 709.751 657.123 704.051 661.8C703.367 662.37 702.682 663.054 701.884 663.625C696.526 668.415 691.966 673.89 688.318 680.049C687.862 680.847 687.405 681.646 686.949 682.558C683.757 688.375 681.363 694.648 679.881 701.378C679.653 702.29 679.539 703.316 679.311 704.229C678.627 708.221 678.171 712.441 678.171 716.661H820.224C820.224 712.441 819.882 708.221 819.084 704.229C819.198 703.202 818.97 702.29 818.742 701.378Z" fill="url(#paint16_linear)"/>
<path opacity="0.3" d="M747.942 645.604V716.661H750.679V645.604C750.223 645.604 749.767 645.604 749.31 645.604C748.854 645.604 748.398 645.604 747.942 645.604Z" fill="url(#paint17_linear)"/>
<path opacity="0.3" d="M723.203 650.508L740.874 716.547H743.724L725.825 649.482C724.913 649.938 724.001 650.166 723.203 650.508Z" fill="url(#paint18_linear)"/>
<path opacity="0.3" d="M701.998 663.739L732.552 716.661H735.744L704.164 661.914C703.366 662.484 702.682 663.054 701.998 663.739Z" fill="url(#paint19_linear)"/>
<path opacity="0.3" d="M686.949 682.558L721.037 716.547H724.914L688.431 680.049C687.975 680.961 687.405 681.76 686.949 682.558Z" fill="url(#paint20_linear)"/>
<path opacity="0.3" d="M679.425 704.229L700.972 716.661H706.444L679.995 701.377C679.767 702.29 679.539 703.202 679.425 704.229Z" fill="url(#paint21_linear)"/>
<path opacity="0.3" d="M755.011 716.661H757.861L775.532 650.622C774.734 650.28 773.822 649.938 772.91 649.71L755.011 716.661Z" fill="url(#paint22_linear)"/>
<path opacity="0.3" d="M762.992 716.661H766.184L796.738 663.739C796.054 663.168 795.37 662.484 794.572 661.914L762.992 716.661Z" fill="url(#paint23_linear)"/>
<path d="M1104 709H-192V804.58H1104V709Z" fill="url(#paint24_linear)"/>
<mask id="mask3" style="mask-type:alpha" maskUnits="userSpaceOnUse" x="-192" y="709" width="1296" height="96">
<path d="M1104 709H-192V804.58H1104V709Z" fill="url(#paint25_linear)"/>
</mask>
<g mask="url(#mask3)">
<path opacity="0.7" fill-rule="evenodd" clip-rule="evenodd" d="M358.791 747.025C350.187 756.086 341.408 762.265 332.025 761.839C329.698 761.733 327.829 761.254 326.43 760.366C325.001 759.458 324.13 758.165 323.754 756.599C323.386 755.066 323.501 753.313 323.938 751.437C324.376 749.553 325.154 747.482 326.177 745.282C329.923 737.224 337.178 726.992 344.203 717.085L344.203 717.084L344.204 717.084C344.817 716.218 345.429 715.356 346.036 714.497C349.834 709.13 353.475 703.913 356.39 699.215C359.318 694.496 361.458 690.388 362.315 687.223C362.744 685.64 362.823 684.395 362.6 683.466C362.39 682.592 361.904 681.95 361.02 681.516C360.086 681.057 358.656 680.81 356.564 680.929C354.484 681.048 351.837 681.524 348.533 682.425C342.026 684.199 334.777 688.292 326.941 694.133C319.114 699.967 310.76 707.5 302.043 716.091C289.755 728.201 276.797 742.36 263.618 756.761L263.618 756.761L263.617 756.762L263.615 756.764C258.085 762.807 252.517 768.892 246.942 774.886C228.111 795.134 209.221 814.336 191.669 827.156C174.188 839.925 157.682 846.626 143.784 841.15C136.913 838.444 133.453 834.555 133.041 829.647C132.642 824.885 135.166 819.516 139.295 813.91C147.583 802.654 162.982 789.61 177.933 777.083C178.469 776.634 179.005 776.185 179.541 775.737L179.607 775.681L179.637 775.656C186.548 769.868 193.316 764.2 199.23 758.858C205.638 753.069 210.992 747.708 214.421 743.036C216.136 740.7 217.337 738.58 217.96 736.703C218.581 734.831 218.607 733.273 218.085 731.979C217.564 730.689 216.431 729.497 214.399 728.491C212.359 727.481 209.474 726.691 205.583 726.192C193.21 724.606 177.336 728.338 159.656 735.592C142.006 742.835 122.681 753.534 103.457 765.734C65.0101 790.134 27.0634 820.475 3.87225 840.969L2.54785 839.471C25.7967 818.925 63.828 788.516 102.385 764.046C121.663 751.811 141.097 741.045 158.897 733.742C176.668 726.45 192.938 722.554 205.837 724.208C209.843 724.722 212.971 725.552 215.287 726.699C217.613 727.851 219.182 729.355 219.939 731.229C220.694 733.1 220.575 735.173 219.858 737.333C219.143 739.486 217.812 741.797 216.034 744.219C212.477 749.064 206.997 754.537 200.571 760.342C194.628 765.71 187.833 771.401 180.93 777.182L180.928 777.184L180.928 777.184L180.905 777.203C180.343 777.673 179.78 778.145 179.217 778.617C164.198 791.2 149.019 804.076 140.905 815.095C136.832 820.626 134.699 825.483 135.034 829.48C135.357 833.33 138.022 836.731 144.517 839.29C157.348 844.344 173.04 838.287 190.49 825.541C207.869 812.847 226.644 793.776 245.478 773.524C251.026 767.558 256.58 761.489 262.102 755.455L262.102 755.455C275.297 741.036 288.312 726.815 300.639 714.667C309.387 706.045 317.815 698.441 325.745 692.53C333.666 686.626 341.149 682.366 348.007 680.495C351.386 679.574 354.181 679.062 356.449 678.933C358.705 678.804 360.529 679.047 361.902 679.721C363.325 680.42 364.197 681.552 364.545 682.999C364.88 684.392 364.715 686.012 364.246 687.746C363.306 691.213 361.028 695.533 358.09 700.269C355.139 705.025 351.465 710.288 347.669 715.653C347.113 716.438 346.554 717.226 345.995 718.015L345.891 718.162L345.869 718.194C338.803 728.16 331.655 738.243 327.99 746.125C327.001 748.252 326.282 750.187 325.886 751.89C325.488 753.6 325.43 755.014 325.699 756.133C325.959 757.218 326.532 758.061 327.502 758.677C328.502 759.312 329.987 759.744 332.115 759.841C340.552 760.225 348.783 754.659 357.341 745.647C364.284 738.336 371.277 728.94 378.624 719.067L378.624 719.067L378.625 719.067L378.629 719.06L378.646 719.038C380.317 716.792 382.007 714.522 383.718 712.246C392.932 699.995 402.76 687.613 413.661 678.295C424.567 668.972 436.637 662.64 450.33 662.64V664.64C437.293 664.64 425.67 670.66 414.96 679.815C404.244 688.976 394.53 701.198 385.317 713.449C383.617 715.709 381.933 717.972 380.263 720.216L380.261 720.218L380.261 720.219C372.91 730.097 365.825 739.617 358.791 747.025ZM744.118 693.721C742.124 690.595 738.504 688.744 732.241 688.939C719.784 689.329 707.887 699.391 696.226 714.694C684.611 729.938 673.459 750.067 662.413 770.032L662.26 770.307C651.288 790.138 640.414 809.791 629.346 824.1C623.785 831.29 618.134 837.187 612.348 841.084C606.55 844.989 600.56 846.924 594.373 846.071C588.271 845.229 584.219 842.668 581.888 838.716C579.59 834.818 579.065 829.733 579.618 824.025C580.723 812.619 586.202 798.103 591.757 783.964C592.195 782.848 592.634 781.735 593.072 780.625L593.099 780.557L593.099 780.556C598.229 767.538 603.146 755.064 604.686 745.593C605.525 740.432 605.318 736.391 603.803 733.673C602.35 731.067 599.546 729.44 594.51 729.44C589.557 729.44 584.739 731.628 579.95 735.613C575.156 739.601 570.459 745.335 565.774 752.286C557.922 763.938 550.209 778.846 542.189 794.35C540.632 797.358 539.064 800.389 537.482 803.423C527.765 822.046 517.496 840.763 505.981 854.826C494.48 868.872 481.568 878.48 466.53 878.48C459.101 878.48 454.24 876.546 451.625 872.821C449.041 869.141 448.879 864.019 450.059 858.196C451.246 852.339 453.839 845.537 457.074 838.287C459.814 832.146 463.036 825.636 466.291 819.061L466.292 819.06L466.292 819.06C466.882 817.867 467.474 816.673 468.063 815.477C475.782 799.837 483.18 784.207 484.674 772.108C485.418 766.081 484.671 761.107 481.942 757.459C479.223 753.823 474.374 751.289 466.431 750.495C440.854 747.937 414.905 759.128 392.778 774.301C370.669 789.461 352.518 808.501 342.582 821.39L340.998 820.169C351.042 807.139 369.341 787.947 391.647 772.651C413.935 757.368 440.366 745.879 466.63 748.505C474.886 749.331 480.365 752.011 483.544 756.261C486.712 760.497 487.433 766.079 486.659 772.353C485.115 784.858 477.528 800.818 469.857 816.363C469.265 817.563 468.672 818.76 468.08 819.955L468.08 819.956C464.824 826.533 461.623 833.001 458.9 839.102C455.68 846.319 453.161 852.958 452.019 858.593C450.87 864.262 451.163 868.683 453.262 871.672C455.33 874.618 459.38 876.48 466.53 876.48C480.652 876.48 493.052 867.458 504.434 853.559C515.801 839.677 525.985 821.134 535.708 802.497C537.282 799.482 538.844 796.463 540.396 793.462L540.397 793.46C548.415 777.96 556.193 762.925 564.116 751.169C568.847 744.148 573.668 738.238 578.67 734.075C583.677 729.91 588.933 727.44 594.51 727.44C600.004 727.44 603.63 729.256 605.55 732.699C607.407 736.031 607.517 740.646 606.66 745.914C605.083 755.611 600.085 768.29 594.985 781.224L594.985 781.225C594.529 782.381 594.073 783.538 593.618 784.696C588.035 798.907 582.681 813.146 581.609 824.218C581.073 829.748 581.625 834.332 583.611 837.7C585.564 841.012 589.004 843.311 594.647 844.089C600.206 844.856 605.707 843.146 611.23 839.425C616.765 835.698 622.264 829.988 627.764 822.877C638.738 808.689 649.552 789.143 660.569 769.233L660.663 769.063C671.688 749.136 682.913 728.866 694.636 713.482C706.313 698.157 718.716 687.361 732.179 686.94C738.876 686.731 743.305 688.728 745.804 692.645C748.24 696.463 748.676 701.872 748.038 708.115C747.396 714.392 745.642 721.719 743.482 729.526C742.401 733.435 741.214 737.477 740.008 741.58L739.953 741.765C738.764 745.811 737.558 749.915 736.413 754.021C734.088 762.362 732.026 770.679 730.89 778.466C729.753 786.26 729.553 793.458 730.908 799.58C732.258 805.677 735.141 810.682 740.178 814.184C745.238 817.702 752.581 819.78 762.99 819.78V821.78C752.339 821.78 744.546 819.656 739.037 815.827C733.506 811.982 730.391 806.495 728.956 800.012C727.526 793.553 727.757 786.083 728.911 778.177C730.065 770.264 732.155 761.85 734.487 753.484C735.632 749.375 736.839 745.27 738.024 741.238L738.03 741.216L738.089 741.016C739.296 736.911 740.478 732.884 741.555 728.993C743.71 721.201 745.425 714.011 746.048 707.911C746.676 701.775 746.175 696.946 744.118 693.721ZM1057.17 788.093C1055.3 781.859 1051.38 775.044 1046.16 767.961C1040.94 760.869 1034.39 753.455 1027.21 746.021C1015.25 733.632 1001.48 721.138 989.151 709.942L989.151 709.942C986.688 707.706 984.283 705.522 981.96 703.402C974.973 697.023 968.741 691.219 963.936 686.275C959.094 681.294 955.82 677.301 954.612 674.53C954.001 673.13 954.044 672.328 954.297 671.885C954.547 671.45 955.233 670.963 956.952 670.792C960.363 670.453 966.62 671.483 976.556 674.322L977.105 672.398C967.196 669.567 960.594 668.42 956.754 668.802C954.846 668.992 953.308 669.59 952.562 670.891C951.821 672.184 952.098 673.768 952.778 675.329C954.152 678.481 957.687 682.715 962.502 687.669C967.353 692.66 973.625 698.5 980.611 704.878C982.943 707.007 985.355 709.197 987.822 711.436C1000.15 722.633 1013.86 735.074 1025.77 747.41C1032.92 754.81 1039.41 762.153 1044.55 769.147C1049.71 776.15 1053.48 782.751 1055.25 788.667C1056.15 791.673 1056.68 794.087 1056.88 795.979C1057.07 797.891 1056.92 799.163 1056.57 799.959C1056.26 800.679 1055.77 801.042 1055.05 801.171C1054.25 801.315 1053.11 801.17 1051.57 800.647C1048.52 799.604 1044.38 797.228 1039.34 793.869C1034.31 790.524 1028.46 786.26 1021.97 781.499C1021.17 780.91 1020.36 780.313 1019.54 779.71C1007.11 770.573 992.596 759.907 977.455 750.622C961.322 740.729 944.397 732.355 928.431 729.08C920.527 727.459 914.976 726.776 911.423 726.967C909.663 727.061 908.242 727.376 907.269 728.025C906.763 728.362 906.365 728.798 906.124 729.342C905.883 729.883 905.828 730.463 905.9 731.043C906.038 732.164 906.661 733.382 907.543 734.641C908.442 735.922 909.684 737.349 911.197 738.902C914.224 742.009 918.42 745.706 923.332 749.859C926.242 752.318 929.405 754.94 932.738 757.702L932.743 757.706C940.694 764.296 949.605 771.681 958.315 779.554C970.675 790.726 982.548 802.81 990.578 814.855C992.586 817.866 993.908 820.271 994.637 822.144C995.381 824.057 995.429 825.224 995.184 825.883C994.985 826.42 994.491 826.854 993.287 827.009C992.057 827.168 990.302 826.992 988.016 826.463C983.465 825.409 977.176 823.042 969.563 819.788C961.965 816.539 953.107 812.433 943.435 807.926L941.024 806.802C922.242 798.047 900.631 787.973 879.456 779.878C857.39 771.441 835.689 765.109 818.094 764.7C811.072 764.537 805.819 765.234 802.125 766.702C798.396 768.185 796.177 770.495 795.46 773.53C794.761 776.49 795.549 779.918 797.292 783.559C799.044 787.22 801.824 791.229 805.314 795.419C819.256 812.16 845.028 832.393 864.48 845.901L865.621 844.259C846.193 830.767 820.611 810.662 806.851 794.139C803.415 790.013 800.748 786.148 799.096 782.696C797.434 779.224 796.861 776.3 797.407 773.989C797.935 771.752 799.569 769.871 802.864 768.561C806.195 767.236 811.137 766.539 818.047 766.7C835.282 767.101 856.714 773.324 878.742 781.746C899.848 789.815 921.402 799.862 940.198 808.624L942.591 809.739C952.257 814.243 961.144 818.363 968.777 821.627C976.396 824.884 982.827 827.314 987.565 828.411C989.924 828.958 991.957 829.197 993.542 828.993C995.153 828.785 996.502 828.078 997.059 826.58C997.57 825.205 997.288 823.443 996.5 821.418C995.697 819.352 994.285 816.809 992.243 813.745C984.073 801.49 972.051 789.274 959.656 778.07C950.914 770.168 941.945 762.735 933.983 756.136L933.981 756.134L933.977 756.131C930.654 753.377 927.507 750.768 924.624 748.331C919.715 744.181 915.583 740.538 912.63 737.506C911.153 735.99 909.992 734.649 909.181 733.492C908.354 732.313 907.962 731.424 907.885 730.798C907.848 730.505 907.886 730.302 907.952 730.154C908.016 730.008 908.137 729.849 908.378 729.689C908.897 729.343 909.876 729.053 911.531 728.964C914.806 728.788 920.139 729.421 928.03 731.04C943.654 734.245 960.344 742.476 976.409 752.327C991.476 761.566 1005.92 772.186 1018.37 781.33C1019.18 781.931 1019.99 782.524 1020.79 783.111C1027.27 787.868 1033.16 792.159 1038.23 795.534C1043.28 798.896 1047.6 801.405 1050.93 802.54C1052.58 803.105 1054.11 803.371 1055.4 803.14C1056.78 802.894 1057.82 802.096 1058.41 800.76C1058.96 799.498 1059.08 797.819 1058.86 795.774C1058.65 793.709 1058.09 791.162 1057.17 788.093Z" fill="url(#paint26_linear)"/>
<path opacity="0.1" d="M196.158 742.448C62.9276 742.448 40.5579 786.701 -194.43 786.701V856.42H1104V707.38C818.91 707.38 855.605 769.584 610.032 769.584C364.46 769.584 311.535 742.448 196.158 742.448Z" fill="url(#paint27_linear)"/>
</g>
<path opacity="0.2" d="M283.507 414.869C397.589 300.787 397.629 115.784 283.598 1.65287C169.566 -112.478 -15.3559 -112.519 -129.437 1.56277C-243.519 115.644 -243.559 300.647 -129.528 414.778C-15.4961 528.91 169.426 528.95 283.507 414.869Z" fill="url(#paint28_linear)"/>
<path d="M45.3748 776.59C42.9883 765.607 39.0505 755.221 33.8001 745.671C33.0841 744.358 32.2488 742.925 31.4135 741.612C25.3279 731.465 17.8103 722.392 9.09941 714.513C8.02546 713.439 6.83224 712.483 5.63897 711.528C-3.66852 703.769 -14.2887 697.442 -25.744 692.905C-27.176 692.308 -28.6079 691.831 -30.0398 691.353C-41.4952 687.295 -53.9052 685.026 -66.6731 684.788C-67.3891 684.788 -68.2244 684.788 -68.9403 684.788C-69.6563 684.788 -70.4916 684.788 -71.2076 684.788C-84.0949 685.026 -96.3855 687.295 -107.841 691.353C-109.273 691.831 -110.705 692.428 -112.137 692.905C-123.592 697.442 -134.212 703.769 -143.52 711.528C-144.713 712.483 -145.906 713.558 -146.98 714.513C-155.691 722.392 -163.328 731.465 -169.294 741.612C-170.13 742.925 -170.845 744.358 -171.681 745.671C-176.931 755.221 -180.869 765.607 -183.255 776.59C-183.613 778.142 -183.852 779.694 -184.21 781.246C-185.403 787.931 -186 794.736 -186 801.66H48C48 794.736 47.4034 787.812 46.2101 781.246C45.9714 779.694 45.7328 778.142 45.3748 776.59Z" fill="url(#paint29_linear)"/>
<path fill-rule="evenodd" clip-rule="evenodd" d="M-71.2074 684.668V801.66H-66.673V684.668H-68.9401H-71.2074ZM-112.136 692.905L-83.0207 801.779H-78.367L-107.96 691.353C-108.304 691.479 -108.656 691.604 -109.014 691.731L-109.015 691.731L-109.015 691.731L-109.015 691.731L-109.015 691.731L-109.015 691.731L-109.015 691.731L-109.015 691.731C-110.024 692.09 -111.08 692.465 -112.136 692.905ZM-96.624 801.66L-146.98 714.513L-146.657 714.226L-146.657 714.226C-145.67 713.346 -144.594 712.389 -143.519 711.528L-91.493 801.66H-96.624ZM-171.681 745.671L-115.597 801.779H-109.273L-169.413 741.612C-169.771 742.269 -170.159 742.955 -170.547 743.641C-170.935 744.328 -171.323 745.014 -171.681 745.671ZM-148.77 801.66L-184.21 781.246C-184.012 780.389 -183.851 779.533 -183.686 778.656L-183.686 778.656C-183.552 777.944 -183.416 777.219 -183.255 776.471L-139.701 801.66H-148.77ZM-59.6327 801.779H-54.9789L-25.8631 692.905C-27.295 692.308 -28.7269 691.831 -30.1588 691.353L-59.6327 801.779ZM-41.2564 801.779H-46.5067L5.63914 711.648C6.83241 712.603 8.02565 713.558 9.09958 714.632L-41.2564 801.779ZM-28.7271 801.779H-22.4027L33.681 745.671C32.965 744.358 32.1297 742.925 31.2945 741.612L-28.7271 801.779ZM10.8895 801.779H1.82071L45.375 776.709C45.733 778.261 46.091 779.813 46.3296 781.365L10.8895 801.779Z" fill="url(#paint30_linear)"/>
<path d="M1099 0H-186V800H999C1054.23 800 1099 755.228 1099 700V0Z" fill="url(#paint31_linear)"/>
</g>
<path opacity="0.56" d="M1197.26 559.321C1310.12 446.411 1310.12 263.349 1197.26 150.44C1084.4 37.5309 901.414 37.531 788.554 150.44C675.694 263.349 675.694 446.411 788.554 559.32C901.414 672.23 1084.4 672.23 1197.26 559.321Z" fill="url(#paint32_linear)"/>
<path opacity="0.2" d="M849.357 751.553C931.897 668.977 931.897 535.094 849.357 452.518C766.817 369.941 632.993 369.941 550.452 452.518C467.912 535.094 467.912 668.977 550.452 751.553C632.993 834.129 766.817 834.13 849.357 751.553Z" fill="url(#paint33_linear)"/>
<path d="M439.272 820.483C437.702 813.247 435.11 806.404 431.655 800.112C431.184 799.247 430.634 798.303 430.084 797.438C426.079 790.753 421.132 784.775 415.399 779.584C414.692 778.876 413.907 778.247 413.121 777.618C406.996 772.506 400.007 768.337 392.468 765.348C391.525 764.955 390.583 764.64 389.64 764.326C382.101 761.652 373.934 760.157 365.531 760C365.06 760 364.51 760 364.039 760C363.568 760 363.018 760 362.547 760C354.066 760.157 345.977 761.652 338.438 764.326C337.496 764.64 336.553 765.034 335.611 765.348C328.072 768.337 321.083 772.506 314.957 777.618C314.172 778.247 313.387 778.955 312.68 779.584C306.947 784.775 301.921 790.753 297.994 797.438C297.445 798.303 296.973 799.247 296.424 800.112C292.968 806.404 290.377 813.247 288.806 820.483C288.571 821.506 288.414 822.528 288.178 823.551C287.393 827.955 287 832.438 287 837H441C441 832.438 440.607 827.876 439.822 823.551C439.665 822.528 439.508 821.506 439.272 820.483Z" fill="#F4F6D5"/>
<path d="M593.307 843.259C590.86 831.983 586.821 821.319 581.436 811.513C580.702 810.164 579.845 808.694 578.988 807.345C572.747 796.926 565.036 787.611 556.102 779.521C555 778.418 553.777 777.437 552.553 776.457C543.007 768.489 532.114 761.993 520.365 757.335C518.896 756.722 517.428 756.232 515.959 755.742C504.21 751.574 491.482 749.245 478.387 749C477.652 749 476.796 749 476.061 749C475.327 749 474.47 749 473.736 749C460.518 749.245 447.912 751.574 436.163 755.742C434.695 756.232 433.226 756.845 431.757 757.335C420.008 761.993 409.116 768.489 399.57 776.457C398.346 777.437 397.122 778.54 396.02 779.521C387.086 787.611 379.253 796.926 373.134 807.345C372.277 808.694 371.543 810.164 370.686 811.513C365.301 821.319 361.263 831.983 358.815 843.259C358.448 844.853 358.203 846.446 357.836 848.04C356.612 854.904 356 861.891 356 869H596C596 861.891 595.388 854.781 594.164 848.04C593.919 846.446 593.675 844.853 593.307 843.259Z" fill="white"/>
<path d="M606.318 465.326H624.423L626.875 454.383C626.875 454.383 619.709 458.534 618.011 455.704C616.314 452.874 616.691 454.006 614.994 454.383C613.296 454.76 613.296 452.496 611.222 453.817C608.959 455.326 605.564 462.496 606.318 465.326Z" fill="#6B1912"/>
<path d="M624.988 914.938L602.735 913.051L603.866 885.505L626.309 887.58L624.988 914.938Z" fill="#D88D6C"/>
<path d="M583.498 911.165C583.498 911.165 598.209 904.372 600.66 899.467C600.66 899.467 604.998 883.618 611.599 891.92C611.599 891.92 618.388 897.391 628.006 893.052L629.138 923.051L562.565 922.862C564.262 918.334 565.771 913.24 583.498 911.165Z" fill="url(#paint34_linear)"/>
<path d="M629.137 923.24L629.515 927.957L562.376 927.768C562.376 925.881 561.81 924.938 562.753 923.051L629.137 923.24Z" fill="#C73E39"/>
<path d="M722.491 911.165L700.237 914.938L694.391 888.146L716.456 884.373L722.491 911.165Z" fill="#D88D6C"/>
<path d="M679.681 911.165C679.681 911.165 694.391 904.372 696.843 899.467C696.843 899.467 693.448 887.014 701.369 893.24C701.369 893.24 714.948 898.335 720.606 892.108L725.132 923.24L658.559 923.051C660.633 918.334 662.142 913.24 679.681 911.165Z" fill="url(#paint35_linear)"/>
<path d="M725.32 923.24L725.697 927.957L658.558 927.768C658.558 925.881 657.993 924.938 658.936 923.051L725.32 923.24Z" fill="#C73E39"/>
<path d="M598.963 655.322C598.963 655.322 595.003 768.715 598.586 897.58C598.586 897.58 609.336 907.768 629.704 900.976C629.704 900.976 629.515 757.583 634.984 700.604C634.984 700.604 660.633 808.903 693.071 902.674C693.071 902.674 714.759 906.825 722.491 894.561C722.491 894.561 678.738 742.678 672.326 655.322H598.963Z" fill="url(#paint36_linear)"/>
<path d="M598.964 655.322H672.326C672.892 661.925 673.457 668.906 674.4 676.076C630.647 676.265 607.45 665.133 598.775 660.038C598.775 656.831 598.964 655.322 598.964 655.322Z" fill="#402B2B" fill-opacity="0.45" style="mix-blend-mode:multiply"/>
<path d="M558.981 576.456C579.161 540.796 595.002 528.721 595.002 528.721C603.678 533.626 597.077 567.21 597.077 567.21C591.608 577.965 587.836 587.587 579.726 597.021L558.981 576.456Z" fill="#D1402C"/>
<path d="M595.003 528.721C595.003 528.721 595.946 550.418 598.775 654.756C598.775 654.756 624.423 667.774 675.532 658.718C675.532 658.718 675.72 627.398 682.698 599.663C682.698 599.663 695.711 547.4 689.11 532.117C689.11 532.117 647.432 506.268 595.003 528.721Z" fill="url(#paint37_linear)"/>
<path d="M634.607 508.042L634.23 521.551C634.23 521.551 637.436 526.268 645.168 526.834C652.901 527.211 656.672 522.872 656.672 522.872L657.427 502.759C647.809 506.91 638.379 508.608 634.607 508.042Z" fill="url(#paint38_linear)"/>
<path d="M635.361 502.495L634.607 517.4C638.379 517.966 647.808 516.268 657.238 512.117L657.804 502.495H635.361V502.495Z" fill="url(#paint39_linear)" style="mix-blend-mode:multiply"/>
<path d="M686.47 561.55C686.47 561.55 675.343 586.644 671.382 597.965C667.422 609.096 667.422 653.435 646.677 661.925C646.677 661.925 668.742 660.605 675.72 658.718C675.72 658.718 676.097 625.322 682.887 599.663C682.887 599.663 687.601 572.682 689.487 560.418L686.47 561.55Z" fill="#EE4D47" fill-opacity="0.29" style="mix-blend-mode:multiply"/>
<path d="M671.76 469.666C671.383 469.854 671.005 475.892 671.005 475.892L669.497 488.533L662.519 494.005L658.558 495.703C658.558 495.703 652.712 493.25 653.466 490.986C654.221 488.91 657.992 459.1 658.747 459.1C659.501 459.1 665.536 463.439 665.536 463.439L671.76 469.666Z" fill="#402B2B"/>
<path d="M616.502 458.345C614.805 458.345 617.445 479.099 617.445 479.099L620.463 470.798L622.537 460.798L616.502 458.345Z" fill="#402B2B"/>
<path d="M619.331 462.496L616.125 489.099C616.125 489.099 614.993 511.551 633.475 512.872C651.957 514.004 664.593 495.703 664.593 495.703C664.593 495.703 666.856 498.344 669.308 493.816C671.571 489.288 670.062 483.25 666.856 482.684C663.462 482.307 661.953 484.194 661.576 487.024C661.198 489.854 660.821 491.929 660.821 491.929L657.992 491.552L660.067 469.666C660.067 469.666 655.729 461.175 650.826 459.477C645.922 457.779 641.585 464.571 641.585 464.571C641.585 464.571 637.059 465.515 632.721 464.571C628.383 463.628 625.554 462.496 625.554 462.496C625.554 462.496 622.914 463.251 619.331 462.496Z" fill="url(#paint40_linear)"/>
<path d="M632.721 502.684C638.945 503.061 639.888 495.891 639.888 495.891C639.888 495.891 625.555 494.193 625.178 494.005C625.178 494.005 624.046 502.118 632.721 502.684Z" fill="#893D43"/>
<path d="M639.322 498.156C639.888 496.835 640.076 495.891 640.076 495.891C640.076 495.891 625.743 494.193 625.366 494.005C625.366 494.005 625.177 494.948 625.366 496.457L639.322 498.156Z" fill="#FFFEFF"/>
<path d="M638.755 455.704V436.459C650.259 437.025 662.141 439.289 667.987 446.459C674.965 454.949 671.005 474.571 671.005 474.571C671.005 474.571 662.518 473.628 661.009 470.798C659.5 467.968 645.167 464.005 634.229 464.571C623.291 465.137 618.01 464.005 612.541 459.288C611.409 458.345 610.466 457.024 609.712 455.515H638.755V455.704Z" fill="#402B2B"/>
<path d="M672.326 467.401C672.326 467.401 664.216 464.76 650.638 463.628C627.818 454.006 618.011 455.704 618.011 455.704C618.011 455.704 618.2 448.345 620.274 443.251C622.349 438.157 636.305 430.987 647.997 432.119C659.69 433.251 671.76 441.93 673.646 450.232C675.155 456.647 672.326 467.401 672.326 467.401Z" fill="url(#paint41_linear)"/>
<path d="M658.559 464.571C656.107 452.874 638.568 447.025 626.121 447.213C613.862 447.402 605.187 457.59 603.867 464.571C603.301 467.401 605.564 467.779 606.318 465.326C606.884 463.628 608.016 455.515 619.331 456.458C630.647 457.402 630.081 467.59 635.739 468.534C641.019 469.477 647.054 465.703 658.559 464.571Z" fill="url(#paint42_linear)"/>
<path d="M620.651 467.213V465.892C621.217 465.892 625.554 465.326 630.835 466.458L630.646 468.534C626.309 467.213 620.651 467.213 620.651 467.213Z" fill="#402B2B"/>
<path d="M652.523 471.93C649.128 470.043 642.716 469.1 642.716 468.911L643.471 467.024C643.659 467.024 649.506 468.156 653.277 470.609L652.523 471.93Z" fill="#402B2B"/>
<path d="M633.664 478.345C633.664 478.345 633.098 482.307 631.59 483.439C630.081 484.571 627.44 485.514 627.063 486.458C626.686 487.212 627.44 488.722 629.138 489.288C630.835 489.854 631.024 490.42 631.024 490.42C631.024 490.42 627.629 490.797 625.932 488.722C624.234 486.646 626.12 484.948 627.818 484.005C629.515 483.062 630.269 482.684 631.024 482.118C631.967 481.552 633.664 478.345 633.664 478.345Z" fill="#D87C60"/>
<path d="M641.774 480.42C641.774 482.307 643.094 484.005 644.791 484.005C646.488 484.005 647.809 482.495 647.809 480.42C647.809 478.533 646.488 476.835 644.791 476.835C643.094 476.835 641.774 478.345 641.774 480.42Z" fill="#402B2B"/>
<path d="M621.029 477.967C621.029 479.854 622.349 481.552 624.046 481.552C625.743 481.552 627.063 480.043 627.063 477.967C627.063 476.081 625.743 474.383 624.046 474.383C622.349 474.571 621.029 476.081 621.029 477.967Z" fill="#402B2B"/>
<path d="M528.618 528.532H645.168V618.53H528.618V528.532Z" fill="#8C5E5E"/>
<path d="M528.43 528.532H570.863V618.53H528.43V528.532Z" fill="#694646"/>
<path d="M542.951 528.532H553.89V540.985H542.951V528.532Z" fill="#A3774A"/>
<path d="M605.564 528.532H616.502V540.985H605.564V528.532Z" fill="#A3774A"/>
<path d="M528.429 594.757C528.429 594.757 534.464 598.719 536.162 600.417C537.859 602.115 540.876 618.341 537.859 620.039C534.842 621.737 528.995 620.039 527.109 620.417C525.035 620.794 519 617.021 519 614.002C519 610.983 522.772 590.984 523.715 590.606C524.658 590.229 528.429 587.776 528.429 587.776V594.757Z" fill="#F4A984"/>
<path d="M604.244 593.436H640.643V611.172H604.244V593.436Z" fill="white"/>
<path fill-rule="evenodd" clip-rule="evenodd" d="M676.475 616.455C690.242 596.455 692.128 535.89 692.128 535.89C673.269 538.343 660.633 563.626 660.633 563.814L657.804 600.04L609.673 607.752L607.072 605.323C607.072 605.323 595.945 599.663 586.893 600.606C586.893 600.606 582.744 601.361 583.687 603.814C584.064 605.134 583.31 605.983 582.555 606.832C581.801 607.681 581.047 608.53 581.424 609.851C581.742 610.965 581.456 611.811 581.175 612.643C580.79 613.783 580.413 614.898 581.612 616.643C581.612 616.643 580.104 618.907 581.801 620.983C581.878 621.077 581.959 621.177 582.044 621.281C583.836 623.476 587.33 627.758 588.59 627.398C589.064 627.262 590.169 627.078 591.408 626.872C593.623 626.503 596.269 626.063 596.511 625.7C596.888 625.134 597.265 624.002 595.38 622.87C595.38 622.87 597.454 623.436 600.094 623.058C602.735 622.87 606.506 620.794 606.506 620.794L607.207 620.21C660.106 624.551 676.475 616.455 676.475 616.455Z" fill="url(#paint43_linear)"/>
<path d="M655.352 591.361L660.633 563.626C660.633 563.626 670.251 534.57 689.11 532.117C689.11 532.117 702.689 540.607 685.904 598.342L655.352 591.361Z" fill="url(#paint44_linear)"/>
</g>
<defs>
<linearGradient id="paint0_linear" x1="706.272" y1="1119.08" x2="-279.489" y2="306.262" gradientUnits="userSpaceOnUse">
<stop stop-color="#FFEDBA"/>
<stop offset="1" stop-color="#EE4D47"/>
</linearGradient>
<linearGradient id="paint1_linear" x1="607" y1="990" x2="-249.525" y2="258.836" gradientUnits="userSpaceOnUse">
<stop stop-color="#FFEDBA"/>
<stop offset="1" stop-color="#EE4D47"/>
</linearGradient>
<linearGradient id="paint2_linear" x1="679" y1="-212" x2="679" y2="892" gradientUnits="userSpaceOnUse">
<stop stop-color="#F4A984"/>
<stop offset="1" stop-color="#F4A984" stop-opacity="0"/>
</linearGradient>
<linearGradient id="paint3_linear" x1="724.478" y1="476.457" x2="724.478" y2="768.803" gradientUnits="userSpaceOnUse">
<stop offset="0.422311" stop-color="#2CA77F"/>
<stop offset="1" stop-color="#1B8877"/>
</linearGradient>
<linearGradient id="paint4_linear" x1="724.478" y1="476.457" x2="724.478" y2="768.803" gradientUnits="userSpaceOnUse">
<stop offset="0.422311" stop-color="#2CA77F"/>
<stop offset="1" stop-color="#1B8877"/>
</linearGradient>
<linearGradient id="paint5_linear" x1="716.269" y1="534.897" x2="716.269" y2="742.254" gradientUnits="userSpaceOnUse">
<stop stop-color="white"/>
<stop offset="1" stop-color="white" stop-opacity="0"/>
</linearGradient>
<linearGradient id="paint6_linear" x1="804.594" y1="403.877" x2="804.594" y2="511.918" gradientUnits="userSpaceOnUse">
<stop stop-color="#D3D86C"/>
<stop offset="1" stop-color="#82A637"/>
</linearGradient>
<linearGradient id="paint7_linear" x1="625.784" y1="568.394" x2="625.784" y2="716.547" gradientUnits="userSpaceOnUse">
<stop stop-color="#D3D86C"/>
<stop offset="1" stop-color="#82A637"/>
</linearGradient>
<linearGradient id="paint8_linear" x1="625.842" y1="604.771" x2="625.842" y2="716.547" gradientUnits="userSpaceOnUse">
<stop stop-color="#084F15" stop-opacity="0"/>
<stop offset="1" stop-color="#084F15"/>
</linearGradient>
<linearGradient id="paint9_linear" x1="600.702" y1="611.158" x2="600.702" y2="716.661" gradientUnits="userSpaceOnUse">
<stop stop-color="#084F15" stop-opacity="0"/>
<stop offset="1" stop-color="#084F15"/>
</linearGradient>
<linearGradient id="paint10_linear" x1="577.787" y1="630.434" x2="577.787" y2="716.547" gradientUnits="userSpaceOnUse">
<stop stop-color="#084F15" stop-opacity="0"/>
<stop offset="1" stop-color="#084F15"/>
</linearGradient>
<linearGradient id="paint11_linear" x1="557.494" y1="659.176" x2="557.494" y2="716.661" gradientUnits="userSpaceOnUse">
<stop stop-color="#084F15" stop-opacity="0"/>
<stop offset="1" stop-color="#084F15"/>
</linearGradient>
<linearGradient id="paint12_linear" x1="536.972" y1="692.481" x2="536.972" y2="716.547" gradientUnits="userSpaceOnUse">
<stop stop-color="#084F15" stop-opacity="0"/>
<stop offset="1" stop-color="#084F15"/>
</linearGradient>
<linearGradient id="paint13_linear" x1="650.866" y1="611.158" x2="650.866" y2="716.661" gradientUnits="userSpaceOnUse">
<stop stop-color="#084F15" stop-opacity="0"/>
<stop offset="1" stop-color="#084F15"/>
</linearGradient>
<linearGradient id="paint14_linear" x1="673.838" y1="630.548" x2="673.838" y2="716.661" gradientUnits="userSpaceOnUse">
<stop stop-color="#084F15" stop-opacity="0"/>
<stop offset="1" stop-color="#084F15"/>
</linearGradient>
<linearGradient id="paint15_linear" x1="694.075" y1="659.176" x2="694.075" y2="716.661" gradientUnits="userSpaceOnUse">
<stop stop-color="#084F15" stop-opacity="0"/>
<stop offset="1" stop-color="#084F15"/>
</linearGradient>
<linearGradient id="paint16_linear" x1="749.197" y1="622.382" x2="749.197" y2="716.661" gradientUnits="userSpaceOnUse">
<stop stop-color="#D3D86C"/>
<stop offset="1" stop-color="#82A637"/>
</linearGradient>
<linearGradient id="paint17_linear" x1="749.31" y1="645.604" x2="749.31" y2="716.661" gradientUnits="userSpaceOnUse">
<stop stop-color="#084F15" stop-opacity="0"/>
<stop offset="1" stop-color="#084F15"/>
</linearGradient>
<linearGradient id="paint18_linear" x1="733.464" y1="649.482" x2="733.464" y2="716.547" gradientUnits="userSpaceOnUse">
<stop stop-color="#084F15" stop-opacity="0"/>
<stop offset="1" stop-color="#084F15"/>
</linearGradient>
<linearGradient id="paint19_linear" x1="718.871" y1="661.914" x2="718.871" y2="716.661" gradientUnits="userSpaceOnUse">
<stop stop-color="#084F15" stop-opacity="0"/>
<stop offset="1" stop-color="#084F15"/>
</linearGradient>
<linearGradient id="paint20_linear" x1="705.931" y1="680.049" x2="705.931" y2="716.547" gradientUnits="userSpaceOnUse">
<stop stop-color="#084F15" stop-opacity="0"/>
<stop offset="1" stop-color="#084F15"/>
</linearGradient>
<linearGradient id="paint21_linear" x1="692.935" y1="701.377" x2="692.935" y2="716.661" gradientUnits="userSpaceOnUse">
<stop stop-color="#084F15" stop-opacity="0"/>
<stop offset="1" stop-color="#084F15"/>
</linearGradient>
<linearGradient id="paint22_linear" x1="765.271" y1="649.71" x2="765.271" y2="716.661" gradientUnits="userSpaceOnUse">
<stop stop-color="#084F15" stop-opacity="0"/>
<stop offset="1" stop-color="#084F15"/>
</linearGradient>
<linearGradient id="paint23_linear" x1="779.865" y1="661.914" x2="779.865" y2="716.661" gradientUnits="userSpaceOnUse">
<stop stop-color="#084F15" stop-opacity="0"/>
<stop offset="1" stop-color="#084F15"/>
</linearGradient>
<linearGradient id="paint24_linear" x1="133.869" y1="428.786" x2="133.869" y2="897.717" gradientUnits="userSpaceOnUse">
<stop offset="0.278352" stop-color="#EEEF99"/>
<stop offset="0.76976" stop-color="#B9D079"/>
</linearGradient>
<linearGradient id="paint25_linear" x1="133.869" y1="428.786" x2="133.869" y2="897.717" gradientUnits="userSpaceOnUse">
<stop offset="0.278352" stop-color="#EEEF99"/>
<stop offset="0.76976" stop-color="#B9D079"/>
</linearGradient>
<linearGradient id="paint26_linear" x1="530.755" y1="713.737" x2="530.755" y2="926.053" gradientUnits="userSpaceOnUse">
<stop stop-color="white"/>
<stop offset="1" stop-color="white" stop-opacity="0"/>
</linearGradient>
<linearGradient id="paint27_linear" x1="454.785" y1="650.774" x2="454.785" y2="860.992" gradientUnits="userSpaceOnUse">
<stop offset="0.164151" stop-color="#82A637"/>
<stop offset="0.890649" stop-color="#1B8877"/>
</linearGradient>
<linearGradient id="paint28_linear" x1="-129.416" y1="-96.4676" x2="-129.338" y2="259.265" gradientUnits="userSpaceOnUse">
<stop stop-color="white"/>
<stop offset="1" stop-color="white" stop-opacity="0"/>
</linearGradient>
<linearGradient id="paint29_linear" x1="-69" y1="646.593" x2="-69" y2="801.66" gradientUnits="userSpaceOnUse">
<stop stop-color="#D3D86C"/>
<stop offset="1" stop-color="#82A637"/>
</linearGradient>
<linearGradient id="paint30_linear" x1="24.0751" y1="684.397" x2="24.0751" y2="955.894" gradientUnits="userSpaceOnUse">
<stop stop-color="#084F15" stop-opacity="0"/>
<stop offset="1" stop-color="#084F15"/>
</linearGradient>
<linearGradient id="paint31_linear" x1="706.272" y1="464" x2="706.272" y2="-228" gradientUnits="userSpaceOnUse">
<stop stop-color="#FFEDBA" stop-opacity="0"/>
<stop offset="1" stop-color="#EB2A24"/>
</linearGradient>
<linearGradient id="paint32_linear" x1="788.554" y1="53.4384" x2="788.708" y2="405.438" gradientUnits="userSpaceOnUse">
<stop stop-color="white"/>
<stop offset="1" stop-color="white" stop-opacity="0"/>
</linearGradient>
<linearGradient id="paint33_linear" x1="550.452" y1="381.575" x2="550.565" y2="639.011" gradientUnits="userSpaceOnUse">
<stop stop-color="white"/>
<stop offset="1" stop-color="white" stop-opacity="0"/>
</linearGradient>
<linearGradient id="paint34_linear" x1="595.851" y1="895.311" x2="595.851" y2="923.97" gradientUnits="userSpaceOnUse">
<stop stop-color="#F4A984"/>
<stop offset="1" stop-color="#EE4D47"/>
</linearGradient>
<linearGradient id="paint35_linear" x1="691.845" y1="884.991" x2="691.845" y2="924.109" gradientUnits="userSpaceOnUse">
<stop stop-color="#F4A984"/>
<stop offset="1" stop-color="#EE4D47"/>
</linearGradient>
<linearGradient id="paint36_linear" x1="659.788" y1="585.17" x2="659.788" y2="903.351" gradientUnits="userSpaceOnUse">
<stop stop-color="#822626"/>
<stop offset="0.943497" stop-color="#402B2B"/>
</linearGradient>
<linearGradient id="paint37_linear" x1="642.991" y1="486.597" x2="642.991" y2="665.82" gradientUnits="userSpaceOnUse">
<stop stop-color="#F4A984"/>
<stop offset="1" stop-color="#EE4D47"/>
</linearGradient>
<linearGradient id="paint38_linear" x1="653.557" y1="520.578" x2="634.472" y2="528.809" gradientUnits="userSpaceOnUse">
<stop stop-color="#FFB3B6"/>
<stop offset="1" stop-color="#FFC8C1"/>
</linearGradient>
<linearGradient id="paint39_linear" x1="653.934" y1="511.111" x2="634.741" y2="519.239" gradientUnits="userSpaceOnUse">
<stop stop-color="#FFB3B6" stop-opacity="0.31"/>
<stop offset="1" stop-color="#FFC8C1"/>
</linearGradient>
<linearGradient id="paint40_linear" x1="613.667" y1="506.412" x2="617.749" y2="469.934" gradientUnits="userSpaceOnUse">
<stop stop-color="#FFB3B6"/>
<stop offset="1" stop-color="#FFC8C1"/>
</linearGradient>
<linearGradient id="paint41_linear" x1="646.05" y1="412.99" x2="646.05" y2="467.848" gradientUnits="userSpaceOnUse">
<stop stop-color="#F4A984"/>
<stop offset="1" stop-color="#EE4D47"/>
</linearGradient>
<linearGradient id="paint42_linear" x1="647.483" y1="441.777" x2="647.483" y2="498.808" gradientUnits="userSpaceOnUse">
<stop stop-color="#F4A984"/>
<stop offset="1" stop-color="#EE4D47"/>
</linearGradient>
<linearGradient id="paint43_linear" x1="673.554" y1="588.429" x2="575.786" y2="621.018" gradientUnits="userSpaceOnUse">
<stop stop-color="#FFB3B6"/>
<stop offset="1" stop-color="#FFC8C1"/>
</linearGradient>
<linearGradient id="paint44_linear" x1="674.825" y1="512.93" x2="674.825" y2="580.824" gradientUnits="userSpaceOnUse">
<stop stop-color="#F4A984"/>
<stop offset="1" stop-color="#EE4D47"/>
</linearGradient>
</defs>
</svg>
