<svg width="400" height="1080" viewBox="0 0 400 1080" fill="none" xmlns="http://www.w3.org/2000/svg">
<mask id="mask0" style="mask-type:alpha" maskUnits="userSpaceOnUse" x="0" y="0" width="400" height="1080">
<rect width="400" height="1080" fill="#C4C4C4"/>
</mask>
<g mask="url(#mask0)">
<path d="M633 -8H-652V792H533C588.229 792 633 747.228 633 692V-8Z" fill="url(#paint0_linear)"/>
<mask id="mask1" style="mask-type:alpha" maskUnits="userSpaceOnUse" x="-652" y="-8" width="1285" height="800">
<path d="M633 -8H-652V792H533C588.229 792 633 747.228 633 692V-8Z" fill="url(#paint1_linear)"/>
</mask>
<g mask="url(#mask1)">
<path d="M673.57 336.525H662.739V336.525C660.496 336.525 658.678 338.343 658.678 340.586V584.864C658.678 587.948 656.178 590.448 653.094 590.448V590.448C650.009 590.448 647.509 587.948 647.509 584.864V428.796C647.509 423.273 643.032 418.796 637.509 418.796H627.048C621.525 418.796 617.048 423.273 617.048 428.796V438.59C617.048 444.113 612.571 448.59 607.048 448.59H541.068C536.861 448.59 533.45 452 533.45 456.207V460.441C533.45 462.31 531.935 463.825 530.066 463.825V463.825C528.197 463.825 526.681 465.34 526.681 467.21V521.553C526.681 526.133 522.969 529.845 518.389 529.845V529.845C513.81 529.845 510.097 533.558 510.097 538.137V574.354C510.097 579.877 505.62 584.354 500.097 584.354H499.113C493.59 584.354 489.113 588.831 489.113 594.354V647.329C489.113 649.385 487.446 651.052 485.39 651.052V651.052C483.334 651.052 481.667 649.385 481.667 647.329V340.248C481.667 338.566 480.303 337.202 478.621 337.202V337.202C476.939 337.202 475.575 335.838 475.575 334.156V307.237C475.575 304.34 473.226 301.991 470.329 301.991V301.991C467.431 301.991 465.083 299.642 465.083 296.745V270.673C465.083 268.71 463.492 267.119 461.529 267.119V267.119C459.566 267.119 457.975 265.528 457.975 263.565V242.247C457.975 236.724 453.498 232.247 447.975 232.247H422.623C417.1 232.247 412.623 236.724 412.623 242.247V263.565C412.623 265.528 411.031 267.119 409.069 267.119V267.119C407.106 267.119 405.515 268.71 405.515 270.673V296.745C405.515 299.642 403.166 301.991 400.269 301.991V301.991C397.372 301.991 395.023 304.34 395.023 307.237V334.325C395.023 335.727 393.887 336.863 392.485 336.863V336.863C391.083 336.863 389.946 338 389.946 339.402V548.638C389.946 551.909 387.294 554.561 384.023 554.561V554.561C380.752 554.561 378.1 557.212 378.1 560.484V643.775C378.1 647.794 374.842 651.052 370.824 651.052H364.224C363.85 651.052 363.547 650.748 363.547 650.374V650.374C363.547 650 363.244 649.697 362.87 649.697H360.67C360.016 649.697 359.485 649.167 359.485 648.512V648.512C359.485 647.858 360.016 647.327 360.67 647.327H361.854C362.789 647.327 363.547 646.569 363.547 645.635V645.635C363.547 644.7 362.789 643.942 361.854 643.942H360.84C360.092 643.942 359.485 643.335 359.485 642.587V642.587C359.485 641.84 360.092 641.233 360.84 641.233H361.854C362.789 641.233 363.547 640.475 363.547 639.54V639.54C363.547 638.605 362.789 637.848 361.854 637.848H360.67C360.016 637.848 359.485 637.317 359.485 636.663V636.663C359.485 636.008 360.016 635.478 360.67 635.478H361.854C362.789 635.478 363.547 634.72 363.547 633.785V633.785C363.547 632.85 362.789 632.092 361.854 632.092H360.67C360.016 632.092 359.485 631.561 359.485 630.907V630.907C359.485 630.253 360.016 629.722 360.67 629.722H361.854C362.789 629.722 363.547 628.964 363.547 628.029V628.029C363.547 627.094 362.789 626.336 361.854 626.336H360.67C360.016 626.336 359.485 625.806 359.485 625.151V625.151C359.485 624.497 360.016 623.966 360.67 623.966H361.854C362.789 623.966 363.547 623.208 363.547 622.274V622.274C363.547 621.339 362.789 620.581 361.854 620.581H360.67C360.016 620.581 359.485 620.05 359.485 619.396V619.396C359.485 618.741 360.016 618.211 360.67 618.211H361.854C362.789 618.211 363.547 617.453 363.547 616.518V616.518C363.547 615.583 362.789 614.825 361.854 614.825H360.67C360.016 614.825 359.485 614.295 359.485 613.64V613.64C359.485 612.986 360.016 612.455 360.67 612.455H361.854C362.789 612.455 363.547 611.697 363.547 610.762V610.762C363.547 609.827 362.789 609.07 361.854 609.07H360.67C360.016 609.07 359.485 608.539 359.485 607.885V607.885C359.485 607.23 360.016 606.7 360.67 606.7H361.854C362.789 606.7 363.547 605.942 363.547 605.007V605.007C363.547 604.072 362.789 603.314 361.854 603.314H360.67C360.016 603.314 359.485 602.783 359.485 602.129V602.129C359.485 601.475 360.016 600.944 360.67 600.944H361.854C362.789 600.944 363.547 600.186 363.547 599.251V599.251C363.547 598.316 362.789 597.558 361.854 597.558H360.67C360.016 597.558 359.485 597.028 359.485 596.373V596.373C359.485 595.719 360.016 595.188 360.67 595.188H361.854C362.789 595.188 363.547 594.43 363.547 593.496V593.496C363.547 592.561 362.789 591.803 361.854 591.803H361.516C360.395 591.803 359.485 590.894 359.485 589.772V589.094C359.485 587.972 360.395 587.063 361.516 587.063H361.854C362.789 587.063 363.547 586.305 363.547 585.37V585.37C363.547 584.435 362.789 583.677 361.854 583.677H360.67C360.016 583.677 359.485 583.147 359.485 582.492V582.492C359.485 581.838 360.016 581.307 360.67 581.307H361.854C362.789 581.307 363.547 580.549 363.547 579.614V579.614C363.547 578.679 362.789 577.922 361.854 577.922H360.67C360.016 577.922 359.485 577.391 359.485 576.737V576.737C359.485 576.082 360.016 575.552 360.67 575.552H361.854C362.789 575.552 363.547 574.794 363.547 573.859V573.859C363.547 572.924 362.789 572.166 361.854 572.166H360.67C360.016 572.166 359.485 571.635 359.485 570.981V570.981C359.485 570.327 360.016 569.796 360.67 569.796H361.854C362.789 569.796 363.547 569.038 363.547 568.103V568.103C363.547 567.168 362.789 566.41 361.854 566.41H360.67C360.016 566.41 359.485 565.88 359.485 565.225V565.225C359.485 564.571 360.016 564.04 360.67 564.04H361.854C362.789 564.04 363.547 563.282 363.547 562.348V562.348C363.547 561.413 362.789 560.655 361.854 560.655H360.67C360.016 560.655 359.485 560.124 359.485 559.47V559.47C359.485 558.815 360.016 558.285 360.67 558.285H361.854C362.789 558.285 363.547 557.527 363.547 556.592V556.592C363.547 555.657 362.789 554.899 361.854 554.899H360.67C360.016 554.899 359.485 554.369 359.485 553.714V553.714C359.485 553.06 360.016 552.529 360.67 552.529H361.854C362.789 552.529 363.547 551.771 363.547 550.836V550.836C363.547 549.901 362.789 549.144 361.854 549.144H360.67C360.016 549.144 359.485 548.613 359.485 547.959V547.959C359.485 547.304 360.016 546.774 360.67 546.774H361.854C362.789 546.774 363.547 546.016 363.547 545.081V545.081C363.547 544.146 362.789 543.388 361.854 543.388H360.67C360.016 543.388 359.485 542.857 359.485 542.203V542.203C359.485 541.549 360.016 541.018 360.67 541.018H361.854C362.789 541.018 363.547 540.26 363.547 539.325V539.325C363.547 538.39 362.789 537.632 361.854 537.632H360.67C360.016 537.632 359.485 537.102 359.485 536.447V536.447C359.485 535.793 360.016 535.262 360.67 535.262H361.854C362.789 535.262 363.547 534.504 363.547 533.57V533.57C363.547 532.635 362.789 531.877 361.854 531.877H360.67C360.016 531.877 359.485 531.346 359.485 530.692V530.692C359.485 530.037 360.016 529.507 360.67 529.507H361.854C362.789 529.507 363.547 528.749 363.547 527.814V527.814C363.547 526.879 362.789 526.121 361.854 526.121H360.67C360.016 526.121 359.485 525.591 359.485 524.936V524.936C359.485 524.282 360.016 523.751 360.67 523.751H361.854C362.789 523.751 363.547 522.993 363.547 522.058V522.058C363.547 521.123 362.789 520.366 361.854 520.366H360.67C360.016 520.366 359.485 519.835 359.485 519.181V519.181C359.485 518.526 360.016 517.996 360.67 517.996H361.854C362.789 517.996 363.547 517.238 363.547 516.303V516.303C363.547 515.368 362.789 514.61 361.854 514.61H361.516C360.395 514.61 359.485 513.701 359.485 512.579V511.224C359.485 510.102 360.395 509.193 361.516 509.193H361.854C362.789 509.193 363.547 508.435 363.547 507.5V507.5C363.547 506.565 362.789 505.807 361.854 505.807H360.67C360.016 505.807 359.485 505.277 359.485 504.622V504.622C359.485 503.968 360.016 503.437 360.67 503.437H361.854C362.789 503.437 363.547 502.679 363.547 501.744V501.744C363.547 500.81 362.789 500.052 361.854 500.052H360.67C360.016 500.052 359.485 499.521 359.485 498.867V498.867C359.485 498.212 360.016 497.682 360.67 497.682H361.854C362.789 497.682 363.547 496.924 363.547 495.989V495.989C363.547 495.054 362.789 494.296 361.854 494.296H360.67C360.016 494.296 359.485 493.765 359.485 493.111V493.111C359.485 492.457 360.016 491.926 360.67 491.926H361.854C362.789 491.926 363.547 491.168 363.547 490.233V490.233C363.547 489.298 362.789 488.54 361.854 488.54H361.516C360.395 488.54 359.485 487.631 359.485 486.51V484.308C359.485 483.467 358.803 482.785 357.962 482.785V482.785C357.121 482.785 356.439 482.103 356.439 481.262V479.061C356.439 477.004 354.772 475.336 352.715 475.336H352.378C350.135 475.336 348.316 473.518 348.316 471.275V460.438C348.316 458.756 346.953 457.392 345.27 457.392V457.392C343.588 457.392 342.224 456.029 342.224 454.346V442.761C342.224 438.06 338.95 433.994 334.357 432.991L323.609 430.646V430.646C321.034 430.051 319.209 427.758 319.209 425.114V393.572C319.209 392.918 318.679 392.388 318.025 392.388V392.388C317.371 392.388 316.84 392.918 316.84 393.572V425.473C316.84 427.429 315.024 428.879 313.117 428.445V428.445C311.21 428.012 309.394 429.461 309.394 431.417V454.854C309.394 456.256 308.258 457.392 306.856 457.392V457.392C305.454 457.392 304.318 458.529 304.318 459.931V471.275C304.318 473.518 302.499 475.336 300.256 475.336H299.411C297.635 475.336 296.195 476.776 296.195 478.553V480.246C296.195 481.087 295.513 481.769 294.672 481.769V481.769C293.831 481.769 293.149 482.451 293.149 483.292V484.647C293.149 486.236 291.86 487.525 290.271 487.525H260.503C254.981 487.525 250.503 492.002 250.503 497.525V515.105C250.503 520.628 246.026 525.105 240.503 525.105H215.83C214.588 525.105 213.357 525.337 212.2 525.788L181.797 537.632V537.632C180.775 538.041 180.105 539.031 180.105 540.132V551.853C180.105 553.348 181.317 554.561 182.813 554.561H183.489C184.611 554.561 185.52 555.47 185.52 556.592V556.592C185.52 557.714 184.611 558.623 183.489 558.623H182.137C181.015 558.623 180.105 559.533 180.105 560.655V560.655C180.105 561.777 181.015 562.686 182.137 562.686H183.489C184.611 562.686 185.52 563.596 185.52 564.718V564.718C185.52 565.839 184.611 566.749 183.489 566.749H182.137C181.015 566.749 180.105 567.658 180.105 568.78V568.78C180.105 569.902 181.015 570.812 182.137 570.812H183.489C184.611 570.812 185.52 571.721 185.52 572.843V572.843C185.52 573.965 184.611 574.874 183.489 574.874H182.137C181.015 574.874 180.105 575.784 180.105 576.906V576.906C180.105 578.028 181.015 578.937 182.137 578.937H183.489C184.611 578.937 185.52 579.847 185.52 580.969V580.969C185.52 582.091 184.611 583 183.489 583H182.137C181.015 583 180.105 583.91 180.105 585.031V585.031C180.105 586.153 181.015 587.063 182.137 587.063H183.997C184.838 587.063 185.52 587.745 185.52 588.586V588.586C185.52 589.428 184.838 590.11 183.997 590.11H153.219C149.036 590.11 145.295 587.507 143.842 583.585L135.79 561.855C134.389 558.076 129.041 558.082 127.65 561.865V561.865C125.954 566.477 118.828 565.154 118.838 560.24C118.845 556.879 118.845 553.519 118.845 550.159C118.845 545.419 118.845 540.679 118.845 535.939C118.845 522.397 118.845 508.854 118.507 495.312C118.507 489.556 118.168 483.462 118.168 477.706C117.83 465.179 117.491 452.652 116.814 439.787C116.476 433.693 116.476 427.599 116.137 421.504C115.461 409.655 115.122 398.144 114.445 386.294C114.445 384.939 114.107 383.585 114.107 382.231C113.43 371.735 112.753 361.578 112.076 351.083C110.722 332.123 109.03 313.164 107.338 294.204C107.214 292.475 107.046 290.701 106.865 288.915C106.337 283.695 101.919 279.646 96.6725 279.646H33.2524C28.3981 279.646 24.0784 283.256 24.0784 288.11V288.11C23.7399 292.173 23.4013 296.235 23.0629 300.298C22.7244 303.684 22.3859 307.408 22.0475 310.794C21.3706 317.226 21.0321 323.659 20.3552 330.092C20.0168 333.139 20.0168 335.848 19.6783 338.895C19.3399 344.312 19.0015 349.729 18.3246 355.146C17.9861 357.516 17.9861 359.886 17.9861 361.917C17.6476 369.027 16.9708 376.137 16.6323 382.908C16.6323 385.278 16.2938 387.648 16.2938 390.018C15.9554 397.466 15.6169 404.576 15.2784 412.025C15.2784 413.718 14.9401 415.072 14.9401 416.765C14.6016 423.536 14.2633 430.646 13.9248 437.417C13.9248 438.771 13.9248 440.126 13.9248 441.48C13.5864 449.267 13.2478 457.054 13.2478 464.841C13.2478 466.534 13.2478 467.888 13.2478 469.581C12.9093 477.706 12.9094 485.832 12.5709 493.619V494.635C12.5709 502.76 12.2325 510.886 12.2325 518.673C12.2325 519.688 12.2325 520.704 12.2325 521.72C12.2325 529.845 12.2325 537.971 12.2325 546.096C12.2325 547.112 12.2325 548.466 12.2325 549.482C12.2325 551.894 12.2325 554.307 12.2325 556.763C12.2325 560.782 8.97458 564.04 4.95569 564.04V564.04C0.936792 564.04 -2.32117 567.298 -2.32117 571.317V652.578C-2.32117 657.345 -6.18517 661.208 -10.9517 661.208H-18.7357C-19.2032 661.208 -19.5822 660.83 -19.5822 660.362V660.362C-19.5822 659.895 -19.2032 659.516 -18.7357 659.516H-18.0591C-17.2179 659.516 -16.536 658.834 -16.536 657.993V657.315C-16.536 656.473 -17.2179 655.792 -18.0591 655.792V655.792C-18.9003 655.792 -19.5822 655.11 -19.5822 654.268V652.913C-19.5822 652.072 -18.9003 651.39 -18.0591 651.39V651.39C-17.2179 651.39 -16.536 650.708 -16.536 649.867V649.189C-16.536 648.348 -17.2179 647.666 -18.0591 647.666V647.666C-18.9003 647.666 -19.5822 646.984 -19.5822 646.143V644.449C-19.5822 643.608 -18.9003 642.926 -18.0591 642.926V642.926C-17.2179 642.926 -16.536 642.244 -16.536 641.403V640.725C-16.536 639.884 -17.2179 639.202 -18.0591 639.202V639.202C-18.9003 639.202 -19.5822 638.52 -19.5822 637.679V635.985C-19.5822 635.144 -18.9003 634.462 -18.0591 634.462V634.462C-17.2179 634.462 -16.536 633.78 -16.536 632.939V632.261C-16.536 631.42 -17.2179 630.738 -18.0591 630.738V630.738C-18.9003 630.738 -19.5822 630.056 -19.5822 629.215V627.521C-19.5822 626.68 -18.9003 625.998 -18.0591 625.998V625.998C-17.2179 625.998 -16.536 625.316 -16.536 624.475V623.797C-16.536 622.955 -17.2179 622.274 -18.0591 622.274V622.274C-18.9003 622.274 -19.5822 621.592 -19.5822 620.75V619.057C-19.5822 618.216 -18.9003 617.534 -18.0591 617.534V617.534C-17.2179 617.534 -16.536 616.852 -16.536 616.011V615.332C-16.536 614.491 -17.2179 613.809 -18.0591 613.809V613.809C-18.9003 613.809 -19.5822 613.128 -19.5822 612.286V610.593C-19.5822 609.751 -18.9003 609.07 -18.0591 609.07V609.07C-17.2179 609.07 -16.536 608.388 -16.536 607.546V606.868C-16.536 606.027 -17.2179 605.345 -18.0591 605.345V605.345C-18.9003 605.345 -19.5822 604.663 -19.5822 603.822V602.128C-19.5822 601.287 -18.9003 600.605 -18.0591 600.605V600.605C-17.2179 600.605 -16.536 599.924 -16.536 599.082V598.404C-16.536 597.563 -17.2179 596.881 -18.0591 596.881V596.881C-18.9003 596.881 -19.5822 596.199 -19.5822 595.358V593.664C-19.5822 592.823 -18.9003 592.141 -18.0591 592.141V592.141C-17.2179 592.141 -16.536 591.459 -16.536 590.618V589.94C-16.536 589.099 -17.2179 588.417 -18.0591 588.417V588.417C-18.9003 588.417 -19.5822 587.735 -19.5822 586.894V585.2C-19.5822 584.359 -18.9003 583.677 -18.0591 583.677V583.677C-17.2179 583.677 -16.536 582.995 -16.536 582.154V581.476C-16.536 580.635 -17.2179 579.953 -18.0591 579.953V579.953C-18.9003 579.953 -19.5822 579.271 -19.5822 578.43V576.736C-19.5822 575.895 -18.9003 575.213 -18.0591 575.213V575.213C-17.2179 575.213 -16.536 574.531 -16.536 573.69V571.658C-16.536 570.816 -17.2179 570.135 -18.0591 570.135V570.135C-18.9003 570.135 -19.5822 569.453 -19.5822 568.611V566.918C-19.5822 566.077 -18.9003 565.395 -18.0591 565.395V565.395C-17.2179 565.395 -16.536 564.713 -16.536 563.872V563.194C-16.536 562.352 -17.2179 561.67 -18.0591 561.67V561.67C-18.9003 561.67 -19.5822 560.989 -19.5822 560.147V558.115C-19.5822 557.274 -18.9003 556.592 -18.0591 556.592V556.592C-17.2179 556.592 -16.536 555.91 -16.536 555.069V554.391C-16.536 553.55 -17.2179 552.868 -18.0591 552.868V552.868C-18.9003 552.868 -19.5822 552.186 -19.5822 551.345V549.651C-19.5822 548.81 -18.9003 548.128 -18.0591 548.128V548.128C-17.2179 548.128 -16.536 547.446 -16.536 546.605V545.927C-16.536 545.086 -17.2179 544.404 -18.0591 544.404V544.404C-18.9003 544.404 -19.5822 543.722 -19.5822 542.881V541.187C-19.5822 540.346 -18.9003 539.664 -18.0591 539.664V539.664C-17.2179 539.664 -16.536 538.982 -16.536 538.141V537.463C-16.536 536.621 -17.2179 535.939 -18.0591 535.939V535.939C-18.9003 535.939 -19.5822 535.258 -19.5822 534.416V532.723C-19.5822 531.881 -18.9003 531.2 -18.0591 531.2V531.2C-17.2179 531.2 -16.536 530.518 -16.536 529.677V528.998C-16.536 528.157 -17.2179 527.475 -18.0591 527.475V527.475C-18.9003 527.475 -19.5822 526.793 -19.5822 525.952V524.259C-19.5822 523.417 -18.9003 522.735 -18.0591 522.735V522.735C-17.2179 522.735 -16.536 522.054 -16.536 521.212V520.534C-16.536 519.693 -17.2179 519.011 -18.0591 519.011V519.011C-18.9003 519.011 -19.5822 518.329 -19.5822 517.488V515.794C-19.5822 514.953 -18.9003 514.271 -18.0591 514.271V514.271C-17.2179 514.271 -16.536 513.589 -16.536 512.748V512.07C-16.536 511.229 -17.2179 510.547 -18.0591 510.547V510.547C-18.9003 510.547 -19.5822 509.865 -19.5822 509.024V507.33C-19.5822 506.489 -18.9003 505.807 -18.0591 505.807V505.807C-17.2179 505.807 -16.536 505.125 -16.536 504.284V503.606C-16.536 502.765 -17.2179 502.083 -18.0591 502.083V502.083C-18.9003 502.083 -19.5822 501.401 -19.5822 500.56V498.866C-19.5822 498.025 -18.9003 497.343 -18.0591 497.343V497.343C-17.2179 497.343 -16.536 496.661 -16.536 495.82V493.788C-16.536 492.946 -17.2179 492.265 -18.0591 492.265V492.265C-18.9003 492.265 -19.5822 491.583 -19.5822 490.742V489.048C-19.5822 488.207 -18.9003 487.525 -18.0591 487.525V487.525C-17.2179 487.525 -16.536 486.843 -16.536 486.002V485.324C-16.536 484.482 -17.2179 483.8 -18.0591 483.8V483.8C-18.9003 483.8 -19.5822 483.119 -19.5822 482.277V480.584C-19.5822 479.742 -18.9003 479.061 -18.0591 479.061V479.061C-17.2179 479.061 -16.536 478.379 -16.536 477.537V476.859C-16.536 476.018 -17.2179 475.336 -18.0591 475.336V475.336C-18.9003 475.336 -19.5822 474.654 -19.5822 473.813V472.12C-19.5822 471.278 -18.9003 470.596 -18.0591 470.596V470.596C-17.2179 470.596 -16.536 469.915 -16.536 469.073V468.395C-16.536 467.554 -17.2179 466.872 -18.0591 466.872V466.872C-18.9003 466.872 -19.5822 466.19 -19.5822 465.349V459.931C-19.5822 459.09 -18.9003 458.408 -18.0591 458.408V458.408C-17.2179 458.408 -16.536 457.726 -16.536 456.885V455.869C-16.536 454.466 -17.6729 453.33 -19.0752 453.33H-23.9812C-25.2901 453.33 -26.3512 452.269 -26.3512 450.96V450.402C-26.3512 449.401 -25.5397 448.59 -24.5386 448.59V448.59C-23.0491 448.59 -22.1954 446.893 -23.0831 445.697L-35.2245 429.337C-36.6687 427.392 -38.9488 426.244 -41.372 426.244H-41.5792C-45.6928 426.244 -49.0276 422.91 -49.0276 418.796V418.796V418.796C-49.0276 418.048 -49.7046 417.174 -49.7046 416.426V396.958C-49.7046 396.304 -50.2349 395.774 -50.8891 395.774V395.774C-51.5433 395.774 -52.0736 396.304 -52.0736 396.958V416.479C-52.0736 417.198 -52.7505 418.077 -52.7505 418.796V418.796V418.796C-52.7505 422.91 -56.0853 426.244 -60.1989 426.244H-60.4061C-62.8294 426.244 -65.1095 427.392 -66.5537 429.338L-79.3661 446.601C-79.9764 447.423 -79.3894 448.59 -78.3654 448.59V448.59C-77.6772 448.59 -77.1193 449.148 -77.1193 449.836V450.96C-77.1193 452.269 -78.1803 453.33 -79.4892 453.33H-84.3951C-85.7975 453.33 -86.9343 454.466 -86.9343 455.869V456.547C-86.9343 457.575 -86.1009 458.408 -85.0728 458.408V458.408C-84.0447 458.408 -83.2113 459.242 -83.2113 460.27V465.011C-83.2113 466.039 -84.0447 466.872 -85.0728 466.872V466.872C-86.1009 466.872 -86.9343 467.706 -86.9343 468.734V468.734C-86.9343 469.762 -86.1009 470.596 -85.0728 470.596V470.596C-84.0447 470.596 -83.2113 471.43 -83.2113 472.458V473.475C-83.2113 474.503 -84.0447 475.336 -85.0728 475.336V475.336C-86.1009 475.336 -86.9343 476.17 -86.9343 477.198V477.198C-86.9343 478.227 -86.1009 479.061 -85.0728 479.061V479.061C-84.0447 479.061 -83.2113 479.894 -83.2113 480.922V481.939C-83.2113 482.967 -84.0447 483.8 -85.0728 483.8V483.8C-86.1009 483.8 -86.9343 484.634 -86.9343 485.663V485.663C-86.9343 486.691 -86.1009 487.525 -85.0728 487.525V487.525C-84.0447 487.525 -83.2113 488.358 -83.2113 489.386V490.403C-83.2113 491.431 -84.0447 492.265 -85.0728 492.265V492.265C-86.1009 492.265 -86.9343 493.099 -86.9343 494.127V494.127C-86.9343 495.155 -86.1009 495.989 -85.0728 495.989V495.989C-84.0447 495.989 -83.2113 496.822 -83.2113 497.85V498.867C-83.2113 499.895 -84.0447 500.729 -85.0728 500.729V500.729C-86.1009 500.729 -86.9343 501.563 -86.9343 502.591V502.591C-86.9343 503.619 -86.1009 504.453 -85.0728 504.453V504.453C-84.0447 504.453 -83.2113 505.286 -83.2113 506.314V507.331C-83.2113 508.359 -84.0447 509.193 -85.0728 509.193V509.193C-86.1009 509.193 -86.9343 510.027 -86.9343 511.055V511.055C-86.9343 512.083 -86.1009 512.917 -85.0728 512.917V512.917C-84.0447 512.917 -83.2113 513.75 -83.2113 514.779V515.795C-83.2113 516.824 -84.0447 517.657 -85.0728 517.657V517.657C-86.1009 517.657 -86.9343 518.491 -86.9343 519.519V519.519C-86.9343 520.547 -86.1009 521.381 -85.0728 521.381V521.381C-84.0447 521.381 -83.2113 522.215 -83.2113 523.243V524.26C-83.2113 525.288 -84.0447 526.121 -85.0728 526.121V526.121C-86.1009 526.121 -86.9343 526.955 -86.9343 527.983V527.983C-86.9343 529.011 -86.1009 529.845 -85.0728 529.845V529.845C-84.0447 529.845 -83.2113 530.679 -83.2113 531.707V532.724C-83.2113 533.752 -84.0447 534.585 -85.0728 534.585V534.585C-86.1009 534.585 -86.9343 535.419 -86.9343 536.447V536.447C-86.9343 537.475 -86.1009 538.309 -85.0728 538.309V538.309C-84.0447 538.309 -83.2113 539.143 -83.2113 540.171V541.188C-83.2113 542.216 -84.0447 543.049 -85.0728 543.049V543.049C-86.1009 543.049 -86.9343 543.883 -86.9343 544.911V544.911C-86.9343 545.94 -86.1009 546.774 -85.0728 546.774V546.774C-84.0447 546.774 -83.2113 547.607 -83.2113 548.635V549.652C-83.2113 550.68 -84.0447 551.513 -85.0728 551.513V551.513C-86.1009 551.513 -86.9343 552.347 -86.9343 553.376V553.376C-86.9343 554.404 -86.1009 555.238 -85.0728 555.238V555.238C-84.0447 555.238 -83.2113 556.071 -83.2113 557.099V558.116C-83.2113 559.144 -84.0447 559.978 -85.0728 559.978V559.978C-86.1009 559.978 -86.9343 560.812 -86.9343 561.84V561.84C-86.9343 562.868 -86.1009 563.702 -85.0728 563.702V563.702C-84.0447 563.702 -83.2113 564.535 -83.2113 565.563V566.58C-83.2113 567.608 -84.0447 568.442 -85.0728 568.442V568.442C-86.1009 568.442 -86.9343 569.276 -86.9343 570.304V570.304C-86.9343 571.332 -86.1009 572.166 -85.0728 572.166V572.166C-84.0447 572.166 -83.2113 572.999 -83.2113 574.027V575.044C-83.2113 576.072 -84.0447 576.906 -85.0728 576.906V576.906C-86.1009 576.906 -86.9343 577.74 -86.9343 578.768V578.768C-86.9343 579.796 -86.1009 580.63 -85.0728 580.63H-83.7191C-83.4387 580.63 -83.2113 580.857 -83.2113 581.138V581.138C-83.2113 581.418 -83.4387 581.646 -83.7191 581.646H-101.486C-103.917 581.646 -105.888 579.675 -105.888 577.244V577.244V573.52V568.78V565.056V560.316V556.592V551.852V548.128V543.388V539.664V534.924V531.2V526.46V522.735V517.996V514.271V509.531V505.807V501.067V497.343V492.603V488.879V484.139V480.415V476.013V472.289V467.549V463.825V459.085V455.361V450.621V446.897V442.496V438.771V434.031V430.307V425.567V421.843V417.103V413.379V408.639V404.915V400.175V396.451V391.711V387.987V383.247V379.522V374.783V371.058V366.318V362.594V357.854V354.13V349.39V345.666V340.926L-106.061 333.635C-106.16 329.468 -108.835 325.799 -112.772 324.429L-122.851 320.922C-126.142 319.777 -129.579 322.22 -129.579 325.705V327.251C-129.579 329.194 -131.154 330.769 -133.097 330.769V330.769C-135.068 330.769 -136.654 329.15 -136.615 327.18L-136.171 305.22C-136.077 300.558 -139.218 296.449 -143.743 295.317L-165.13 289.969C-171.139 288.466 -177.055 292.732 -177.527 298.908L-180.686 340.249L-181.024 344.989L-181.363 348.713L-181.701 353.453L-182.04 357.177L-182.378 361.917L-182.717 365.641L-183.055 370.381L-183.393 374.105L-183.732 378.845L-184.07 382.57L-184.409 387.309L-184.747 391.034L-185.086 395.774L-185.424 399.498L-185.763 404.238L-186.101 407.962L-186.44 412.702L-186.778 416.426L-187.116 421.166L-187.455 424.89L-187.793 429.63L-188.132 433.354L-188.151 433.618C-188.354 436.465 -189.765 439.09 -192.027 440.831L-193.772 442.173C-195.998 443.887 -197.393 446.465 -197.609 449.267V449.267L-197.947 452.991L-198.285 457.731L-198.624 461.455L-198.962 466.195L-199.301 469.919L-199.639 474.659L-199.978 478.383L-200.316 482.785V482.785C-200.316 483.72 -201.074 484.478 -202.009 484.478H-229.915C-235.438 484.478 -239.915 488.955 -239.915 494.478V533.063C-239.915 535.961 -242.264 538.309 -245.161 538.309V538.309C-248.058 538.309 -250.407 540.658 -250.407 543.555V647.668C-250.407 651.594 -253.589 654.776 -257.515 654.776V654.776C-261.44 654.776 -264.622 651.594 -264.622 647.668V231.569C-264.622 230.073 -265.834 228.861 -267.33 228.861V228.861C-268.825 228.861 -270.037 227.649 -270.037 226.153V189.092C-270.037 183.569 -274.515 179.092 -280.037 179.092H-337.543C-343.066 179.092 -347.543 183.569 -347.543 189.092V226.492C-347.543 227.987 -348.755 229.2 -350.251 229.2V229.2C-351.746 229.2 -352.958 230.412 -352.958 231.907V412.196C-352.958 414.906 -355.156 417.103 -357.866 417.103H-361.758C-362.319 417.103 -362.774 417.558 -362.774 418.119V418.458C-362.774 418.832 -363.077 419.135 -363.451 419.135V419.135C-363.824 419.135 -364.127 419.438 -364.127 419.811V423.536C-364.127 423.91 -363.824 424.213 -363.451 424.213V424.213C-363.077 424.213 -362.774 424.516 -362.774 424.89V425.229C-362.774 425.603 -363.077 425.906 -363.451 425.906V425.906C-363.824 425.906 -364.127 426.209 -364.127 426.583V430.307C-364.127 430.681 -363.824 430.984 -363.451 430.984V430.984C-363.077 430.984 -362.774 431.287 -362.774 431.661V432C-362.774 432.374 -363.077 432.677 -363.451 432.677V432.677C-363.824 432.677 -364.127 432.98 -364.127 433.354V437.079C-364.127 437.453 -363.824 437.756 -363.451 437.756V437.756C-363.077 437.756 -362.774 438.059 -362.774 438.432V438.772C-362.774 439.145 -363.077 439.448 -363.451 439.448V439.448C-363.824 439.448 -364.127 439.752 -364.127 440.125V443.85C-364.127 444.224 -363.824 444.527 -363.451 444.527V444.527C-363.077 444.527 -362.774 444.83 -362.774 445.204V445.543C-362.774 445.917 -363.077 446.22 -363.451 446.22V446.22C-363.824 446.22 -364.127 446.523 -364.127 446.897V450.621C-364.127 450.995 -363.824 451.298 -363.451 451.298V451.298C-363.077 451.298 -362.774 451.601 -362.774 451.975V452.314C-362.774 452.688 -363.077 452.991 -363.451 452.991V452.991C-363.824 452.991 -364.127 453.294 -364.127 453.668V457.393C-364.127 457.766 -363.824 458.07 -363.451 458.07V458.07C-363.077 458.07 -362.774 458.373 -362.774 458.746V459.085C-362.774 459.459 -363.077 459.762 -363.451 459.762V459.762C-363.824 459.762 -364.127 460.065 -364.127 460.439V464.164C-364.127 464.538 -363.824 464.841 -363.451 464.841V464.841C-363.077 464.841 -362.774 465.144 -362.774 465.518V465.857C-362.774 466.231 -363.077 466.534 -363.451 466.534V466.534C-363.824 466.534 -364.127 466.837 -364.127 467.211V470.935C-364.127 471.309 -363.824 471.612 -363.451 471.612V471.612C-363.077 471.612 -362.774 471.915 -362.774 472.289V472.628C-362.774 473.002 -363.077 473.305 -363.451 473.305V473.305C-363.824 473.305 -364.127 473.608 -364.127 473.982V477.707C-364.127 478.08 -363.824 478.383 -363.451 478.383V478.383C-363.077 478.383 -362.774 478.686 -362.774 479.06V479.399C-362.774 479.773 -363.077 480.076 -363.451 480.076V480.076C-363.824 480.076 -364.127 480.379 -364.127 480.753V484.478C-364.127 484.852 -363.824 485.155 -363.451 485.155V485.155C-363.077 485.155 -362.774 485.458 -362.774 485.832V486.171C-362.774 486.545 -363.077 486.848 -363.451 486.848V486.848C-363.824 486.848 -364.127 487.151 -364.127 487.524V491.249C-364.127 491.623 -363.824 491.926 -363.451 491.926V491.926C-363.077 491.926 -362.774 492.229 -362.774 492.603V492.942C-362.774 493.316 -363.077 493.619 -363.451 493.619V493.619C-363.824 493.619 -364.127 493.922 -364.127 494.296V498.02C-364.127 498.394 -363.824 498.697 -363.451 498.697V498.697C-363.077 498.697 -362.774 499 -362.774 499.374V499.713C-362.774 500.087 -363.077 500.39 -363.451 500.39V500.39C-363.824 500.39 -364.127 500.693 -364.127 501.067V504.792C-364.127 505.166 -363.824 505.469 -363.451 505.469V505.469C-363.077 505.469 -362.774 505.772 -362.774 506.146V506.485C-362.774 506.858 -363.077 507.161 -363.451 507.161V507.161C-363.824 507.161 -364.127 507.465 -364.127 507.838V511.563C-364.127 511.937 -363.824 512.24 -363.451 512.24V512.24C-363.077 512.24 -362.774 512.543 -362.774 512.917V513.256C-362.774 513.63 -363.077 513.933 -363.451 513.933V513.933C-363.824 513.933 -364.127 514.236 -364.127 514.61V518.334C-364.127 518.708 -363.824 519.011 -363.451 519.011V519.011C-363.077 519.011 -362.774 519.314 -362.774 519.688V526.798C-362.774 527.172 -363.077 527.475 -363.451 527.475V527.475C-363.824 527.475 -364.127 527.778 -364.127 528.152V531.877C-364.127 532.251 -363.824 532.554 -363.451 532.554V532.554C-363.077 532.554 -362.774 532.857 -362.774 533.231V533.57C-362.774 533.944 -363.077 534.247 -363.451 534.247V534.247C-363.824 534.247 -364.127 534.55 -364.127 534.924V535.77C-364.127 536.612 -364.81 537.294 -365.651 537.294H-376.804C-382.327 537.294 -386.804 532.817 -386.804 527.294V435.906C-386.804 430.383 -391.281 425.906 -396.804 425.906H-436.372C-441.894 425.906 -446.372 430.383 -446.372 435.906V489.051C-446.372 493.818 -450.236 497.682 -455.002 497.682H-461.601C-462.723 497.682 -463.633 496.772 -463.633 495.65V495.65C-463.633 494.528 -464.542 493.619 -465.664 493.619H-467.187C-469.149 493.619 -470.74 492.028 -470.74 490.065V362.933V219.042C-470.74 217.546 -471.952 216.334 -473.448 216.334V216.334C-474.943 216.334 -476.156 215.122 -476.156 213.626V140C-476.156 134.477 -480.633 130 -486.156 130H-559.907C-565.43 130 -569.907 134.477 -569.907 140V213.627C-569.907 215.122 -571.119 216.334 -572.615 216.334V216.334C-574.11 216.334 -575.322 217.546 -575.322 219.042V577.247C-575.322 580.798 -578.201 583.677 -581.753 583.677V583.677C-585.304 583.677 -588.183 580.798 -588.183 577.247V448.771C-588.183 443.248 -592.661 438.771 -598.183 438.771H-600.86C-606.383 438.771 -610.86 434.294 -610.86 428.771V378.167C-610.86 376.111 -612.527 374.444 -614.583 374.444V374.444C-616.639 374.444 -618.306 372.777 -618.306 370.721V355.327C-618.306 349.805 -622.783 345.327 -628.306 345.327H-713.903C-719.426 345.327 -723.903 349.805 -723.903 355.327V370.721C-723.903 372.777 -725.57 374.444 -727.626 374.444V374.444C-729.682 374.444 -731.349 376.111 -731.349 378.167V598.392C-731.349 603.915 -735.826 608.392 -741.349 608.392H-745.718C-751.241 608.392 -755.718 603.915 -755.718 598.392V467.054C-755.718 461.531 -760.195 457.054 -765.718 457.054H-835.408C-840.931 457.054 -845.408 461.531 -845.408 467.054V542.714C-845.408 548.135 -849.802 552.529 -855.223 552.529V552.529C-860.644 552.529 -865.038 556.924 -865.038 562.344V639.542C-865.038 642.72 -867.614 645.296 -870.792 645.296V645.296C-873.97 645.296 -876.546 642.72 -876.546 639.542V377.83V373.427C-876.546 372.119 -877.606 371.058 -878.915 371.058H-880.268C-880.829 371.058 -881.284 370.604 -881.284 370.043V370.043C-881.284 369.482 -880.829 369.027 -880.268 369.027H-878.915C-877.606 369.027 -876.546 367.966 -876.546 366.658V364.625C-876.546 363.316 -877.606 362.256 -878.915 362.256H-880.268C-880.829 362.256 -881.284 361.801 -881.284 361.24V361.24C-881.284 360.679 -880.829 360.224 -880.268 360.224H-878.915C-877.606 360.224 -876.546 359.164 -876.546 357.855V355.822C-876.546 354.514 -877.606 353.453 -878.915 353.453H-880.268C-880.829 353.453 -881.284 352.998 -881.284 352.437V352.437C-881.284 351.876 -880.829 351.422 -880.268 351.422H-878.915C-877.606 351.422 -876.546 350.361 -876.546 349.052V347.019C-876.546 345.711 -877.606 344.65 -878.915 344.65H-880.607C-880.981 344.65 -881.284 344.347 -881.284 343.973V343.973C-881.284 343.599 -880.981 343.296 -880.607 343.296H-878.746C-877.344 343.296 -876.207 342.159 -876.207 340.758V339.063C-876.207 337.661 -877.344 336.525 -878.746 336.525H-880.268C-880.829 336.525 -881.284 336.07 -881.284 335.509V335.509C-881.284 334.948 -880.829 334.493 -880.268 334.493H-878.746C-877.344 334.493 -876.207 333.357 -876.207 331.955V330.26C-876.207 328.858 -877.344 327.722 -878.746 327.722H-880.268C-880.829 327.722 -881.284 327.267 -881.284 326.706V326.706C-881.284 326.145 -880.829 325.691 -880.268 325.691H-878.746C-877.344 325.691 -876.207 324.554 -876.207 323.152V321.458C-876.207 320.056 -877.344 318.919 -878.746 318.919H-880.268C-880.829 318.919 -881.284 318.465 -881.284 317.904V317.904C-881.284 317.343 -880.829 316.888 -880.268 316.888H-878.746C-877.344 316.888 -876.207 315.751 -876.207 314.349V296.407C-876.207 293.12 -877.858 290.081 -880.324 287.908C-890.463 278.978 -904.68 259.9 -904.976 233.601V232.924V232.076C-904.976 230.488 -906.264 229.2 -907.853 229.2H-908.867C-909.896 229.2 -910.729 230.033 -910.729 231.062V231.062C-910.729 232.09 -911.563 232.924 -912.591 232.924H-914.791C-917.034 232.924 -918.852 231.105 -918.852 228.862V175.536C-918.852 174.695 -919.534 174.013 -920.375 174.013V174.013C-921.216 174.013 -921.898 174.695 -921.898 175.536V232.416C-921.898 232.884 -922.277 233.262 -922.745 233.262V233.262C-923.212 233.262 -923.591 232.884 -923.591 232.416V231.4C-923.591 230.372 -924.424 229.538 -925.453 229.538H-927.821C-928.849 229.538 -929.683 230.372 -929.683 231.4V231.4C-929.683 232.429 -930.516 233.262 -931.545 233.262H-938.651C-939.68 233.262 -940.513 232.429 -940.513 231.4V231.4C-940.513 230.372 -941.347 229.538 -942.375 229.538H-943.559C-945.242 229.538 -946.605 230.902 -946.605 232.584V233.262C-946.605 259.941 -953.965 279.257 -962.531 288.354C-964.823 290.788 -966.574 293.842 -966.574 297.185V310.624C-966.574 310.718 -966.498 310.794 -966.405 310.794V310.794C-966.311 310.794 -966.236 310.87 -966.236 310.963V314.519C-966.236 316.201 -964.872 317.565 -963.19 317.565H-961.159C-960.598 317.565 -960.143 318.02 -960.143 318.581V318.581C-960.143 319.142 -960.598 319.596 -961.159 319.596H-963.19C-964.872 319.596 -966.236 320.96 -966.236 322.643V323.322C-966.236 325.004 -964.872 326.368 -963.19 326.368H-961.159C-960.598 326.368 -960.143 326.822 -960.143 327.383V327.383C-960.143 327.944 -960.598 328.399 -961.159 328.399H-963.359C-965.135 328.399 -966.574 329.839 -966.574 331.614V331.955C-966.574 333.731 -965.135 335.17 -963.359 335.17H-960.821C-960.447 335.17 -960.143 335.474 -960.143 335.848V335.848C-960.143 336.222 -960.447 336.525 -960.821 336.525H-963.359C-965.135 336.525 -966.574 337.964 -966.574 339.74V340.081C-966.574 341.856 -965.135 343.296 -963.359 343.296H-961.159C-960.598 343.296 -960.143 343.751 -960.143 344.312V344.312C-960.143 344.873 -960.598 345.327 -961.159 345.327H-963.359C-965.135 345.327 -966.574 346.767 -966.574 348.543V348.883C-966.574 350.659 -965.135 352.099 -963.359 352.099H-961.159C-960.598 352.099 -960.143 352.553 -960.143 353.114V353.114C-960.143 353.675 -960.598 354.13 -961.159 354.13H-963.359C-965.135 354.13 -966.574 355.57 -966.574 357.345V357.686C-966.574 359.462 -965.135 360.901 -963.359 360.901H-961.159C-960.598 360.901 -960.143 361.356 -960.143 361.917V361.917C-960.143 362.478 -960.598 362.933 -961.159 362.933H-963.359C-965.135 362.933 -966.574 364.372 -966.574 366.148V366.489C-966.574 368.265 -965.135 369.704 -963.359 369.704H-961.159C-960.598 369.704 -960.143 370.159 -960.143 370.72V370.72C-960.143 371.281 -960.598 371.735 -961.159 371.735H-963.528C-965.397 371.735 -966.913 373.251 -966.913 375.12V508.519C-966.913 513.753 -971.155 517.996 -976.389 517.996V517.996C-981.623 517.996 -985.866 522.238 -985.866 527.472V584.864C-985.866 587.761 -988.215 590.11 -991.112 590.11V590.11C-994.009 590.11 -996.358 592.459 -996.358 595.356V648.193C-996.358 650.345 -998.787 651.474 -1000.94 651.393V651.393C-1001.07 651.388 -1001.16 651.381 -1001.29 651.362C-1001.41 651.345 -1001.54 651.328 -1001.66 651.31C-1005.61 650.758 -1008.54 647.414 -1008.54 643.429V521.134C-1008.54 517.169 -1010.88 513.579 -1014.51 511.982L-1016.69 511.022C-1016.9 510.932 -1017.12 510.886 -1017.34 510.886V510.886H-1017.85C-1019.25 510.886 -1020.39 509.749 -1020.39 508.346V506.992C-1020.39 506.338 -1020.92 505.807 -1021.57 505.807V505.807C-1022.23 505.807 -1022.76 506.338 -1022.76 506.992V506.992C-1022.76 507.646 -1023.29 508.177 -1023.94 508.177H-1024.09C-1024.66 508.177 -1025.13 508.643 -1025.13 509.218V509.218C-1025.13 509.773 -1025.56 510.23 -1026.12 510.258L-1029.98 510.451C-1031.02 510.503 -1031.9 509.672 -1031.9 508.628V508.628C-1031.9 507.937 -1032.29 507.305 -1032.9 506.995L-1033.82 506.538C-1034.33 506.281 -1034.9 506.155 -1035.48 506.172L-1055.28 506.763C-1056.39 506.796 -1057.28 507.709 -1057.28 508.824V508.824C-1057.28 509.963 -1058.2 510.886 -1059.34 510.886H-1059.65C-1060.96 510.886 -1062.02 511.946 -1062.02 513.255V535.758C-1062.02 541.281 -1066.5 545.758 -1072.02 545.758H-1089.59C-1095.11 545.758 -1099.59 541.281 -1099.59 535.758V377.49C-1099.59 375.06 -1101.56 373.09 -1103.99 373.09V373.09C-1106.42 373.09 -1108.39 371.12 -1108.39 368.69V339.415C-1108.39 333.892 -1112.86 329.415 -1118.39 329.415H-1133.43C-1136.61 329.415 -1139.19 326.838 -1139.19 323.659V323.659C-1139.19 320.48 -1141.76 317.904 -1144.94 317.904H-1148.83C-1153.97 317.904 -1158.14 313.735 -1158.14 308.593V308.593C-1158.14 303.451 -1162.31 299.283 -1167.45 299.283H-1224.97C-1230.49 299.283 -1234.97 303.76 -1234.97 309.283V319.415C-1234.97 324.938 -1239.44 329.415 -1244.97 329.415H-1263.55C-1269.07 329.415 -1273.55 333.892 -1273.55 339.415V631.233C-1273.55 636.756 -1278.03 641.233 -1283.55 641.233H-1284.54C-1290.06 641.233 -1294.54 645.71 -1294.54 651.233V660.873C-1294.54 666.294 -1298.93 670.688 -1304.35 670.688V670.688C-1309.77 670.688 -1314.17 666.294 -1314.17 660.873V586.906C-1314.17 581.383 -1318.64 576.906 -1324.17 576.906H-1334.63C-1340.15 576.906 -1344.63 572.429 -1344.63 566.906V546.475C-1344.63 546.243 -1344.76 546.031 -1344.96 545.927V545.927C-1345.17 545.823 -1345.3 545.611 -1345.3 545.379V541.834C-1345.3 540.427 -1345.77 539.06 -1346.63 537.947L-1351.33 531.871C-1352.69 530.119 -1353.43 527.966 -1353.43 525.75V519.77C-1353.43 518.851 -1353.79 517.969 -1354.44 517.318V517.318C-1355.09 516.668 -1355.46 515.786 -1355.46 514.867V500.221C-1355.46 499.94 -1355.68 499.713 -1355.96 499.713V499.713C-1356.24 499.713 -1356.47 499.94 -1356.47 500.221V515.106C-1356.47 515.872 -1356.78 516.607 -1357.32 517.149V517.149C-1357.86 517.691 -1358.16 518.426 -1358.16 519.192V526.694C-1358.16 528.745 -1358.8 530.747 -1359.97 532.427L-1364.19 538.46C-1364.9 539.464 -1365.27 540.659 -1365.27 541.885V543.86C-1365.27 544.623 -1365.65 545.335 -1366.29 545.758V545.758C-1366.92 546.181 -1367.3 546.893 -1367.3 547.655V548.524C-1367.3 549.749 -1367.95 550.883 -1368.99 551.513L-1369.41 551.764C-1370.2 552.239 -1370.69 553.094 -1370.69 554.017V554.017C-1370.69 554.978 -1371.21 555.863 -1372.06 556.323L-1372.55 556.592C-1373.7 557.218 -1374.41 558.421 -1374.41 559.728V590.757C-1374.41 594.586 -1377.71 597.583 -1381.52 597.22V597.22V597.22C-1384.88 597.22 -1387.61 594.492 -1387.61 591.128V529.35C-1387.61 523.827 -1392.09 519.35 -1397.61 519.35H-1419.24C-1424.76 519.35 -1429.24 523.827 -1429.24 529.35V557.087C-1429.24 562.61 -1433.72 567.087 -1439.24 567.087H-1445.64C-1451.16 567.087 -1455.64 571.565 -1455.64 577.087V597.39C-1455.64 599.166 -1457.08 600.605 -1458.85 600.605V600.605C-1460.63 600.605 -1462.07 602.045 -1462.07 603.821V641.742C-1462.07 643.144 -1463.21 644.28 -1464.61 644.28V644.28C-1466.01 644.28 -1467.15 643.144 -1467.15 641.742V625.658C-1467.15 623.789 -1468.66 622.274 -1470.53 622.274V622.274C-1472.4 622.274 -1473.92 620.758 -1473.92 618.889V447.078C-1473.92 441.556 -1478.39 437.078 -1483.92 437.078H-1531.79C-1574.1 437.078 -1608.28 466.872 -1608.28 509.193V533.049C-1608.28 538.572 -1612.76 543.049 -1618.28 543.049H-1622.16C-1634.34 543.049 -1644.16 564.04 -1644.16 575.552V615.321C-1644.16 620.843 -1648.63 625.321 -1654.16 625.321H-1670.03C-1675.56 625.321 -1680.03 620.843 -1680.03 615.321V577.765C-1680.03 572.242 -1684.51 567.765 -1690.03 567.765H-1694.06C-1699.59 567.765 -1704.06 572.242 -1704.06 577.765V664.765C-1704.06 667.663 -1706.41 670.011 -1709.31 670.011V670.011C-1712.21 670.011 -1714.56 667.663 -1714.56 664.765V616.009C-1714.56 614.42 -1715.84 613.132 -1717.43 613.132V613.132C-1719.02 613.132 -1720.31 611.844 -1720.31 610.255V577.765C-1720.31 572.242 -1724.79 567.765 -1730.31 567.765H-1731.63C-1737.15 567.765 -1741.63 563.287 -1741.63 557.765V522.24C-1741.63 516.717 -1746.11 512.24 -1751.63 512.24H-1778C-1783.52 512.24 -1788 516.717 -1788 522.24V724C-1788 729.523 -1783.52 734 -1778 734H692C697.523 734 702 729.523 702 724V346.525C702 341.002 697.523 336.525 692 336.525H673.57ZM293.149 528.322C293.149 528.976 292.618 529.507 291.964 529.507H289.764V529.507C289.577 529.507 289.426 529.355 289.426 529.168V528.322C289.426 527.667 289.956 527.137 290.611 527.137H291.964C292.618 527.137 293.149 527.667 293.149 528.322V528.322ZM293.149 522.566C293.149 523.221 292.618 523.751 291.964 523.751H290.611C289.956 523.751 289.426 523.221 289.426 522.566V522.566C289.426 521.912 289.956 521.381 290.611 521.381H291.964C292.618 521.381 293.149 521.912 293.149 522.566V522.566ZM293.149 516.472C293.149 517.126 292.618 517.657 291.964 517.657H290.611C289.956 517.657 289.426 517.126 289.426 516.472V516.472C289.426 515.818 289.956 515.287 290.611 515.287H291.964C292.618 515.287 293.149 515.818 293.149 516.472V516.472ZM293.149 510.378C293.149 511.032 292.618 511.563 291.964 511.563H290.611C289.956 511.563 289.426 511.032 289.426 510.378V510.378C289.426 509.723 289.956 509.193 290.611 509.193H291.964C292.618 509.193 293.149 509.723 293.149 510.378V510.378ZM293.149 504.284C293.149 504.938 292.618 505.469 291.964 505.469H290.611C289.956 505.469 289.426 504.938 289.426 504.284V504.284C289.426 503.629 289.956 503.099 290.611 503.099H291.964C292.618 503.099 293.149 503.629 293.149 504.284V504.284ZM293.149 498.189C293.149 498.844 292.618 499.374 291.964 499.374H290.611C289.956 499.374 289.426 498.844 289.426 498.189V498.189C289.426 497.535 289.956 497.005 290.611 497.005H291.964C292.618 497.005 293.149 497.535 293.149 498.189V498.189ZM293.149 492.434C293.149 493.088 292.618 493.619 291.964 493.619H290.611C289.956 493.619 289.426 493.088 289.426 492.434V492.434C289.426 491.779 289.956 491.249 290.611 491.249H291.964C292.618 491.249 293.149 491.779 293.149 492.434V492.434Z" fill="url(#paint2_linear)"/>
<path d="M446.886 487.501C388.113 487.501 340.564 588.395 340.564 712.746H553.333C553.333 588.269 505.659 487.501 446.886 487.501Z" fill="url(#paint3_linear)"/>
<path d="M446.886 487.501C388.113 487.501 340.564 588.395 340.564 712.746H553.333C553.333 588.269 505.659 487.501 446.886 487.501Z" fill="url(#paint4_linear)"/>
<mask id="mask2" style="mask-type:alpha" maskUnits="userSpaceOnUse" x="340" y="487" width="214" height="226">
<path d="M446.886 487.501C388.113 487.501 340.564 588.395 340.564 712.746H553.333C553.333 588.269 505.659 487.501 446.886 487.501Z" fill="url(#paint5_linear)"/>
</mask>
<g mask="url(#mask2)">
<path opacity="0.2" d="M357.247 507.899C390.936 492.553 458.971 467.451 461.601 489.812C464.887 517.764 270.149 637.793 336.705 612.307C403.261 586.822 460.779 516.942 475.569 541.605C490.36 566.269 345.743 668.211 394.223 663.279C442.702 658.346 502.685 544.894 521.584 562.981C540.482 581.067 397.509 706.851 429.555 717.538C461.601 728.226 549.521 549.827 584.853 545.716" stroke="url(#paint6_linear)" stroke-width="2"/>
</g>
<path d="M258.478 468.457C190.311 468.457 135.02 577.247 135.02 711.433H381.936C381.81 577.247 326.645 468.457 258.478 468.457Z" fill="url(#paint7_linear)"/>
<mask id="mask3" style="mask-type:alpha" maskUnits="userSpaceOnUse" x="135" y="468" width="247" height="244">
<path d="M258.478 468.457C190.311 468.457 135.02 577.247 135.02 711.433H381.936C381.81 577.247 326.645 468.457 258.478 468.457Z" fill="url(#paint8_linear)"/>
</mask>
<g mask="url(#mask3)">
<path opacity="0.2" d="M145.526 517.485C158.538 502.129 187.768 474.768 200.594 488.169C216.627 504.921 182.471 562.853 204.777 569.833C227.083 576.813 258.45 467.23 285.636 477.7C312.821 488.169 168.529 657.779 218.718 664.061C268.906 670.343 291.909 518.881 313.518 529.35C335.127 539.82 264.724 621.484 289.121 645.215C313.518 668.947 326.066 557.27 345.583 569.833C365.101 582.397 351.16 645.215 332.339 687.792" stroke="url(#paint9_linear)" stroke-width="2"/>
</g>
<path opacity="0.2" d="M354.355 711.433H381.936C381.81 577.247 326.645 468.457 258.478 468.457C253.816 468.457 249.214 468.966 244.687 469.957C306.352 483.456 354.237 586.423 354.355 711.433Z" fill="#C9D983"/>
<path d="M347.418 471.744H343.77V712.975H347.418V471.744Z" fill="#0C5E59"/>
<path d="M370.995 450.951C362.089 450.951 353.693 457.332 347.841 463.203C351.785 457.588 357.255 450.823 361.453 449.419C368.577 447.122 374.557 448.27 374.557 448.27C374.557 448.27 367.814 438.826 357.891 443.293C353.439 445.207 349.749 451.461 347.078 457.46C348.605 451.844 349.622 445.207 348.732 439.081C346.315 423.765 329.14 422.488 329.14 422.488C329.14 422.488 338.682 435.762 340.463 451.461C340.717 453.503 340.844 455.545 340.972 457.46C339.445 448.398 335.883 437.549 327.232 431.806C305.733 417.511 292.248 442.782 292.248 442.782C292.248 442.782 304.588 435.124 320.744 443.293C333.466 449.674 338.936 463.586 340.717 469.074C338.554 464.863 329.776 449.164 315.528 446.739C294.156 443.165 288.686 470.351 288.686 470.351C288.686 470.351 300.898 460.523 316.037 461.161C327.741 461.672 336.265 466.522 340.463 470.351C338.3 469.713 333.339 468.564 327.614 468.564C308.659 468.309 304.715 493.708 304.715 493.708L340.717 471.627C339.19 474.563 336.01 480.689 334.229 485.029C331.812 490.9 333.339 503.918 333.339 503.918C333.339 503.918 339.19 493.963 340.844 487.454C342.498 481.2 342.116 474.69 341.862 471.627L366.288 498.047C366.288 498.047 372.267 481.965 353.948 474.18C351.53 473.159 349.368 472.265 347.714 471.627C352.167 472.265 357.51 474.052 362.98 477.626C373.666 484.518 380.409 493.963 380.409 493.963C380.409 493.963 387.024 474.435 370.74 466.777C365.397 464.224 359.291 464.607 354.075 465.756C358.019 463.459 363.107 461.799 369.341 462.565C384.098 464.352 388.169 474.946 388.169 474.946C388.169 474.946 392.367 450.823 370.995 450.951Z" fill="url(#paint10_linear)"/>
<path d="M269.06 684.595C266.78 674.102 263.018 664.179 258.001 655.054C257.317 653.8 256.519 652.431 255.721 651.176C249.907 641.482 242.724 632.813 234.402 625.285C233.376 624.259 232.236 623.346 231.096 622.434C222.203 615.02 212.056 608.975 201.112 604.641C199.744 604.071 198.376 603.615 197.007 603.158C186.063 599.28 174.206 597.113 162.007 596.885C161.323 596.885 160.525 596.885 159.841 596.885C159.157 596.885 158.359 596.885 157.675 596.885C145.362 597.113 133.619 599.28 122.675 603.158C121.307 603.615 119.939 604.185 118.57 604.641C107.626 608.975 97.4791 615.02 88.5866 622.434C87.4465 623.346 86.3064 624.373 85.2804 625.285C76.9578 632.813 69.6614 641.482 63.961 651.176C63.163 652.431 62.4789 653.8 61.6809 655.054C56.6645 664.179 52.9023 674.102 50.6222 684.595C50.2802 686.078 50.0521 687.561 49.7101 689.043C48.57 695.431 48 701.932 48 708.547H271.568C271.568 701.932 270.998 695.316 269.858 689.043C269.63 687.561 269.402 686.078 269.06 684.595Z" fill="url(#paint11_linear)"/>
<path opacity="0.3" d="M157.676 596.771V708.547H162.008V596.771C161.324 596.771 160.526 596.771 159.842 596.771C159.044 596.771 158.36 596.771 157.676 596.771Z" fill="url(#paint12_linear)"/>
<path opacity="0.3" d="M118.57 604.641L146.388 708.661H150.834L122.561 603.158C121.306 603.615 119.938 604.071 118.57 604.641Z" fill="url(#paint13_linear)"/>
<path opacity="0.3" d="M85.2803 625.285L133.391 708.547H138.294L88.5865 622.434C87.4464 623.346 86.3063 624.373 85.2803 625.285Z" fill="url(#paint14_linear)"/>
<path opacity="0.3" d="M61.6807 655.054L115.264 708.661H121.307L63.8468 651.176C63.1628 652.431 62.3647 653.8 61.6807 655.054Z" fill="url(#paint15_linear)"/>
<path opacity="0.3" d="M49.71 689.043L83.5701 708.547H92.2347L50.622 684.481C50.28 686.078 50.052 687.561 49.71 689.043Z" fill="url(#paint16_linear)"/>
<path opacity="0.3" d="M168.734 708.661H173.181L200.998 604.641C199.63 604.071 198.262 603.615 196.894 603.158L168.734 708.661Z" fill="url(#paint17_linear)"/>
<path opacity="0.3" d="M181.274 708.661H186.291L234.402 625.399C233.376 624.373 232.236 623.461 231.096 622.548L181.274 708.661Z" fill="url(#paint18_linear)"/>
<g opacity="0.3">
<path d="M198.262 708.661H204.304L257.888 655.054C257.204 653.8 256.406 652.431 255.607 651.176L198.262 708.661Z" fill="url(#paint19_linear)"/>
</g>
<path d="M227.447 708.661H236.112L269.972 689.157C269.744 687.675 269.402 686.192 269.06 684.709L227.447 708.661Z" fill="#084F15"/>
<path d="M352.742 693.378C351.26 686.762 348.866 680.375 345.673 674.558C345.217 673.76 344.761 672.961 344.305 672.049C340.657 665.89 336.097 660.415 330.738 655.625C330.054 655.054 329.37 654.37 328.572 653.8C322.872 649.123 316.488 645.245 309.533 642.508C308.735 642.166 307.823 641.824 306.911 641.596C299.956 639.086 292.432 637.718 284.68 637.604C284.223 637.604 283.767 637.604 283.311 637.604C282.855 637.604 282.399 637.604 281.943 637.604C274.191 637.718 266.666 639.2 259.712 641.596C258.8 641.938 258.002 642.166 257.09 642.508C250.135 645.245 243.751 649.123 238.051 653.8C237.367 654.37 236.682 655.054 235.884 655.625C230.526 660.415 225.966 665.89 222.318 672.049C221.862 672.847 221.405 673.646 220.949 674.558C217.757 680.375 215.363 686.648 213.881 693.378C213.653 694.29 213.539 695.316 213.311 696.229C212.627 700.221 212.171 704.441 212.171 708.661H354.224C354.224 704.441 353.882 700.221 353.084 696.229C353.198 695.202 352.97 694.29 352.742 693.378Z" fill="url(#paint20_linear)"/>
<path opacity="0.3" d="M281.942 637.604V708.661H284.679V637.604C284.223 637.604 283.767 637.604 283.31 637.604C282.854 637.604 282.398 637.604 281.942 637.604Z" fill="url(#paint21_linear)"/>
<path opacity="0.3" d="M257.203 642.508L274.874 708.547H277.724L259.825 641.482C258.913 641.938 258.001 642.166 257.203 642.508Z" fill="url(#paint22_linear)"/>
<path opacity="0.3" d="M235.998 655.739L266.552 708.661H269.744L238.164 653.914C237.366 654.484 236.682 655.054 235.998 655.739Z" fill="url(#paint23_linear)"/>
<path opacity="0.3" d="M220.949 674.558L255.037 708.547H258.914L222.431 672.049C221.975 672.961 221.405 673.76 220.949 674.558Z" fill="url(#paint24_linear)"/>
<path opacity="0.3" d="M213.425 696.229L234.972 708.661H240.444L213.995 693.377C213.767 694.29 213.539 695.202 213.425 696.229Z" fill="url(#paint25_linear)"/>
<path opacity="0.3" d="M289.011 708.661H291.861L309.532 642.622C308.734 642.28 307.822 641.938 306.91 641.71L289.011 708.661Z" fill="url(#paint26_linear)"/>
<path opacity="0.3" d="M296.992 708.661H300.184L330.738 655.739C330.054 655.168 329.37 654.484 328.572 653.914L296.992 708.661Z" fill="url(#paint27_linear)"/>
<path opacity="0.3" d="M307.822 708.661H311.698L345.787 674.672C345.331 673.874 344.875 673.075 344.419 672.163L307.822 708.661Z" fill="url(#paint28_linear)"/>
<path opacity="0.3" d="M326.292 708.661H331.764L353.312 696.229C353.198 695.316 352.97 694.29 352.742 693.377L326.292 708.661Z" fill="url(#paint29_linear)"/>
<path d="M638 701H-658V796.58H638V701Z" fill="url(#paint30_linear)"/>
<mask id="mask4" style="mask-type:alpha" maskUnits="userSpaceOnUse" x="-658" y="701" width="1296" height="96">
<path d="M638 701H-658V796.58H638V701Z" fill="url(#paint31_linear)"/>
</mask>
<g mask="url(#mask4)">
<path opacity="0.7" fill-rule="evenodd" clip-rule="evenodd" d="M-107.209 739.025C-115.813 748.086 -124.592 754.265 -133.975 753.839C-136.302 753.733 -138.171 753.254 -139.57 752.366C-140.999 751.458 -141.87 750.165 -142.246 748.599C-142.614 747.066 -142.499 745.313 -142.062 743.437C-141.624 741.553 -140.846 739.482 -139.823 737.282C-136.077 729.224 -128.822 718.992 -121.797 709.085L-121.797 709.084L-121.796 709.084C-121.183 708.218 -120.571 707.356 -119.964 706.497C-116.166 701.13 -112.525 695.913 -109.61 691.215C-106.682 686.496 -104.542 682.388 -103.685 679.223C-103.256 677.64 -103.177 676.395 -103.4 675.466C-103.61 674.592 -104.096 673.95 -104.98 673.516C-105.914 673.057 -107.344 672.81 -109.436 672.929C-111.516 673.048 -114.163 673.524 -117.467 674.425C-123.974 676.199 -131.223 680.292 -139.059 686.133C-146.886 691.967 -155.24 699.5 -163.957 708.091C-176.245 720.201 -189.203 734.36 -202.382 748.761L-202.382 748.761L-202.383 748.762L-202.385 748.764C-207.915 754.807 -213.483 760.892 -219.058 766.886C-237.889 787.134 -256.779 806.336 -274.331 819.156C-291.812 831.925 -308.318 838.626 -322.216 833.15C-329.087 830.444 -332.547 826.555 -332.959 821.647C-333.358 816.885 -330.834 811.516 -326.705 805.91C-318.417 794.654 -303.018 781.61 -288.067 769.083C-287.531 768.634 -286.995 768.185 -286.459 767.737L-286.393 767.681L-286.363 767.656C-279.452 761.868 -272.684 756.2 -266.77 750.858C-260.362 745.069 -255.008 739.708 -251.579 735.036C-249.864 732.7 -248.663 730.58 -248.04 728.703C-247.419 726.831 -247.393 725.273 -247.915 723.979C-248.436 722.689 -249.569 721.497 -251.601 720.491C-253.641 719.481 -256.526 718.691 -260.417 718.192C-272.79 716.606 -288.664 720.338 -306.344 727.592C-323.994 734.835 -343.319 745.534 -362.543 757.734C-400.99 782.134 -438.937 812.475 -462.128 832.969L-463.452 831.471C-440.203 810.925 -402.172 780.516 -363.615 756.046C-344.337 743.811 -324.903 733.045 -307.103 725.742C-289.332 718.45 -273.062 714.554 -260.163 716.208C-256.157 716.722 -253.029 717.552 -250.713 718.699C-248.387 719.851 -246.818 721.355 -246.061 723.229C-245.306 725.1 -245.425 727.173 -246.142 729.333C-246.857 731.486 -248.188 733.797 -249.966 736.219C-253.523 741.064 -259.003 746.537 -265.429 752.342C-271.372 757.71 -278.167 763.401 -285.07 769.182L-285.072 769.184L-285.072 769.184L-285.095 769.203C-285.657 769.673 -286.22 770.145 -286.783 770.617C-301.802 783.2 -316.981 796.076 -325.095 807.095C-329.168 812.626 -331.301 817.483 -330.966 821.48C-330.643 825.33 -327.978 828.731 -321.483 831.29C-308.652 836.344 -292.96 830.287 -275.51 817.541C-258.131 804.847 -239.356 785.776 -220.522 765.524C-214.974 759.558 -209.42 753.489 -203.898 747.455L-203.898 747.455C-190.703 733.036 -177.688 718.815 -165.361 706.667C-156.613 698.045 -148.185 690.441 -140.255 684.53C-132.334 678.626 -124.851 674.366 -117.993 672.495C-114.614 671.574 -111.819 671.062 -109.551 670.933C-107.295 670.804 -105.471 671.047 -104.098 671.721C-102.675 672.42 -101.803 673.552 -101.455 674.999C-101.12 676.392 -101.285 678.012 -101.754 679.746C-102.694 683.213 -104.972 687.533 -107.91 692.269C-110.861 697.025 -114.535 702.288 -118.331 707.653C-118.887 708.438 -119.446 709.226 -120.005 710.015L-120.109 710.162L-120.131 710.194C-127.197 720.16 -134.345 730.243 -138.01 738.125C-138.999 740.252 -139.718 742.187 -140.114 743.89C-140.512 745.6 -140.57 747.014 -140.301 748.133C-140.041 749.218 -139.468 750.061 -138.498 750.677C-137.498 751.312 -136.013 751.744 -133.885 751.841C-125.448 752.225 -117.217 746.659 -108.659 737.647C-101.716 730.336 -94.7232 720.94 -87.376 711.067L-87.3758 711.067L-87.3753 711.067L-87.3708 711.06L-87.354 711.038C-85.6827 708.792 -83.9931 706.522 -82.2816 704.246C-73.0676 691.995 -63.2397 679.613 -52.3394 670.295C-41.4327 660.972 -29.3633 654.64 -15.67 654.64V656.64C-28.7066 656.64 -40.3297 662.66 -51.0399 671.815C-61.7564 680.976 -71.4698 693.198 -80.6832 705.449C-82.3832 707.709 -84.0669 709.972 -85.7369 712.216L-85.7388 712.218L-85.7392 712.219C-93.09 722.097 -100.175 731.617 -107.209 739.025ZM278.118 685.721C276.124 682.595 272.504 680.744 266.241 680.939C253.784 681.329 241.887 691.391 230.226 706.694C218.611 721.938 207.459 742.067 196.413 762.032L196.26 762.307C185.288 782.138 174.414 801.791 163.346 816.1C157.785 823.29 152.134 829.187 146.348 833.084C140.55 836.989 134.56 838.924 128.373 838.071C122.271 837.229 118.219 834.668 115.888 830.716C113.59 826.818 113.065 821.733 113.618 816.025C114.723 804.619 120.202 790.103 125.757 775.964C126.195 774.848 126.634 773.735 127.072 772.625L127.099 772.557L127.099 772.556C132.229 759.538 137.146 747.064 138.686 737.593C139.525 732.432 139.318 728.391 137.803 725.673C136.35 723.067 133.546 721.44 128.51 721.44C123.557 721.44 118.739 723.628 113.95 727.613C109.156 731.601 104.459 737.335 99.7744 744.286C91.9224 755.938 84.2095 770.846 76.1885 786.35C74.6323 789.358 73.0644 792.389 71.4817 795.423C61.7651 814.046 51.4963 832.763 39.9813 846.826C28.4803 860.872 15.5679 870.48 0.53006 870.48C-6.89944 870.48 -11.7599 868.546 -14.3748 864.821C-16.959 861.141 -17.1213 856.019 -15.9413 850.196C-14.7544 844.339 -12.1608 837.537 -8.92612 830.287C-6.18588 824.146 -2.96362 817.636 0.291016 811.061L0.291565 811.06L0.29184 811.06C0.882141 809.867 1.47354 808.673 2.06332 807.477C9.78207 791.837 17.1802 776.207 18.6739 764.108C19.418 758.081 18.6713 753.107 15.942 749.459C13.2228 745.823 8.37433 743.289 0.430573 742.495C-25.1463 739.937 -51.0949 751.128 -73.2219 766.301C-95.331 781.461 -113.482 800.501 -123.418 813.39L-125.002 812.169C-114.958 799.139 -96.6588 779.947 -74.353 764.651C-52.0649 749.368 -25.6336 737.879 0.629578 740.505C8.88583 741.331 14.3648 744.011 17.5435 748.261C20.712 752.497 21.4334 758.079 20.6588 764.353C19.1149 776.858 11.5281 792.818 3.85681 808.363C3.26462 809.563 2.67163 810.76 2.08044 811.955L2.0798 811.956C-1.1756 818.533 -4.37714 825.001 -7.09967 831.102C-10.3197 838.319 -12.8392 844.958 -13.9811 850.593C-15.1298 856.262 -14.8365 860.683 -12.7379 863.672C-10.6699 866.618 -6.62042 868.48 0.53006 868.48C14.6523 868.48 27.0524 859.458 38.4339 845.559C49.8013 831.677 59.985 813.134 69.7085 794.497C71.2819 791.482 72.8436 788.463 74.3962 785.462L74.3967 785.46C82.4153 769.96 90.193 754.925 98.1158 743.169C102.847 736.148 107.668 730.238 112.67 726.075C117.677 721.91 122.933 719.44 128.51 719.44C134.004 719.44 137.63 721.256 139.55 724.699C141.407 728.031 141.517 732.646 140.66 737.914C139.083 747.611 134.085 760.29 128.985 773.224L128.985 773.225C128.529 774.381 128.073 775.538 127.618 776.696C122.035 790.907 116.681 805.146 115.609 816.218C115.073 821.748 115.625 826.332 117.611 829.7C119.564 833.012 123.004 835.311 128.647 836.089C134.206 836.856 139.707 835.146 145.23 831.425C150.765 827.698 156.264 821.988 161.764 814.877C172.738 800.689 183.552 781.143 194.569 761.233L194.663 761.063C205.688 741.136 216.913 720.866 228.636 705.482C240.313 690.157 252.716 679.361 266.179 678.94C272.876 678.731 277.305 680.728 279.804 684.645C282.24 688.463 282.676 693.872 282.038 700.115C281.396 706.392 279.642 713.719 277.482 721.526C276.401 725.435 275.214 729.477 274.008 733.58L273.953 733.765C272.764 737.811 271.558 741.915 270.413 746.021C268.088 754.362 266.026 762.679 264.89 770.466C263.753 778.26 263.553 785.458 264.908 791.58C266.258 797.677 269.141 802.682 274.178 806.184C279.238 809.702 286.581 811.78 296.99 811.78V813.78C286.339 813.78 278.546 811.656 273.037 807.827C267.506 803.982 264.391 798.495 262.956 792.012C261.526 785.553 261.757 778.083 262.911 770.177C264.065 762.264 266.155 753.85 268.487 745.484C269.632 741.375 270.839 737.27 272.024 733.238L272.03 733.216L272.089 733.016C273.296 728.911 274.478 724.884 275.555 720.993C277.71 713.201 279.425 706.011 280.048 699.911C280.676 693.775 280.175 688.946 278.118 685.721ZM591.168 780.093C589.298 773.859 585.375 767.044 580.163 759.961C574.944 752.869 568.393 745.455 561.213 738.021C549.247 725.632 535.484 713.138 523.151 701.942L523.151 701.942C520.688 699.706 518.283 697.522 515.96 695.402C508.973 689.023 502.741 683.219 497.936 678.275C493.094 673.294 489.82 669.301 488.612 666.53C488.001 665.13 488.044 664.328 488.297 663.885C488.547 663.45 489.233 662.963 490.952 662.792C494.363 662.453 500.62 663.483 510.556 666.322L511.105 664.398C501.196 661.567 494.594 660.42 490.754 660.802C488.846 660.992 487.308 661.59 486.562 662.891C485.821 664.184 486.098 665.768 486.778 667.329C488.152 670.481 491.687 674.715 496.502 679.669C501.353 684.66 507.625 690.5 514.611 696.878C516.943 699.007 519.355 701.197 521.822 703.436C534.155 714.633 547.859 727.074 559.774 739.41C566.921 746.81 573.406 754.153 578.552 761.147C583.706 768.15 587.478 774.751 589.253 780.667C590.155 783.673 590.68 786.087 590.875 787.979C591.073 789.891 590.92 791.163 590.573 791.959C590.258 792.679 589.775 793.042 589.052 793.171C588.25 793.315 587.106 793.17 585.572 792.647C582.517 791.604 578.385 789.228 573.337 785.869C568.309 782.524 562.455 778.26 555.972 773.499C555.17 772.91 554.358 772.313 553.537 771.71C541.108 762.573 526.596 751.907 511.455 742.622C495.322 732.729 478.397 724.355 462.431 721.08C454.527 719.459 448.976 718.776 445.423 718.967C443.663 719.061 442.242 719.376 441.269 720.025C440.763 720.362 440.365 720.798 440.124 721.342C439.883 721.883 439.828 722.463 439.9 723.043C440.038 724.164 440.661 725.382 441.543 726.641C442.442 727.922 443.684 729.349 445.197 730.902C448.224 734.009 452.42 737.706 457.332 741.859C460.242 744.318 463.405 746.94 466.738 749.702L466.743 749.706C474.694 756.296 483.605 763.681 492.315 771.554C504.675 782.726 516.548 794.81 524.578 806.855C526.586 809.866 527.908 812.271 528.637 814.144C529.381 816.057 529.429 817.224 529.184 817.883C528.985 818.42 528.491 818.854 527.287 819.009C526.057 819.168 524.302 818.992 522.016 818.463C517.465 817.409 511.176 815.042 503.563 811.788C495.965 808.539 487.107 804.433 477.435 799.926L475.024 798.802C456.242 790.047 434.631 779.973 413.456 771.878C391.39 763.441 369.689 757.109 352.094 756.7C345.072 756.537 339.819 757.234 336.125 758.702C332.396 760.185 330.177 762.495 329.46 765.53C328.761 768.49 329.549 771.918 331.292 775.559C333.044 779.22 335.824 783.229 339.314 787.419C353.256 804.16 379.028 824.393 398.48 837.901L399.621 836.259C380.193 822.767 354.611 802.662 340.851 786.139C337.415 782.013 334.748 778.148 333.096 774.696C331.434 771.224 330.861 768.3 331.407 765.989C331.935 763.752 333.569 761.871 336.864 760.561C340.195 759.236 345.137 758.539 352.047 758.7C369.282 759.101 390.714 765.324 412.742 773.746C433.848 781.815 455.402 791.862 474.198 800.624L476.591 801.739C486.257 806.243 495.144 810.363 502.777 813.627C510.396 816.884 516.827 819.314 521.565 820.411C523.924 820.958 525.957 821.197 527.542 820.993C529.153 820.785 530.502 820.078 531.059 818.58C531.57 817.205 531.288 815.443 530.5 813.418C529.697 811.352 528.285 808.809 526.243 805.745C518.073 793.49 506.051 781.274 493.656 770.07C484.914 762.168 475.945 754.735 467.983 748.136L467.981 748.134L467.977 748.131C464.654 745.377 461.507 742.768 458.624 740.331C453.715 736.181 449.583 732.538 446.63 729.506C445.153 727.99 443.992 726.649 443.181 725.492C442.354 724.313 441.962 723.424 441.885 722.798C441.848 722.505 441.886 722.302 441.952 722.154C442.016 722.008 442.137 721.849 442.378 721.689C442.897 721.343 443.876 721.053 445.531 720.964C448.806 720.788 454.139 721.421 462.03 723.04C477.654 726.245 494.344 734.476 510.409 744.327C525.476 753.566 539.925 764.186 552.365 773.33C553.182 773.931 553.99 774.524 554.789 775.111C561.266 779.868 567.157 784.159 572.229 787.534C577.281 790.896 581.603 793.405 584.926 794.54C586.582 795.105 588.109 795.371 589.404 795.14C590.779 794.894 591.821 794.096 592.405 792.76C592.956 791.498 593.076 789.819 592.865 787.774C592.652 785.709 592.089 783.162 591.168 780.093Z" fill="url(#paint32_linear)"/>
<path opacity="0.1" d="M-269.842 734.448C-403.072 734.448 -425.442 778.701 -660.43 778.701V848.42H638V699.38C352.91 699.38 389.605 761.584 144.032 761.584C-101.54 761.584 -154.465 734.448 -269.842 734.448Z" fill="url(#paint33_linear)"/>
</g>
<path opacity="0.2" d="M-182.493 406.869C-68.4111 292.787 -68.3707 107.784 -182.402 -6.34713C-296.434 -120.478 -481.356 -120.519 -595.437 -6.43723C-709.519 107.644 -709.559 292.647 -595.528 406.778C-481.496 520.91 -296.574 520.95 -182.493 406.869Z" fill="url(#paint34_linear)"/>
<path d="M633 -8H-652V792H533C588.229 792 633 747.228 633 692V-8Z" fill="url(#paint35_linear)"/>
</g>
<path opacity="0.56" d="M731.256 551.321C844.115 438.411 844.115 255.349 731.256 142.44C618.396 29.5309 435.414 29.531 322.554 142.44C209.694 255.349 209.694 438.411 322.554 551.32C435.414 664.23 618.396 664.23 731.256 551.321Z" fill="url(#paint36_linear)"/>
<path opacity="0.2" d="M383.357 743.553C465.897 660.977 465.897 527.094 383.357 444.518C300.817 361.941 166.993 361.941 84.4524 444.518C1.91209 527.094 1.91209 660.977 84.4524 743.553C166.993 826.129 300.817 826.13 383.357 743.553Z" fill="url(#paint37_linear)"/>
<path d="M127.307 835.259C124.86 823.983 120.821 813.319 115.436 803.513C114.702 802.164 113.845 800.694 112.988 799.345C106.747 788.926 99.0362 779.611 90.102 771.521C89.0005 770.418 87.7767 769.437 86.5528 768.457C77.0066 760.489 66.1142 753.993 54.3651 749.335C52.8964 748.722 51.4278 748.232 49.9592 747.742C38.2101 743.574 25.4819 741.245 12.3865 741C11.6522 741 10.7955 741 10.0612 741C9.3269 741 8.47016 741 7.73584 741C-5.4819 741.245 -18.0877 743.574 -29.8368 747.742C-31.3055 748.232 -32.7741 748.845 -34.2427 749.335C-45.9918 753.993 -56.8842 760.489 -66.4304 768.457C-67.6543 769.437 -68.8781 770.54 -69.9796 771.521C-78.9138 779.611 -86.7466 788.926 -92.8659 799.345C-93.7226 800.694 -94.4569 802.164 -95.3136 803.513C-100.699 813.319 -104.737 823.983 -107.185 835.259C-107.552 836.853 -107.797 838.446 -108.164 840.04C-109.388 846.904 -110 853.891 -110 861H130C130 853.891 129.388 846.781 128.164 840.04C127.919 838.446 127.675 836.853 127.307 835.259Z" fill="white"/>
</g>
<defs>
<linearGradient id="paint0_linear" x1="240.272" y1="1111.08" x2="-745.489" y2="298.262" gradientUnits="userSpaceOnUse">
<stop stop-color="#FFEDBA"/>
<stop offset="1" stop-color="#EE4D47"/>
</linearGradient>
<linearGradient id="paint1_linear" x1="141" y1="982" x2="-715.525" y2="250.836" gradientUnits="userSpaceOnUse">
<stop stop-color="#FFEDBA"/>
<stop offset="1" stop-color="#EE4D47"/>
</linearGradient>
<linearGradient id="paint2_linear" x1="213" y1="-220" x2="213" y2="884" gradientUnits="userSpaceOnUse">
<stop stop-color="#F4A984"/>
<stop offset="1" stop-color="#F4A984" stop-opacity="0"/>
</linearGradient>
<linearGradient id="paint3_linear" x1="446.949" y1="439.562" x2="446.949" y2="719.313" gradientUnits="userSpaceOnUse">
<stop offset="0.240793" stop-color="#2CA77F"/>
<stop offset="1" stop-color="#1B8877"/>
</linearGradient>
<linearGradient id="paint4_linear" x1="446.949" y1="439.562" x2="446.949" y2="719.313" gradientUnits="userSpaceOnUse">
<stop offset="0.240793" stop-color="#2CA77F"/>
<stop offset="1" stop-color="#1B8877"/>
</linearGradient>
<linearGradient id="paint5_linear" x1="446.949" y1="439.562" x2="446.949" y2="719.313" gradientUnits="userSpaceOnUse">
<stop offset="0.240793" stop-color="#2CA77F"/>
<stop offset="1" stop-color="#1B8877"/>
</linearGradient>
<linearGradient id="paint6_linear" x1="453.843" y1="450.726" x2="453.843" y2="704.866" gradientUnits="userSpaceOnUse">
<stop stop-color="white"/>
<stop offset="1" stop-color="white" stop-opacity="0"/>
</linearGradient>
<linearGradient id="paint7_linear" x1="258.478" y1="468.457" x2="258.478" y2="760.803" gradientUnits="userSpaceOnUse">
<stop offset="0.422311" stop-color="#2CA77F"/>
<stop offset="1" stop-color="#1B8877"/>
</linearGradient>
<linearGradient id="paint8_linear" x1="258.478" y1="468.457" x2="258.478" y2="760.803" gradientUnits="userSpaceOnUse">
<stop offset="0.422311" stop-color="#2CA77F"/>
<stop offset="1" stop-color="#1B8877"/>
</linearGradient>
<linearGradient id="paint9_linear" x1="250.269" y1="526.897" x2="250.269" y2="734.254" gradientUnits="userSpaceOnUse">
<stop stop-color="white"/>
<stop offset="1" stop-color="white" stop-opacity="0"/>
</linearGradient>
<linearGradient id="paint10_linear" x1="338.594" y1="395.877" x2="338.594" y2="503.918" gradientUnits="userSpaceOnUse">
<stop stop-color="#D3D86C"/>
<stop offset="1" stop-color="#82A637"/>
</linearGradient>
<linearGradient id="paint11_linear" x1="159.784" y1="560.394" x2="159.784" y2="708.547" gradientUnits="userSpaceOnUse">
<stop stop-color="#D3D86C"/>
<stop offset="1" stop-color="#82A637"/>
</linearGradient>
<linearGradient id="paint12_linear" x1="159.842" y1="596.771" x2="159.842" y2="708.547" gradientUnits="userSpaceOnUse">
<stop stop-color="#084F15" stop-opacity="0"/>
<stop offset="1" stop-color="#084F15"/>
</linearGradient>
<linearGradient id="paint13_linear" x1="134.702" y1="603.158" x2="134.702" y2="708.661" gradientUnits="userSpaceOnUse">
<stop stop-color="#084F15" stop-opacity="0"/>
<stop offset="1" stop-color="#084F15"/>
</linearGradient>
<linearGradient id="paint14_linear" x1="111.787" y1="622.434" x2="111.787" y2="708.547" gradientUnits="userSpaceOnUse">
<stop stop-color="#084F15" stop-opacity="0"/>
<stop offset="1" stop-color="#084F15"/>
</linearGradient>
<linearGradient id="paint15_linear" x1="91.4936" y1="651.176" x2="91.4936" y2="708.661" gradientUnits="userSpaceOnUse">
<stop stop-color="#084F15" stop-opacity="0"/>
<stop offset="1" stop-color="#084F15"/>
</linearGradient>
<linearGradient id="paint16_linear" x1="70.9723" y1="684.481" x2="70.9723" y2="708.547" gradientUnits="userSpaceOnUse">
<stop stop-color="#084F15" stop-opacity="0"/>
<stop offset="1" stop-color="#084F15"/>
</linearGradient>
<linearGradient id="paint17_linear" x1="184.866" y1="603.158" x2="184.866" y2="708.661" gradientUnits="userSpaceOnUse">
<stop stop-color="#084F15" stop-opacity="0"/>
<stop offset="1" stop-color="#084F15"/>
</linearGradient>
<linearGradient id="paint18_linear" x1="207.838" y1="622.548" x2="207.838" y2="708.661" gradientUnits="userSpaceOnUse">
<stop stop-color="#084F15" stop-opacity="0"/>
<stop offset="1" stop-color="#084F15"/>
</linearGradient>
<linearGradient id="paint19_linear" x1="228.075" y1="651.176" x2="228.075" y2="708.661" gradientUnits="userSpaceOnUse">
<stop stop-color="#084F15" stop-opacity="0"/>
<stop offset="1" stop-color="#084F15"/>
</linearGradient>
<linearGradient id="paint20_linear" x1="283.197" y1="614.382" x2="283.197" y2="708.661" gradientUnits="userSpaceOnUse">
<stop stop-color="#D3D86C"/>
<stop offset="1" stop-color="#82A637"/>
</linearGradient>
<linearGradient id="paint21_linear" x1="283.31" y1="637.604" x2="283.31" y2="708.661" gradientUnits="userSpaceOnUse">
<stop stop-color="#084F15" stop-opacity="0"/>
<stop offset="1" stop-color="#084F15"/>
</linearGradient>
<linearGradient id="paint22_linear" x1="267.464" y1="641.482" x2="267.464" y2="708.547" gradientUnits="userSpaceOnUse">
<stop stop-color="#084F15" stop-opacity="0"/>
<stop offset="1" stop-color="#084F15"/>
</linearGradient>
<linearGradient id="paint23_linear" x1="252.871" y1="653.914" x2="252.871" y2="708.661" gradientUnits="userSpaceOnUse">
<stop stop-color="#084F15" stop-opacity="0"/>
<stop offset="1" stop-color="#084F15"/>
</linearGradient>
<linearGradient id="paint24_linear" x1="239.931" y1="672.049" x2="239.931" y2="708.547" gradientUnits="userSpaceOnUse">
<stop stop-color="#084F15" stop-opacity="0"/>
<stop offset="1" stop-color="#084F15"/>
</linearGradient>
<linearGradient id="paint25_linear" x1="226.935" y1="693.377" x2="226.935" y2="708.661" gradientUnits="userSpaceOnUse">
<stop stop-color="#084F15" stop-opacity="0"/>
<stop offset="1" stop-color="#084F15"/>
</linearGradient>
<linearGradient id="paint26_linear" x1="299.271" y1="641.71" x2="299.271" y2="708.661" gradientUnits="userSpaceOnUse">
<stop stop-color="#084F15" stop-opacity="0"/>
<stop offset="1" stop-color="#084F15"/>
</linearGradient>
<linearGradient id="paint27_linear" x1="313.865" y1="653.914" x2="313.865" y2="708.661" gradientUnits="userSpaceOnUse">
<stop stop-color="#084F15" stop-opacity="0"/>
<stop offset="1" stop-color="#084F15"/>
</linearGradient>
<linearGradient id="paint28_linear" x1="326.804" y1="672.163" x2="326.804" y2="708.661" gradientUnits="userSpaceOnUse">
<stop stop-color="#084F15" stop-opacity="0"/>
<stop offset="1" stop-color="#084F15"/>
</linearGradient>
<linearGradient id="paint29_linear" x1="339.802" y1="693.377" x2="339.802" y2="708.661" gradientUnits="userSpaceOnUse">
<stop stop-color="#084F15" stop-opacity="0"/>
<stop offset="1" stop-color="#084F15"/>
</linearGradient>
<linearGradient id="paint30_linear" x1="-332.131" y1="420.786" x2="-332.131" y2="889.717" gradientUnits="userSpaceOnUse">
<stop offset="0.278352" stop-color="#EEEF99"/>
<stop offset="0.76976" stop-color="#B9D079"/>
</linearGradient>
<linearGradient id="paint31_linear" x1="-332.131" y1="420.786" x2="-332.131" y2="889.717" gradientUnits="userSpaceOnUse">
<stop offset="0.278352" stop-color="#EEEF99"/>
<stop offset="0.76976" stop-color="#B9D079"/>
</linearGradient>
<linearGradient id="paint32_linear" x1="64.7552" y1="705.737" x2="64.7552" y2="918.053" gradientUnits="userSpaceOnUse">
<stop stop-color="white"/>
<stop offset="1" stop-color="white" stop-opacity="0"/>
</linearGradient>
<linearGradient id="paint33_linear" x1="-11.2148" y1="642.774" x2="-11.2148" y2="852.992" gradientUnits="userSpaceOnUse">
<stop offset="0.164151" stop-color="#82A637"/>
<stop offset="0.890649" stop-color="#1B8877"/>
</linearGradient>
<linearGradient id="paint34_linear" x1="-595.416" y1="-104.468" x2="-595.338" y2="251.265" gradientUnits="userSpaceOnUse">
<stop stop-color="white"/>
<stop offset="1" stop-color="white" stop-opacity="0"/>
</linearGradient>
<linearGradient id="paint35_linear" x1="240.272" y1="456" x2="240.272" y2="-236" gradientUnits="userSpaceOnUse">
<stop stop-color="#FFEDBA" stop-opacity="0"/>
<stop offset="1" stop-color="#EB2A24"/>
</linearGradient>
<linearGradient id="paint36_linear" x1="322.554" y1="45.4384" x2="322.708" y2="397.438" gradientUnits="userSpaceOnUse">
<stop stop-color="white"/>
<stop offset="1" stop-color="white" stop-opacity="0"/>
</linearGradient>
<linearGradient id="paint37_linear" x1="84.4524" y1="373.575" x2="84.5649" y2="631.011" gradientUnits="userSpaceOnUse">
<stop stop-color="white"/>
<stop offset="1" stop-color="white" stop-opacity="0"/>
</linearGradient>
</defs>
</svg>
